<?xml version="1.0" encoding="utf-8" standalone="no"?>
<!DOCTYPE svg PUBLIC "-//W3C//DTD SVG 1.1//EN"
  "http://www.w3.org/Graphics/SVG/1.1/DTD/svg11.dtd">
<svg xmlns:xlink="http://www.w3.org/1999/xlink" width="460.8pt" height="345.6pt" viewBox="0 0 460.8 345.6" xmlns="http://www.w3.org/2000/svg" version="1.1">
 <metadata>
  <rdf:RDF xmlns:dc="http://purl.org/dc/elements/1.1/" xmlns:cc="http://creativecommons.org/ns#" xmlns:rdf="http://www.w3.org/1999/02/22-rdf-syntax-ns#">
   <cc:Work>
    <dc:type rdf:resource="http://purl.org/dc/dcmitype/StillImage"/>
    <dc:date>2023-07-15T20:44:06.908197</dc:date>
    <dc:format>image/svg+xml</dc:format>
    <dc:creator>
     <cc:Agent>
      <dc:title>Matplotlib v3.7.1, https://matplotlib.org/</dc:title>
     </cc:Agent>
    </dc:creator>
   </cc:Work>
  </rdf:RDF>
 </metadata>
 <defs>
  <style type="text/css">*{stroke-linejoin: round; stroke-linecap: butt}</style>
 </defs>
 <g id="figure_1">
  <g id="patch_1">
   <path d="M 0 345.6 
L 460.8 345.6 
L 460.8 0 
L 0 0 
z
" style="fill: #ffffff"/>
  </g>
  <g id="axes_1">
   <g id="patch_2">
    <path d="M 57.6 307.584 
L 414.72 307.584 
L 414.72 41.472 
L 57.6 41.472 
z
" style="fill: #ffffff"/>
   </g>
   <g id="matplotlib.axis_1">
    <g id="xtick_1">
     <g id="line2d_1">
      <defs>
       <path id="mcd3da87364" d="M 0 0 
L 0 3.5 
" style="stroke: #000000; stroke-width: 0.8"/>
      </defs>
      <g>
       <use xlink:href="#mcd3da87364" x="73.399277" y="307.584" style="stroke: #000000; stroke-width: 0.8"/>
      </g>
     </g>
     <g id="text_1">
      <!-- 0 -->
      <g transform="translate(70.218027 322.182437) scale(0.1 -0.1)">
       <defs>
        <path id="DejaVuSans-30" d="M 2034 4250 
Q 1547 4250 1301 3770 
Q 1056 3291 1056 2328 
Q 1056 1369 1301 889 
Q 1547 409 2034 409 
Q 2525 409 2770 889 
Q 3016 1369 3016 2328 
Q 3016 3291 2770 3770 
Q 2525 4250 2034 4250 
z
M 2034 4750 
Q 2819 4750 3233 4129 
Q 3647 3509 3647 2328 
Q 3647 1150 3233 529 
Q 2819 -91 2034 -91 
Q 1250 -91 836 529 
Q 422 1150 422 2328 
Q 422 3509 836 4129 
Q 1250 4750 2034 4750 
z
" transform="scale(0.015625)"/>
       </defs>
       <use xlink:href="#DejaVuSans-30"/>
      </g>
     </g>
    </g>
    <g id="xtick_2">
     <g id="line2d_2">
      <g>
       <use xlink:href="#mcd3da87364" x="116.744343" y="307.584" style="stroke: #000000; stroke-width: 0.8"/>
      </g>
     </g>
     <g id="text_2">
      <!-- 100 -->
      <g transform="translate(107.200593 322.182437) scale(0.1 -0.1)">
       <defs>
        <path id="DejaVuSans-31" d="M 794 531 
L 1825 531 
L 1825 4091 
L 703 3866 
L 703 4441 
L 1819 4666 
L 2450 4666 
L 2450 531 
L 3481 531 
L 3481 0 
L 794 0 
L 794 531 
z
" transform="scale(0.015625)"/>
       </defs>
       <use xlink:href="#DejaVuSans-31"/>
       <use xlink:href="#DejaVuSans-30" x="63.623047"/>
       <use xlink:href="#DejaVuSans-30" x="127.246094"/>
      </g>
     </g>
    </g>
    <g id="xtick_3">
     <g id="line2d_3">
      <g>
       <use xlink:href="#mcd3da87364" x="160.089409" y="307.584" style="stroke: #000000; stroke-width: 0.8"/>
      </g>
     </g>
     <g id="text_3">
      <!-- 200 -->
      <g transform="translate(150.545659 322.182437) scale(0.1 -0.1)">
       <defs>
        <path id="DejaVuSans-32" d="M 1228 531 
L 3431 531 
L 3431 0 
L 469 0 
L 469 531 
Q 828 903 1448 1529 
Q 2069 2156 2228 2338 
Q 2531 2678 2651 2914 
Q 2772 3150 2772 3378 
Q 2772 3750 2511 3984 
Q 2250 4219 1831 4219 
Q 1534 4219 1204 4116 
Q 875 4013 500 3803 
L 500 4441 
Q 881 4594 1212 4672 
Q 1544 4750 1819 4750 
Q 2544 4750 2975 4387 
Q 3406 4025 3406 3419 
Q 3406 3131 3298 2873 
Q 3191 2616 2906 2266 
Q 2828 2175 2409 1742 
Q 1991 1309 1228 531 
z
" transform="scale(0.015625)"/>
       </defs>
       <use xlink:href="#DejaVuSans-32"/>
       <use xlink:href="#DejaVuSans-30" x="63.623047"/>
       <use xlink:href="#DejaVuSans-30" x="127.246094"/>
      </g>
     </g>
    </g>
    <g id="xtick_4">
     <g id="line2d_4">
      <g>
       <use xlink:href="#mcd3da87364" x="203.434475" y="307.584" style="stroke: #000000; stroke-width: 0.8"/>
      </g>
     </g>
     <g id="text_4">
      <!-- 300 -->
      <g transform="translate(193.890725 322.182437) scale(0.1 -0.1)">
       <defs>
        <path id="DejaVuSans-33" d="M 2597 2516 
Q 3050 2419 3304 2112 
Q 3559 1806 3559 1356 
Q 3559 666 3084 287 
Q 2609 -91 1734 -91 
Q 1441 -91 1130 -33 
Q 819 25 488 141 
L 488 750 
Q 750 597 1062 519 
Q 1375 441 1716 441 
Q 2309 441 2620 675 
Q 2931 909 2931 1356 
Q 2931 1769 2642 2001 
Q 2353 2234 1838 2234 
L 1294 2234 
L 1294 2753 
L 1863 2753 
Q 2328 2753 2575 2939 
Q 2822 3125 2822 3475 
Q 2822 3834 2567 4026 
Q 2313 4219 1838 4219 
Q 1578 4219 1281 4162 
Q 984 4106 628 3988 
L 628 4550 
Q 988 4650 1302 4700 
Q 1616 4750 1894 4750 
Q 2613 4750 3031 4423 
Q 3450 4097 3450 3541 
Q 3450 3153 3228 2886 
Q 3006 2619 2597 2516 
z
" transform="scale(0.015625)"/>
       </defs>
       <use xlink:href="#DejaVuSans-33"/>
       <use xlink:href="#DejaVuSans-30" x="63.623047"/>
       <use xlink:href="#DejaVuSans-30" x="127.246094"/>
      </g>
     </g>
    </g>
    <g id="xtick_5">
     <g id="line2d_5">
      <g>
       <use xlink:href="#mcd3da87364" x="246.779541" y="307.584" style="stroke: #000000; stroke-width: 0.8"/>
      </g>
     </g>
     <g id="text_5">
      <!-- 400 -->
      <g transform="translate(237.235791 322.182437) scale(0.1 -0.1)">
       <defs>
        <path id="DejaVuSans-34" d="M 2419 4116 
L 825 1625 
L 2419 1625 
L 2419 4116 
z
M 2253 4666 
L 3047 4666 
L 3047 1625 
L 3713 1625 
L 3713 1100 
L 3047 1100 
L 3047 0 
L 2419 0 
L 2419 1100 
L 313 1100 
L 313 1709 
L 2253 4666 
z
" transform="scale(0.015625)"/>
       </defs>
       <use xlink:href="#DejaVuSans-34"/>
       <use xlink:href="#DejaVuSans-30" x="63.623047"/>
       <use xlink:href="#DejaVuSans-30" x="127.246094"/>
      </g>
     </g>
    </g>
    <g id="xtick_6">
     <g id="line2d_6">
      <g>
       <use xlink:href="#mcd3da87364" x="290.124607" y="307.584" style="stroke: #000000; stroke-width: 0.8"/>
      </g>
     </g>
     <g id="text_6">
      <!-- 500 -->
      <g transform="translate(280.580857 322.182437) scale(0.1 -0.1)">
       <defs>
        <path id="DejaVuSans-35" d="M 691 4666 
L 3169 4666 
L 3169 4134 
L 1269 4134 
L 1269 2991 
Q 1406 3038 1543 3061 
Q 1681 3084 1819 3084 
Q 2600 3084 3056 2656 
Q 3513 2228 3513 1497 
Q 3513 744 3044 326 
Q 2575 -91 1722 -91 
Q 1428 -91 1123 -41 
Q 819 9 494 109 
L 494 744 
Q 775 591 1075 516 
Q 1375 441 1709 441 
Q 2250 441 2565 725 
Q 2881 1009 2881 1497 
Q 2881 1984 2565 2268 
Q 2250 2553 1709 2553 
Q 1456 2553 1204 2497 
Q 953 2441 691 2322 
L 691 4666 
z
" transform="scale(0.015625)"/>
       </defs>
       <use xlink:href="#DejaVuSans-35"/>
       <use xlink:href="#DejaVuSans-30" x="63.623047"/>
       <use xlink:href="#DejaVuSans-30" x="127.246094"/>
      </g>
     </g>
    </g>
    <g id="xtick_7">
     <g id="line2d_7">
      <g>
       <use xlink:href="#mcd3da87364" x="333.469674" y="307.584" style="stroke: #000000; stroke-width: 0.8"/>
      </g>
     </g>
     <g id="text_7">
      <!-- 600 -->
      <g transform="translate(323.925924 322.182437) scale(0.1 -0.1)">
       <defs>
        <path id="DejaVuSans-36" d="M 2113 2584 
Q 1688 2584 1439 2293 
Q 1191 2003 1191 1497 
Q 1191 994 1439 701 
Q 1688 409 2113 409 
Q 2538 409 2786 701 
Q 3034 994 3034 1497 
Q 3034 2003 2786 2293 
Q 2538 2584 2113 2584 
z
M 3366 4563 
L 3366 3988 
Q 3128 4100 2886 4159 
Q 2644 4219 2406 4219 
Q 1781 4219 1451 3797 
Q 1122 3375 1075 2522 
Q 1259 2794 1537 2939 
Q 1816 3084 2150 3084 
Q 2853 3084 3261 2657 
Q 3669 2231 3669 1497 
Q 3669 778 3244 343 
Q 2819 -91 2113 -91 
Q 1303 -91 875 529 
Q 447 1150 447 2328 
Q 447 3434 972 4092 
Q 1497 4750 2381 4750 
Q 2619 4750 2861 4703 
Q 3103 4656 3366 4563 
z
" transform="scale(0.015625)"/>
       </defs>
       <use xlink:href="#DejaVuSans-36"/>
       <use xlink:href="#DejaVuSans-30" x="63.623047"/>
       <use xlink:href="#DejaVuSans-30" x="127.246094"/>
      </g>
     </g>
    </g>
    <g id="xtick_8">
     <g id="line2d_8">
      <g>
       <use xlink:href="#mcd3da87364" x="376.81474" y="307.584" style="stroke: #000000; stroke-width: 0.8"/>
      </g>
     </g>
     <g id="text_8">
      <!-- 700 -->
      <g transform="translate(367.27099 322.182437) scale(0.1 -0.1)">
       <defs>
        <path id="DejaVuSans-37" d="M 525 4666 
L 3525 4666 
L 3525 4397 
L 1831 0 
L 1172 0 
L 2766 4134 
L 525 4134 
L 525 4666 
z
" transform="scale(0.015625)"/>
       </defs>
       <use xlink:href="#DejaVuSans-37"/>
       <use xlink:href="#DejaVuSans-30" x="63.623047"/>
       <use xlink:href="#DejaVuSans-30" x="127.246094"/>
      </g>
     </g>
    </g>
    <g id="text_9">
     <!-- Epoch -->
     <g transform="translate(220.849063 335.860562) scale(0.1 -0.1)">
      <defs>
       <path id="DejaVuSans-45" d="M 628 4666 
L 3578 4666 
L 3578 4134 
L 1259 4134 
L 1259 2753 
L 3481 2753 
L 3481 2222 
L 1259 2222 
L 1259 531 
L 3634 531 
L 3634 0 
L 628 0 
L 628 4666 
z
" transform="scale(0.015625)"/>
       <path id="DejaVuSans-70" d="M 1159 525 
L 1159 -1331 
L 581 -1331 
L 581 3500 
L 1159 3500 
L 1159 2969 
Q 1341 3281 1617 3432 
Q 1894 3584 2278 3584 
Q 2916 3584 3314 3078 
Q 3713 2572 3713 1747 
Q 3713 922 3314 415 
Q 2916 -91 2278 -91 
Q 1894 -91 1617 61 
Q 1341 213 1159 525 
z
M 3116 1747 
Q 3116 2381 2855 2742 
Q 2594 3103 2138 3103 
Q 1681 3103 1420 2742 
Q 1159 2381 1159 1747 
Q 1159 1113 1420 752 
Q 1681 391 2138 391 
Q 2594 391 2855 752 
Q 3116 1113 3116 1747 
z
" transform="scale(0.015625)"/>
       <path id="DejaVuSans-6f" d="M 1959 3097 
Q 1497 3097 1228 2736 
Q 959 2375 959 1747 
Q 959 1119 1226 758 
Q 1494 397 1959 397 
Q 2419 397 2687 759 
Q 2956 1122 2956 1747 
Q 2956 2369 2687 2733 
Q 2419 3097 1959 3097 
z
M 1959 3584 
Q 2709 3584 3137 3096 
Q 3566 2609 3566 1747 
Q 3566 888 3137 398 
Q 2709 -91 1959 -91 
Q 1206 -91 779 398 
Q 353 888 353 1747 
Q 353 2609 779 3096 
Q 1206 3584 1959 3584 
z
" transform="scale(0.015625)"/>
       <path id="DejaVuSans-63" d="M 3122 3366 
L 3122 2828 
Q 2878 2963 2633 3030 
Q 2388 3097 2138 3097 
Q 1578 3097 1268 2742 
Q 959 2388 959 1747 
Q 959 1106 1268 751 
Q 1578 397 2138 397 
Q 2388 397 2633 464 
Q 2878 531 3122 666 
L 3122 134 
Q 2881 22 2623 -34 
Q 2366 -91 2075 -91 
Q 1284 -91 818 406 
Q 353 903 353 1747 
Q 353 2603 823 3093 
Q 1294 3584 2113 3584 
Q 2378 3584 2631 3529 
Q 2884 3475 3122 3366 
z
" transform="scale(0.015625)"/>
       <path id="DejaVuSans-68" d="M 3513 2113 
L 3513 0 
L 2938 0 
L 2938 2094 
Q 2938 2591 2744 2837 
Q 2550 3084 2163 3084 
Q 1697 3084 1428 2787 
Q 1159 2491 1159 1978 
L 1159 0 
L 581 0 
L 581 4863 
L 1159 4863 
L 1159 2956 
Q 1366 3272 1645 3428 
Q 1925 3584 2291 3584 
Q 2894 3584 3203 3211 
Q 3513 2838 3513 2113 
z
" transform="scale(0.015625)"/>
      </defs>
      <use xlink:href="#DejaVuSans-45"/>
      <use xlink:href="#DejaVuSans-70" x="63.183594"/>
      <use xlink:href="#DejaVuSans-6f" x="126.660156"/>
      <use xlink:href="#DejaVuSans-63" x="187.841797"/>
      <use xlink:href="#DejaVuSans-68" x="242.822266"/>
     </g>
    </g>
   </g>
   <g id="matplotlib.axis_2">
    <g id="ytick_1">
     <g id="line2d_9">
      <defs>
       <path id="m6a2e34c19c" d="M 0 0 
L -3.5 0 
" style="stroke: #000000; stroke-width: 0.8"/>
      </defs>
      <g>
       <use xlink:href="#m6a2e34c19c" x="57.6" y="295.930881" style="stroke: #000000; stroke-width: 0.8"/>
      </g>
     </g>
     <g id="text_10">
      <!-- 0.62 -->
      <g transform="translate(28.334375 299.730099) scale(0.1 -0.1)">
       <defs>
        <path id="DejaVuSans-2e" d="M 684 794 
L 1344 794 
L 1344 0 
L 684 0 
L 684 794 
z
" transform="scale(0.015625)"/>
       </defs>
       <use xlink:href="#DejaVuSans-30"/>
       <use xlink:href="#DejaVuSans-2e" x="63.623047"/>
       <use xlink:href="#DejaVuSans-36" x="95.410156"/>
       <use xlink:href="#DejaVuSans-32" x="159.033203"/>
      </g>
     </g>
    </g>
    <g id="ytick_2">
     <g id="line2d_10">
      <g>
       <use xlink:href="#m6a2e34c19c" x="57.6" y="261.388672" style="stroke: #000000; stroke-width: 0.8"/>
      </g>
     </g>
     <g id="text_11">
      <!-- 0.63 -->
      <g transform="translate(28.334375 265.187891) scale(0.1 -0.1)">
       <use xlink:href="#DejaVuSans-30"/>
       <use xlink:href="#DejaVuSans-2e" x="63.623047"/>
       <use xlink:href="#DejaVuSans-36" x="95.410156"/>
       <use xlink:href="#DejaVuSans-33" x="159.033203"/>
      </g>
     </g>
    </g>
    <g id="ytick_3">
     <g id="line2d_11">
      <g>
       <use xlink:href="#m6a2e34c19c" x="57.6" y="226.846463" style="stroke: #000000; stroke-width: 0.8"/>
      </g>
     </g>
     <g id="text_12">
      <!-- 0.64 -->
      <g transform="translate(28.334375 230.645682) scale(0.1 -0.1)">
       <use xlink:href="#DejaVuSans-30"/>
       <use xlink:href="#DejaVuSans-2e" x="63.623047"/>
       <use xlink:href="#DejaVuSans-36" x="95.410156"/>
       <use xlink:href="#DejaVuSans-34" x="159.033203"/>
      </g>
     </g>
    </g>
    <g id="ytick_4">
     <g id="line2d_12">
      <g>
       <use xlink:href="#m6a2e34c19c" x="57.6" y="192.304254" style="stroke: #000000; stroke-width: 0.8"/>
      </g>
     </g>
     <g id="text_13">
      <!-- 0.65 -->
      <g transform="translate(28.334375 196.103473) scale(0.1 -0.1)">
       <use xlink:href="#DejaVuSans-30"/>
       <use xlink:href="#DejaVuSans-2e" x="63.623047"/>
       <use xlink:href="#DejaVuSans-36" x="95.410156"/>
       <use xlink:href="#DejaVuSans-35" x="159.033203"/>
      </g>
     </g>
    </g>
    <g id="ytick_5">
     <g id="line2d_13">
      <g>
       <use xlink:href="#m6a2e34c19c" x="57.6" y="157.762045" style="stroke: #000000; stroke-width: 0.8"/>
      </g>
     </g>
     <g id="text_14">
      <!-- 0.66 -->
      <g transform="translate(28.334375 161.561264) scale(0.1 -0.1)">
       <use xlink:href="#DejaVuSans-30"/>
       <use xlink:href="#DejaVuSans-2e" x="63.623047"/>
       <use xlink:href="#DejaVuSans-36" x="95.410156"/>
       <use xlink:href="#DejaVuSans-36" x="159.033203"/>
      </g>
     </g>
    </g>
    <g id="ytick_6">
     <g id="line2d_14">
      <g>
       <use xlink:href="#m6a2e34c19c" x="57.6" y="123.219836" style="stroke: #000000; stroke-width: 0.8"/>
      </g>
     </g>
     <g id="text_15">
      <!-- 0.67 -->
      <g transform="translate(28.334375 127.019055) scale(0.1 -0.1)">
       <use xlink:href="#DejaVuSans-30"/>
       <use xlink:href="#DejaVuSans-2e" x="63.623047"/>
       <use xlink:href="#DejaVuSans-36" x="95.410156"/>
       <use xlink:href="#DejaVuSans-37" x="159.033203"/>
      </g>
     </g>
    </g>
    <g id="ytick_7">
     <g id="line2d_15">
      <g>
       <use xlink:href="#m6a2e34c19c" x="57.6" y="88.677627" style="stroke: #000000; stroke-width: 0.8"/>
      </g>
     </g>
     <g id="text_16">
      <!-- 0.68 -->
      <g transform="translate(28.334375 92.476846) scale(0.1 -0.1)">
       <defs>
        <path id="DejaVuSans-38" d="M 2034 2216 
Q 1584 2216 1326 1975 
Q 1069 1734 1069 1313 
Q 1069 891 1326 650 
Q 1584 409 2034 409 
Q 2484 409 2743 651 
Q 3003 894 3003 1313 
Q 3003 1734 2745 1975 
Q 2488 2216 2034 2216 
z
M 1403 2484 
Q 997 2584 770 2862 
Q 544 3141 544 3541 
Q 544 4100 942 4425 
Q 1341 4750 2034 4750 
Q 2731 4750 3128 4425 
Q 3525 4100 3525 3541 
Q 3525 3141 3298 2862 
Q 3072 2584 2669 2484 
Q 3125 2378 3379 2068 
Q 3634 1759 3634 1313 
Q 3634 634 3220 271 
Q 2806 -91 2034 -91 
Q 1263 -91 848 271 
Q 434 634 434 1313 
Q 434 1759 690 2068 
Q 947 2378 1403 2484 
z
M 1172 3481 
Q 1172 3119 1398 2916 
Q 1625 2713 2034 2713 
Q 2441 2713 2670 2916 
Q 2900 3119 2900 3481 
Q 2900 3844 2670 4047 
Q 2441 4250 2034 4250 
Q 1625 4250 1398 4047 
Q 1172 3844 1172 3481 
z
" transform="scale(0.015625)"/>
       </defs>
       <use xlink:href="#DejaVuSans-30"/>
       <use xlink:href="#DejaVuSans-2e" x="63.623047"/>
       <use xlink:href="#DejaVuSans-36" x="95.410156"/>
       <use xlink:href="#DejaVuSans-38" x="159.033203"/>
      </g>
     </g>
    </g>
    <g id="ytick_8">
     <g id="line2d_16">
      <g>
       <use xlink:href="#m6a2e34c19c" x="57.6" y="54.135418" style="stroke: #000000; stroke-width: 0.8"/>
      </g>
     </g>
     <g id="text_17">
      <!-- 0.69 -->
      <g transform="translate(28.334375 57.934637) scale(0.1 -0.1)">
       <defs>
        <path id="DejaVuSans-39" d="M 703 97 
L 703 672 
Q 941 559 1184 500 
Q 1428 441 1663 441 
Q 2288 441 2617 861 
Q 2947 1281 2994 2138 
Q 2813 1869 2534 1725 
Q 2256 1581 1919 1581 
Q 1219 1581 811 2004 
Q 403 2428 403 3163 
Q 403 3881 828 4315 
Q 1253 4750 1959 4750 
Q 2769 4750 3195 4129 
Q 3622 3509 3622 2328 
Q 3622 1225 3098 567 
Q 2575 -91 1691 -91 
Q 1453 -91 1209 -44 
Q 966 3 703 97 
z
M 1959 2075 
Q 2384 2075 2632 2365 
Q 2881 2656 2881 3163 
Q 2881 3666 2632 3958 
Q 2384 4250 1959 4250 
Q 1534 4250 1286 3958 
Q 1038 3666 1038 3163 
Q 1038 2656 1286 2365 
Q 1534 2075 1959 2075 
z
" transform="scale(0.015625)"/>
       </defs>
       <use xlink:href="#DejaVuSans-30"/>
       <use xlink:href="#DejaVuSans-2e" x="63.623047"/>
       <use xlink:href="#DejaVuSans-36" x="95.410156"/>
       <use xlink:href="#DejaVuSans-39" x="159.033203"/>
      </g>
     </g>
    </g>
    <g id="text_18">
     <!-- Loss -->
     <g transform="translate(22.254688 185.495187) rotate(-90) scale(0.1 -0.1)">
      <defs>
       <path id="DejaVuSans-4c" d="M 628 4666 
L 1259 4666 
L 1259 531 
L 3531 531 
L 3531 0 
L 628 0 
L 628 4666 
z
" transform="scale(0.015625)"/>
       <path id="DejaVuSans-73" d="M 2834 3397 
L 2834 2853 
Q 2591 2978 2328 3040 
Q 2066 3103 1784 3103 
Q 1356 3103 1142 2972 
Q 928 2841 928 2578 
Q 928 2378 1081 2264 
Q 1234 2150 1697 2047 
L 1894 2003 
Q 2506 1872 2764 1633 
Q 3022 1394 3022 966 
Q 3022 478 2636 193 
Q 2250 -91 1575 -91 
Q 1294 -91 989 -36 
Q 684 19 347 128 
L 347 722 
Q 666 556 975 473 
Q 1284 391 1588 391 
Q 1994 391 2212 530 
Q 2431 669 2431 922 
Q 2431 1156 2273 1281 
Q 2116 1406 1581 1522 
L 1381 1569 
Q 847 1681 609 1914 
Q 372 2147 372 2553 
Q 372 3047 722 3315 
Q 1072 3584 1716 3584 
Q 2034 3584 2315 3537 
Q 2597 3491 2834 3397 
z
" transform="scale(0.015625)"/>
      </defs>
      <use xlink:href="#DejaVuSans-4c"/>
      <use xlink:href="#DejaVuSans-6f" x="53.962891"/>
      <use xlink:href="#DejaVuSans-73" x="115.144531"/>
      <use xlink:href="#DejaVuSans-73" x="167.244141"/>
     </g>
    </g>
   </g>
   <g id="line2d_17">
    <path d="M 73.832727 157.656226 
L 74.266178 214.433753 
L 74.699629 234.290061 
L 75.133079 203.723227 
L 75.56653 251.773282 
L 75.999981 193.552719 
L 76.433431 254.336988 
L 76.866882 232.824691 
L 77.300333 229.513379 
L 77.733783 249.508816 
L 78.167234 262.199602 
L 78.600685 251.676526 
L 79.034135 245.027804 
L 79.901037 239.04623 
L 80.334487 239.960254 
L 80.767938 246.167615 
L 81.634839 261.063788 
L 82.06829 263.418262 
L 82.501741 258.504643 
L 82.935191 251.033355 
L 83.368642 246.42485 
L 83.802092 245.249868 
L 84.235543 247.147203 
L 85.535895 263.915039 
L 85.969346 264.065769 
L 86.402796 261.024678 
L 87.269698 247.440461 
L 87.703148 243.920975 
L 88.136599 244.973813 
L 88.57005 251.15121 
L 89.436951 267.978557 
L 89.870402 269.910745 
L 90.303852 268.833387 
L 91.170754 255.136668 
L 91.604204 247.33233 
L 92.037655 243.881355 
L 92.471106 244.303269 
L 92.904556 255.739334 
L 93.338007 258.051901 
L 93.771458 276.297333 
L 94.638359 267.452093 
L 96.372162 241.590499 
L 96.805612 246.094504 
L 98.105964 272.90778 
L 98.539415 277.095836 
L 98.972866 277.616123 
L 99.406316 269.502009 
L 99.839767 263.566383 
L 100.273218 253.99272 
L 101.140119 240.085062 
L 101.57357 253.649193 
L 102.440471 271.278603 
L 102.873922 289.253741 
L 103.740823 269.54231 
L 104.607724 249.146511 
L 105.041175 241.478588 
L 105.474626 236.643514 
L 105.908076 242.163158 
L 106.341527 249.258243 
L 107.208428 269.280566 
L 107.641879 273.526512 
L 108.07533 275.285144 
L 108.50878 264.521174 
L 108.942231 258.081349 
L 109.375682 248.32417 
L 109.809132 241.775507 
L 110.242583 241.064437 
L 110.676033 250.224568 
L 111.109484 240.669329 
L 111.542935 243.564769 
L 112.409836 267.538823 
L 112.843287 271.16186 
L 113.276737 267.49876 
L 113.710188 256.847162 
L 114.577089 227.847766 
L 115.01054 218.004298 
L 115.443991 214.66106 
L 115.877441 218.909152 
L 116.310892 229.817867 
L 117.177793 259.186239 
L 117.611244 268.816824 
L 118.044695 267.536034 
L 118.478145 260.994368 
L 119.778497 221.534228 
L 120.211948 216.226699 
L 120.645399 218.275209 
L 121.078849 229.636854 
L 121.945751 259.495765 
L 122.379201 270.58063 
L 122.812652 274.054264 
L 123.246103 264.82375 
L 123.679553 258.333434 
L 124.113004 248.516117 
L 124.979905 222.532751 
L 125.413356 216.60209 
L 125.846807 216.83546 
L 126.280257 223.902879 
L 127.147159 247.009654 
L 127.580609 258.750462 
L 128.01406 263.671411 
L 128.447511 263.778693 
L 128.880961 255.234068 
L 130.181313 214.440791 
L 130.614764 206.413079 
L 131.048215 205.992036 
L 131.481665 213.554145 
L 132.348567 241.917201 
L 132.782017 256.608035 
L 133.215468 263.014848 
L 133.648919 262.907487 
L 134.082369 256.265978 
L 134.949271 229.366554 
L 135.816172 204.037598 
L 136.249623 198.328789 
L 136.683073 199.514723 
L 137.116524 206.79321 
L 138.850326 261.349465 
L 139.283777 264.098739 
L 139.717228 260.232168 
L 140.150678 249.572395 
L 141.45103 202.127953 
L 141.884481 193.187605 
L 142.317932 191.958079 
L 142.751382 199.41223 
L 143.618284 230.959072 
L 144.485185 261.288132 
L 144.918636 264.672275 
L 145.352086 262.410079 
L 145.785537 252.22776 
L 147.51934 193.361257 
L 147.95279 186.197709 
L 148.386241 185.652577 
L 148.819692 192.32826 
L 149.253142 204.723106 
L 150.553494 252.896953 
L 150.986945 262.434902 
L 151.420396 264.790842 
L 151.853846 259.077704 
L 152.287297 247.740381 
L 153.587649 196.054845 
L 154.0211 184.326817 
L 154.45455 179.417362 
L 154.888001 183.076163 
L 155.321452 194.456679 
L 157.055254 260.702528 
L 157.488705 264.673373 
L 157.922156 262.365572 
L 158.355606 252.384679 
L 159.222508 220.806062 
L 160.089409 189.354369 
L 160.52286 178.606232 
L 160.95631 173.654391 
L 161.389761 175.180863 
L 161.823212 183.497542 
L 162.690113 214.839074 
L 163.557014 249.222604 
L 163.990465 260.932627 
L 164.423916 264.485522 
L 164.857366 263.341312 
L 165.290817 253.225234 
L 166.157718 220.015137 
L 167.024619 184.766139 
L 167.45807 173.189266 
L 167.891521 168.9122 
L 168.324971 172.780463 
L 168.758422 184.254439 
L 170.492225 256.172673 
L 170.925675 265.660682 
L 171.359126 264.892036 
L 171.792577 260.005585 
L 172.226027 248.794506 
L 174.393281 171.302121 
L 174.826731 165.138207 
L 175.260182 164.970846 
L 175.693633 171.629342 
L 176.127083 183.407025 
L 176.993985 219.597064 
L 177.860886 253.71425 
L 178.294337 264.433356 
L 178.727787 268.009735 
L 179.161238 265.036455 
L 179.594689 254.537111 
L 180.46159 221.951242 
L 181.328491 185.078838 
L 181.761942 171.415551 
L 182.195393 137.64846 
L 182.628843 146.219313 
L 183.062294 160.918866 
L 185.229547 254.202934 
L 185.662998 259.301437 
L 186.096449 257.063829 
L 186.529899 248.139251 
L 186.96335 235.662108 
L 188.697153 172.834993 
L 189.130603 162.526947 
L 189.564054 156.724254 
L 189.997505 156.116198 
L 190.430955 161.246358 
L 190.864406 172.103087 
L 191.731307 205.343155 
L 192.598209 242.428995 
L 193.031659 256.33859 
L 193.46511 265.154047 
L 193.898561 268.030234 
L 194.332011 262.244862 
L 194.765462 252.961282 
L 195.632363 218.547484 
L 196.499264 179.259507 
L 196.932715 163.691212 
L 197.366166 153.643859 
L 197.799616 150.510028 
L 198.233067 154.961313 
L 198.666518 166.863491 
L 199.533419 205.582998 
L 200.40032 247.326129 
L 200.833771 260.845471 
L 201.267222 269.723509 
L 201.700672 271.14064 
L 202.134123 264.281307 
L 202.567574 253.662192 
L 203.434475 221.437507 
L 204.734827 170.187743 
L 205.168278 158.195441 
L 205.601728 149.931969 
L 206.035179 147.995268 
L 206.46863 153.034965 
L 206.90208 164.371581 
L 207.768982 197.669158 
L 209.069334 252.35559 
L 209.502784 264.951197 
L 209.936235 270.963315 
L 210.369686 270.750772 
L 210.803136 263.607763 
L 211.236587 251.607469 
L 212.103488 214.834885 
L 212.97039 175.12475 
L 213.40384 159.492315 
L 213.837291 148.66143 
L 214.270742 144.626015 
L 214.704192 147.873549 
L 215.137643 158.930987 
L 215.571094 175.212165 
L 217.304896 256.227755 
L 217.738347 267.952646 
L 218.171798 272.65195 
L 218.605248 269.868834 
L 219.038699 263.026613 
L 219.47215 250.958439 
L 221.639403 162.9384 
L 222.072854 150.966169 
L 222.506304 143.387879 
L 222.939755 141.19013 
L 223.373205 144.984048 
L 223.806656 154.020166 
L 224.240107 167.939433 
L 225.107008 206.343426 
L 225.973909 246.145874 
L 226.40736 261.344621 
L 226.840811 269.305239 
L 227.274261 274.321503 
L 227.707712 272.074305 
L 228.141163 264.130943 
L 229.008064 232.529031 
L 230.308416 173.118796 
L 230.741867 158.465939 
L 231.175317 148.017297 
L 231.608768 143.906524 
L 232.042219 148.350699 
L 232.475669 155.290939 
L 232.90912 170.922132 
L 234.209472 233.739653 
L 235.076373 267.14649 
L 235.509824 275.160917 
L 235.943275 278.06195 
L 236.376725 274.312293 
L 236.810176 265.614424 
L 237.677077 236.054928 
L 239.41088 166.307846 
L 239.844331 153.969386 
L 240.277781 145.857448 
L 240.711232 142.162397 
L 241.144683 144.609009 
L 241.578133 152.315179 
L 242.011584 164.258526 
L 242.878485 199.487536 
L 243.745387 240.188194 
L 244.612288 271.776207 
L 245.045739 279.488397 
L 245.479189 281.06238 
L 245.91264 276.118529 
L 246.346091 266.353842 
L 246.779541 251.870519 
L 248.946795 158.092661 
L 249.380245 146.83023 
L 249.813696 143.132474 
L 250.247146 141.783128 
L 250.680597 147.864194 
L 251.114048 161.865571 
L 251.547498 179.876175 
L 252.84785 244.306161 
L 253.714752 274.302989 
L 254.148202 277.643006 
L 254.581653 277.034181 
L 255.015104 270.753805 
L 255.448554 256.856253 
L 258.049258 154.224073 
L 258.91616 135.343437 
L 259.34961 134.419149 
L 259.783061 138.240682 
L 260.216512 146.752481 
L 260.649962 158.857281 
L 261.950314 216.870797 
L 262.817216 256.092678 
L 263.250666 269.798598 
L 263.684117 279.616209 
L 264.117568 282.735444 
L 264.551018 280.589236 
L 264.984469 270.875519 
L 265.85137 239.494654 
L 267.585173 158.653415 
L 268.018624 145.520832 
L 268.452074 135.855201 
L 268.885525 131.989769 
L 269.318976 133.706047 
L 269.752426 141.649296 
L 270.619328 172.36626 
L 271.486229 220.14855 
L 272.35313 256.279397 
L 272.786581 268.901385 
L 273.220032 275.724486 
L 273.653482 276.477648 
L 274.086933 273.392267 
L 274.520384 263.666975 
L 274.953834 249.251826 
L 277.554538 141.083879 
L 277.987989 130.220836 
L 278.421439 123.033841 
L 278.85489 121.431878 
L 279.288341 125.623199 
L 279.721791 134.162369 
L 280.588693 165.686888 
L 282.322495 247.253883 
L 282.755946 262.325062 
L 283.189397 271.609151 
L 283.622847 276.221149 
L 284.056298 274.430887 
L 284.489749 266.566451 
L 284.923199 254.543455 
L 285.790101 217.649002 
L 287.090453 156.675239 
L 287.957354 127.769915 
L 288.390805 121.127011 
L 288.824255 121.437389 
L 289.257706 131.319407 
L 290.558058 188.491626 
L 290.991509 195.134216 
L 291.85841 214.156682 
L 292.291861 219.023451 
L 293.592213 262.336067 
L 294.025663 270.664005 
L 294.459114 276.345654 
L 294.892565 280.284178 
L 295.326015 281.657307 
L 296.626367 258.665901 
L 297.059818 248.288089 
L 298.36017 209.172462 
L 299.227071 190.557748 
L 299.660522 185.649395 
L 300.093973 183.766894 
L 300.527423 186.344286 
L 300.960874 192.545836 
L 301.827775 214.179549 
L 303.128127 255.327631 
L 303.561578 266.846334 
L 303.995029 274.334367 
L 304.428479 277.930286 
L 304.86193 274.947703 
L 305.295381 268.970515 
L 305.728831 259.475143 
L 307.029183 214.960316 
L 307.896084 186.262148 
L 308.329535 177.232084 
L 308.762986 172.9792 
L 309.196436 174.035202 
L 309.629887 180.646476 
L 310.063338 192.513814 
L 312.230591 268.284128 
L 312.664042 274.422551 
L 313.097492 275.495566 
L 313.530943 271.303783 
L 313.964394 263.468164 
L 315.264746 218.685679 
L 316.131647 188.174172 
L 316.565098 176.243245 
L 316.998548 167.54745 
L 317.431999 162.892579 
L 317.86545 163.120131 
L 318.2989 168.081772 
L 318.732351 177.578295 
L 319.599252 207.310469 
L 320.899604 256.969313 
L 321.333055 268.257511 
L 321.766506 274.155076 
L 322.199956 274.644526 
L 322.633407 269.511037 
L 323.066858 259.152147 
L 323.933759 227.177566 
L 324.80066 190.40082 
L 325.234111 173.951839 
L 325.667562 161.998443 
L 326.101012 155.511247 
L 326.534463 155.389848 
L 326.967914 161.806544 
L 327.401364 174.673353 
L 328.268266 211.538814 
L 329.135167 249.787117 
L 329.568618 264.179874 
L 330.002068 272.791644 
L 330.435519 275.219879 
L 330.86897 270.918011 
L 331.30242 262.853971 
L 332.169322 233.367397 
L 333.903124 167.205423 
L 334.336575 156.687634 
L 334.770025 150.064633 
L 335.203476 148.516966 
L 335.636927 152.214299 
L 336.070377 161.042276 
L 336.937279 191.623827 
L 338.237631 246.97463 
L 338.671081 261.349975 
L 339.104532 271.539955 
L 339.537983 274.721687 
L 339.971433 273.390086 
L 340.404884 264.522234 
L 340.838335 251.219401 
L 342.138687 194.107076 
L 343.005588 159.244526 
L 343.439039 148.130734 
L 343.872489 143.128632 
L 344.30594 144.627773 
L 344.739391 153.404587 
L 345.172841 168.601183 
L 347.340095 263.973229 
L 347.773545 272.466373 
L 348.206996 274.627604 
L 348.640447 270.12911 
L 349.073897 261.426548 
L 349.940799 230.324976 
L 351.674601 160.541378 
L 352.108052 148.520258 
L 352.541503 140.444382 
L 352.974953 137.55182 
L 353.408404 139.939253 
L 353.841855 147.444673 
L 354.275305 160.199319 
L 355.142207 195.854899 
L 356.442559 253.487755 
L 356.876009 265.916963 
L 357.30946 272.962904 
L 357.742911 271.92229 
L 358.176361 269.974511 
L 358.609812 259.426976 
L 359.476713 225.140776 
L 360.777065 164.533435 
L 361.210516 148.754401 
L 361.643967 138.139811 
L 362.077417 133.734041 
L 362.510868 136.315486 
L 362.944318 145.947792 
L 363.377769 160.839299 
L 365.545022 261.397465 
L 365.978473 271.91306 
L 366.411924 275.03826 
L 366.845374 271.112607 
L 367.278825 264.20269 
L 368.145726 234.156988 
L 370.31298 146.859629 
L 370.74643 136.539934 
L 371.179881 130.585053 
L 371.613332 129.763481 
L 372.046782 134.057554 
L 372.480233 143.932546 
L 373.347134 175.94843 
L 375.080937 253.762804 
L 375.514388 266.627449 
L 375.947838 273.23981 
L 376.381289 275.69568 
L 376.81474 269.626474 
L 377.24819 259.99086 
L 378.115092 224.989148 
L 379.848894 144.890164 
L 380.282345 132.961688 
L 380.715796 126.958969 
L 381.149246 127.56938 
L 381.582697 135.24304 
L 382.016148 148.793601 
L 382.883049 191.654038 
L 383.74995 232.844353 
L 384.616852 265.804911 
L 385.050302 275.441145 
L 385.483753 276.46787 
L 385.917204 270.305007 
L 386.350654 260.103364 
L 387.651006 209.206737 
L 388.951358 153.542828 
L 389.818259 129.686794 
L 390.25171 124.062291 
L 390.685161 123.323719 
L 391.118611 127.985896 
L 391.552062 137.663408 
L 391.985513 151.556571 
L 392.852414 189.187855 
L 394.152766 249.124501 
L 394.586217 262.935015 
L 395.019667 271.395274 
L 395.453118 274.505749 
L 395.886569 270.847082 
L 396.320019 262.4959 
L 396.75347 248.600699 
L 397.620371 209.589314 
L 398.487273 166.645231 
L 398.487273 166.645231 
" clip-path="url(#pea61baf50d)" style="fill: none; stroke: #1f77b4; stroke-width: 1.5; stroke-linecap: square"/>
   </g>
   <g id="line2d_18">
    <path d="M 73.832727 161.054509 
L 74.266178 251.767148 
L 74.699629 235.99101 
L 75.999981 279.977251 
L 76.433431 271.709834 
L 76.866882 242.197492 
L 77.300333 261.094269 
L 77.733783 286.700305 
L 78.167234 295.488 
L 78.600685 286.743336 
L 79.034135 284.813139 
L 79.467586 282.039215 
L 79.901037 280.931128 
L 80.334487 283.679934 
L 81.201389 294.426032 
L 81.634839 294.89072 
L 82.06829 288.967951 
L 82.935191 268.538959 
L 83.368642 264.559769 
L 83.802092 264.065021 
L 84.235543 268.08683 
L 85.535895 288.257021 
L 85.969346 288.994511 
L 86.402796 285.818077 
L 87.269698 276.040886 
L 87.703148 272.971102 
L 88.57005 269.354274 
L 89.0035 271.994371 
L 89.436951 271.026493 
L 90.737303 235.467438 
L 91.170754 213.145104 
L 91.604204 213.808885 
L 92.037655 224.72134 
L 92.471106 227.488264 
L 92.904556 211.855424 
L 93.338007 208.746109 
L 93.771458 247.130765 
L 94.204908 259.53117 
L 94.638359 262.513452 
L 95.07181 257.918041 
L 95.938711 231.527367 
L 96.372162 222.962237 
L 96.805612 231.450365 
L 97.239063 245.741642 
L 97.672514 251.319961 
L 98.105964 245.373721 
L 98.539415 230.237481 
L 98.972866 224.425892 
L 99.406316 208.476396 
L 99.839767 176.209484 
L 100.273218 166.899452 
L 100.706668 169.154333 
L 101.140119 170.582988 
L 101.57357 169.214041 
L 102.00702 143.336439 
L 102.440471 165.627067 
L 102.873922 218.875779 
L 103.307372 231.183535 
L 103.740823 234.406293 
L 104.174274 234.402176 
L 104.607724 226.106758 
L 105.041175 207.471047 
L 105.474626 213.878475 
L 105.908076 227.218139 
L 106.774978 241.70048 
L 107.208428 242.095166 
L 107.641879 232.631748 
L 108.07533 208.936349 
L 108.50878 161.888148 
L 108.942231 179.876137 
L 109.375682 165.912633 
L 110.242583 131.639552 
L 110.676033 155.198242 
L 111.109484 169.659376 
L 112.409836 227.281141 
L 112.843287 236.243634 
L 113.276737 242.639121 
L 115.01054 204.511618 
L 115.443991 203.030669 
L 115.877441 208.710079 
L 116.310892 219.942071 
L 116.744343 227.625179 
L 117.177793 227.599649 
L 117.611244 224.459039 
L 118.044695 214.407195 
L 118.911596 177.16192 
L 120.211948 109.931174 
L 120.645399 113.523295 
L 121.078849 124.762288 
L 121.945751 156.052058 
L 122.379201 175.824063 
L 123.246103 182.032809 
L 123.679553 192.884116 
L 124.113004 187.267296 
L 124.546455 185.951262 
L 124.979905 182.558029 
L 125.413356 183.422962 
L 126.280257 194.922815 
L 126.713708 192.611109 
L 127.147159 199.289691 
L 127.580609 203.515328 
L 128.01406 201.98373 
L 128.447511 193.944025 
L 129.314412 163.938788 
L 130.181313 135.796835 
L 130.614764 131.349662 
L 131.048215 135.528357 
L 131.481665 147.963145 
L 132.782017 199.614582 
L 133.215468 213.534849 
L 133.648919 218.647656 
L 134.082369 212.188344 
L 134.51582 190.849328 
L 135.382721 172.949871 
L 135.816172 168.526994 
L 136.249623 170.662048 
L 136.683073 177.749935 
L 137.116524 193.382158 
L 137.983425 237.831646 
L 138.416876 251.992801 
L 138.850326 256.184467 
L 139.283777 251.264989 
L 139.717228 238.168066 
L 141.01758 176.051774 
L 141.45103 161.879501 
L 141.884481 156.040116 
L 142.317932 160.192046 
L 142.751382 173.423001 
L 144.485185 246.33748 
L 144.918636 251.593791 
L 145.352086 250.807095 
L 145.785537 247.634778 
L 147.51934 205.576469 
L 147.95279 202.284532 
L 148.386241 205.035397 
L 148.819692 213.423052 
L 150.120044 252.278573 
L 150.553494 259.98227 
L 150.986945 260.893117 
L 151.420396 254.2553 
L 151.853846 240.471537 
L 153.587649 161.255043 
L 154.0211 151.390762 
L 154.45455 150.492886 
L 154.888001 159.199462 
L 155.321452 176.078334 
L 156.621804 239.397421 
L 157.055254 252.146393 
L 157.488705 257.27423 
L 157.922156 255.121675 
L 158.355606 246.8802 
L 159.222508 220.281992 
L 160.089409 193.175858 
L 160.52286 184.16704 
L 160.95631 182.342464 
L 161.389761 186.569955 
L 161.823212 196.200553 
L 163.557014 248.375562 
L 163.990465 251.955536 
L 164.423916 248.276736 
L 164.857366 237.439224 
L 165.724268 199.339104 
L 166.591169 155.874377 
L 167.024619 139.235364 
L 167.45807 129.513145 
L 167.891521 128.196288 
L 169.191873 148.946465 
L 170.058774 188.990781 
L 170.492225 204.037871 
L 170.925675 212.347701 
L 171.359126 213.549261 
L 171.792577 208.012325 
L 172.226027 197.25058 
L 173.092929 166.714771 
L 173.95983 137.381963 
L 174.393281 127.876338 
L 174.826731 123.594494 
L 175.260182 125.16521 
L 175.693633 132.156124 
L 176.560534 156.880549 
L 177.427435 182.121135 
L 177.860886 189.129755 
L 178.294337 190.875476 
L 178.727787 185.429337 
L 179.161238 173.437207 
L 180.028139 132.107123 
L 181.328491 66.639393 
L 181.761942 53.568 
L 182.195393 164.264091 
L 182.628843 174.070106 
L 183.062294 190.047602 
L 184.362646 249.952043 
L 184.796097 263.592097 
L 185.229547 270.520627 
L 185.662998 270.454126 
L 186.096449 263.923988 
L 186.529899 252.041597 
L 187.396801 218.442386 
L 188.263702 183.82362 
L 188.697153 170.405512 
L 189.130603 161.324633 
L 189.564054 157.691335 
L 189.997505 159.813624 
L 190.430955 167.769122 
L 190.864406 180.914428 
L 193.031659 262.92111 
L 193.46511 268.128831 
L 193.898561 266.712118 
L 194.332011 258.883036 
L 194.765462 245.534107 
L 195.632363 207.744054 
L 196.499264 169.919 
L 196.932715 156.803547 
L 197.366166 150.063611 
L 197.799616 150.7871 
L 198.233067 159.210168 
L 198.666518 174.331995 
L 200.40032 253.905909 
L 200.833771 265.082106 
L 201.267222 269.430041 
L 201.700672 267.088481 
L 202.134123 258.704943 
L 203.001024 229.074834 
L 204.301376 176.648642 
L 204.734827 163.318037 
L 205.168278 154.244159 
L 205.601728 150.260645 
L 206.035179 151.751066 
L 206.46863 158.871277 
L 206.90208 170.972321 
L 207.768982 206.369548 
L 208.635883 243.856535 
L 209.069334 258.087075 
L 209.502784 267.025685 
L 209.936235 269.777373 
L 210.369686 266.047101 
L 210.803136 256.213497 
L 211.670038 222.494666 
L 212.97039 163.470394 
L 213.40384 149.998962 
L 213.837291 142.584332 
L 214.270742 142.24194 
L 214.704192 149.596452 
L 215.137643 163.692341 
L 216.004544 205.273814 
L 216.871446 246.6389 
L 217.304896 260.995443 
L 217.738347 269.070973 
L 218.171798 270.424478 
L 218.605248 265.343789 
L 219.038699 254.722047 
L 219.9056 221.913857 
L 221.205952 166.423852 
L 221.639403 151.587591 
L 222.072854 141.155471 
L 222.506304 136.310112 
L 222.939755 138.288692 
L 223.373205 147.593165 
L 224.240107 176.679526 
L 225.973909 252.109745 
L 226.40736 264.382912 
L 226.840811 270.674631 
L 227.274261 270.545128 
L 227.707712 264.150876 
L 228.141163 252.019978 
L 229.008064 215.082506 
L 230.308416 154.258365 
L 230.741867 139.182656 
L 231.175317 128.733448 
L 231.608768 123.420725 
L 232.042219 123.272897 
L 232.475669 131.427282 
L 232.90912 155.772256 
L 233.342571 190.782003 
L 234.642923 251.555084 
L 235.076373 264.072845 
L 235.509824 270.597012 
L 235.943275 271.019699 
L 236.376725 265.100018 
L 236.810176 254.100679 
L 237.677077 222.242453 
L 238.977429 168.79856 
L 239.41088 154.646669 
L 239.844331 144.230403 
L 240.277781 138.273663 
L 240.711232 137.346551 
L 241.144683 141.67925 
L 241.578133 150.957986 
L 242.445035 182.219138 
L 243.745387 239.626162 
L 244.612288 255.411153 
L 245.045739 258.750239 
L 245.479189 255.954285 
L 245.91264 249.747803 
L 246.346091 238.635637 
L 246.779541 232.469097 
L 248.946795 132.20039 
L 249.380245 128.713477 
L 249.813696 134.06079 
L 250.247146 134.741867 
L 250.680597 139.418604 
L 251.547498 173.380794 
L 252.84785 244.07004 
L 253.281301 259.741176 
L 253.714752 270.001996 
L 254.148202 271.537506 
L 254.581653 265.088077 
L 255.882005 222.311014 
L 256.315456 204.034577 
L 256.748906 191.609671 
L 258.049258 145.325107 
L 258.482709 136.662798 
L 258.91616 130.47917 
L 259.34961 130.714499 
L 259.783061 135.733627 
L 260.216512 147.354542 
L 261.083413 181.998426 
L 262.383765 241.838424 
L 262.817216 257.109726 
L 263.250666 267.592082 
L 263.684117 272.436823 
L 264.117568 270.104734 
L 264.551018 262.030234 
L 265.41792 234.448089 
L 266.284821 200.074535 
L 267.585173 143.424765 
L 268.452074 134.656217 
L 268.885525 127.329295 
L 269.318976 124.708552 
L 269.752426 137.550379 
L 272.35313 246.729285 
L 272.786581 258.981656 
L 273.220032 265.110107 
L 273.653482 264.860365 
L 274.086933 258.876242 
L 274.520384 248.021023 
L 275.387285 216.504366 
L 276.687637 151.853392 
L 277.554538 123.635259 
L 277.987989 115.111101 
L 278.421439 111.266561 
L 278.85489 112.580124 
L 279.721791 125.888699 
L 280.588693 157.025906 
L 281.022143 178.981349 
L 281.455594 207.560196 
L 282.322495 243.93786 
L 282.755946 256.064435 
L 283.189397 262.668074 
L 283.622847 263.309826 
L 284.056298 257.959836 
L 284.489749 247.009292 
L 285.35665 212.968452 
L 287.090453 129.599412 
L 287.523903 114.399553 
L 287.957354 106.511793 
L 288.390805 104.915958 
L 288.824255 106.566971 
L 289.691157 141.595247 
L 290.558058 185.623695 
L 290.991509 192.636227 
L 291.85841 218.540388 
L 292.291861 225.8879 
L 292.725311 240.191118 
L 293.592213 251.775178 
L 294.025663 257.73933 
L 294.459114 261.780081 
L 294.892565 261.814876 
L 295.326015 258.274638 
L 295.759466 251.72103 
L 296.192917 241.651067 
L 297.493269 199.340545 
L 298.36017 172.701777 
L 298.793621 162.96597 
L 299.227071 156.164884 
L 299.660522 152.808093 
L 300.093973 153.090159 
L 300.527423 157.822691 
L 300.960874 166.343556 
L 301.827775 192.133861 
L 303.561578 247.177708 
L 303.995029 254.300596 
L 304.428479 256.954075 
L 304.86193 254.934935 
L 305.295381 248.397592 
L 306.162282 224.367008 
L 307.462634 181.431412 
L 307.896084 171.162973 
L 308.329535 164.842841 
L 308.762986 163.606486 
L 309.196436 167.69459 
L 309.629887 176.757557 
L 310.496788 205.779063 
L 311.36369 236.404227 
L 311.79714 247.707045 
L 312.230591 254.443482 
L 312.664042 255.915372 
L 313.097492 249.24729 
L 313.530943 239.93067 
L 314.397844 209.996053 
L 314.831295 191.62676 
L 315.264746 179.90599 
L 316.565098 127.839896 
L 316.998548 120.117464 
L 317.431999 117.342922 
L 317.86545 119.81275 
L 318.2989 127.529418 
L 318.732351 140.019384 
L 319.599252 174.82489 
L 320.466154 212.18752 
L 320.899604 227.370702 
L 321.333055 238.246303 
L 321.766506 243.841505 
L 322.199956 243.716531 
L 322.633407 237.994503 
L 323.066858 227.337142 
L 323.933759 196.078874 
L 324.80066 162.36066 
L 325.234111 149.078027 
L 325.667562 140.298567 
L 326.101012 137.2049 
L 326.534463 140.284155 
L 326.967914 149.513273 
L 327.834815 181.480825 
L 328.701716 217.718073 
L 329.135167 231.652753 
L 329.568618 240.435712 
L 330.002068 243.241548 
L 330.435519 239.981112 
L 330.86897 231.411658 
L 331.735871 200.620549 
L 333.469674 126.534363 
L 333.903124 112.936516 
L 334.336575 103.695662 
L 334.770025 99.441612 
L 335.203476 100.668085 
L 335.636927 107.479465 
L 336.070377 119.544684 
L 336.937279 155.480308 
L 337.370729 163.460923 
L 338.671081 228.981361 
L 339.104532 237.881676 
L 339.537983 240.852223 
L 339.971433 236.952711 
L 340.404884 216.572926 
L 341.271785 186.224887 
L 342.572137 132.475662 
L 343.005588 119.610363 
L 343.439039 111.96205 
L 343.872489 110.465659 
L 344.30594 127.259087 
L 344.739391 138.651466 
L 345.172841 143.346939 
L 346.473193 200.887585 
L 346.906644 215.203568 
L 347.340095 224.022352 
L 347.773545 226.585241 
L 348.206996 222.882764 
L 348.640447 213.437258 
L 349.507348 181.514384 
L 351.241151 103.003468 
L 351.674601 88.137147 
L 352.108052 77.406285 
L 352.541503 71.469516 
L 352.974953 71.0773 
L 353.408404 76.378494 
L 353.841855 87.325744 
L 354.708756 122.428346 
L 356.442559 203.829307 
L 356.876009 216.258536 
L 357.30946 222.973766 
L 357.742911 223.494868 
L 358.176361 217.935079 
L 358.609812 214.140158 
L 359.043263 201.956965 
L 361.210516 115.820178 
L 361.643967 108.358605 
L 362.077417 107.207075 
L 362.510868 112.611625 
L 362.944318 124.237481 
L 363.81122 160.631616 
L 364.678121 200.109535 
L 365.111572 214.619259 
L 365.545022 223.963674 
L 365.978473 227.637532 
L 366.411924 225.120556 
L 366.845374 216.627487 
L 367.712276 184.510049 
L 369.879529 85.308252 
L 370.31298 71.862144 
L 370.74643 62.958122 
L 371.179881 59.174114 
L 371.613332 60.845098 
L 372.046782 68.249022 
L 372.480233 80.869315 
L 373.347134 118.521423 
L 374.647486 183.792325 
L 375.080937 200.793082 
L 375.514388 213.072837 
L 375.947838 219.683888 
L 376.381289 220.137664 
L 376.81474 214.531345 
L 377.24819 203.239645 
L 378.115092 168.607702 
L 379.415444 110.427981 
L 379.848894 96.241501 
L 380.282345 87.145798 
L 380.715796 84.152193 
L 381.149246 88.382771 
L 381.582697 99.601999 
L 382.449598 135.6033 
L 382.883049 157.451476 
L 383.3165 161.937355 
L 383.74995 179.639572 
L 384.183401 192.226922 
L 384.616852 218.177614 
L 385.050302 219.941454 
L 385.483753 214.8515 
L 385.917204 204.198669 
L 386.784105 171.71434 
L 388.951358 76.764739 
L 389.384809 65.022145 
L 389.818259 57.852727 
L 390.25171 55.794469 
L 390.685161 59.363119 
L 391.118611 68.300082 
L 391.552062 82.315881 
L 392.418963 122.547967 
L 393.719315 191.900179 
L 394.586217 224.768077 
L 395.019667 233.243852 
L 395.453118 235.634413 
L 395.886569 231.8852 
L 396.320019 222.497342 
L 397.186921 190.610911 
L 398.487273 131.339368 
L 398.487273 131.339368 
" clip-path="url(#pea61baf50d)" style="fill: none; stroke: #ff7f0e; stroke-width: 1.5; stroke-linecap: square"/>
   </g>
   <g id="patch_3">
    <path d="M 57.6 307.584 
L 57.6 41.472 
" style="fill: none; stroke: #000000; stroke-width: 0.8; stroke-linejoin: miter; stroke-linecap: square"/>
   </g>
   <g id="patch_4">
    <path d="M 414.72 307.584 
L 414.72 41.472 
" style="fill: none; stroke: #000000; stroke-width: 0.8; stroke-linejoin: miter; stroke-linecap: square"/>
   </g>
   <g id="patch_5">
    <path d="M 57.6 307.584 
L 414.72 307.584 
" style="fill: none; stroke: #000000; stroke-width: 0.8; stroke-linejoin: miter; stroke-linecap: square"/>
   </g>
   <g id="patch_6">
    <path d="M 57.6 41.472 
L 414.72 41.472 
" style="fill: none; stroke: #000000; stroke-width: 0.8; stroke-linejoin: miter; stroke-linecap: square"/>
   </g>
   <g id="text_19">
    <!-- Training and Validation Loss -->
    <g transform="translate(152.690625 35.472) scale(0.12 -0.12)">
     <defs>
      <path id="DejaVuSans-54" d="M -19 4666 
L 3928 4666 
L 3928 4134 
L 2272 4134 
L 2272 0 
L 1638 0 
L 1638 4134 
L -19 4134 
L -19 4666 
z
" transform="scale(0.015625)"/>
      <path id="DejaVuSans-72" d="M 2631 2963 
Q 2534 3019 2420 3045 
Q 2306 3072 2169 3072 
Q 1681 3072 1420 2755 
Q 1159 2438 1159 1844 
L 1159 0 
L 581 0 
L 581 3500 
L 1159 3500 
L 1159 2956 
Q 1341 3275 1631 3429 
Q 1922 3584 2338 3584 
Q 2397 3584 2469 3576 
Q 2541 3569 2628 3553 
L 2631 2963 
z
" transform="scale(0.015625)"/>
      <path id="DejaVuSans-61" d="M 2194 1759 
Q 1497 1759 1228 1600 
Q 959 1441 959 1056 
Q 959 750 1161 570 
Q 1363 391 1709 391 
Q 2188 391 2477 730 
Q 2766 1069 2766 1631 
L 2766 1759 
L 2194 1759 
z
M 3341 1997 
L 3341 0 
L 2766 0 
L 2766 531 
Q 2569 213 2275 61 
Q 1981 -91 1556 -91 
Q 1019 -91 701 211 
Q 384 513 384 1019 
Q 384 1609 779 1909 
Q 1175 2209 1959 2209 
L 2766 2209 
L 2766 2266 
Q 2766 2663 2505 2880 
Q 2244 3097 1772 3097 
Q 1472 3097 1187 3025 
Q 903 2953 641 2809 
L 641 3341 
Q 956 3463 1253 3523 
Q 1550 3584 1831 3584 
Q 2591 3584 2966 3190 
Q 3341 2797 3341 1997 
z
" transform="scale(0.015625)"/>
      <path id="DejaVuSans-69" d="M 603 3500 
L 1178 3500 
L 1178 0 
L 603 0 
L 603 3500 
z
M 603 4863 
L 1178 4863 
L 1178 4134 
L 603 4134 
L 603 4863 
z
" transform="scale(0.015625)"/>
      <path id="DejaVuSans-6e" d="M 3513 2113 
L 3513 0 
L 2938 0 
L 2938 2094 
Q 2938 2591 2744 2837 
Q 2550 3084 2163 3084 
Q 1697 3084 1428 2787 
Q 1159 2491 1159 1978 
L 1159 0 
L 581 0 
L 581 3500 
L 1159 3500 
L 1159 2956 
Q 1366 3272 1645 3428 
Q 1925 3584 2291 3584 
Q 2894 3584 3203 3211 
Q 3513 2838 3513 2113 
z
" transform="scale(0.015625)"/>
      <path id="DejaVuSans-67" d="M 2906 1791 
Q 2906 2416 2648 2759 
Q 2391 3103 1925 3103 
Q 1463 3103 1205 2759 
Q 947 2416 947 1791 
Q 947 1169 1205 825 
Q 1463 481 1925 481 
Q 2391 481 2648 825 
Q 2906 1169 2906 1791 
z
M 3481 434 
Q 3481 -459 3084 -895 
Q 2688 -1331 1869 -1331 
Q 1566 -1331 1297 -1286 
Q 1028 -1241 775 -1147 
L 775 -588 
Q 1028 -725 1275 -790 
Q 1522 -856 1778 -856 
Q 2344 -856 2625 -561 
Q 2906 -266 2906 331 
L 2906 616 
Q 2728 306 2450 153 
Q 2172 0 1784 0 
Q 1141 0 747 490 
Q 353 981 353 1791 
Q 353 2603 747 3093 
Q 1141 3584 1784 3584 
Q 2172 3584 2450 3431 
Q 2728 3278 2906 2969 
L 2906 3500 
L 3481 3500 
L 3481 434 
z
" transform="scale(0.015625)"/>
      <path id="DejaVuSans-20" transform="scale(0.015625)"/>
      <path id="DejaVuSans-64" d="M 2906 2969 
L 2906 4863 
L 3481 4863 
L 3481 0 
L 2906 0 
L 2906 525 
Q 2725 213 2448 61 
Q 2172 -91 1784 -91 
Q 1150 -91 751 415 
Q 353 922 353 1747 
Q 353 2572 751 3078 
Q 1150 3584 1784 3584 
Q 2172 3584 2448 3432 
Q 2725 3281 2906 2969 
z
M 947 1747 
Q 947 1113 1208 752 
Q 1469 391 1925 391 
Q 2381 391 2643 752 
Q 2906 1113 2906 1747 
Q 2906 2381 2643 2742 
Q 2381 3103 1925 3103 
Q 1469 3103 1208 2742 
Q 947 2381 947 1747 
z
" transform="scale(0.015625)"/>
      <path id="DejaVuSans-56" d="M 1831 0 
L 50 4666 
L 709 4666 
L 2188 738 
L 3669 4666 
L 4325 4666 
L 2547 0 
L 1831 0 
z
" transform="scale(0.015625)"/>
      <path id="DejaVuSans-6c" d="M 603 4863 
L 1178 4863 
L 1178 0 
L 603 0 
L 603 4863 
z
" transform="scale(0.015625)"/>
      <path id="DejaVuSans-74" d="M 1172 4494 
L 1172 3500 
L 2356 3500 
L 2356 3053 
L 1172 3053 
L 1172 1153 
Q 1172 725 1289 603 
Q 1406 481 1766 481 
L 2356 481 
L 2356 0 
L 1766 0 
Q 1100 0 847 248 
Q 594 497 594 1153 
L 594 3053 
L 172 3053 
L 172 3500 
L 594 3500 
L 594 4494 
L 1172 4494 
z
" transform="scale(0.015625)"/>
     </defs>
     <use xlink:href="#DejaVuSans-54"/>
     <use xlink:href="#DejaVuSans-72" x="46.333984"/>
     <use xlink:href="#DejaVuSans-61" x="87.447266"/>
     <use xlink:href="#DejaVuSans-69" x="148.726562"/>
     <use xlink:href="#DejaVuSans-6e" x="176.509766"/>
     <use xlink:href="#DejaVuSans-69" x="239.888672"/>
     <use xlink:href="#DejaVuSans-6e" x="267.671875"/>
     <use xlink:href="#DejaVuSans-67" x="331.050781"/>
     <use xlink:href="#DejaVuSans-20" x="394.527344"/>
     <use xlink:href="#DejaVuSans-61" x="426.314453"/>
     <use xlink:href="#DejaVuSans-6e" x="487.59375"/>
     <use xlink:href="#DejaVuSans-64" x="550.972656"/>
     <use xlink:href="#DejaVuSans-20" x="614.449219"/>
     <use xlink:href="#DejaVuSans-56" x="646.236328"/>
     <use xlink:href="#DejaVuSans-61" x="706.894531"/>
     <use xlink:href="#DejaVuSans-6c" x="768.173828"/>
     <use xlink:href="#DejaVuSans-69" x="795.957031"/>
     <use xlink:href="#DejaVuSans-64" x="823.740234"/>
     <use xlink:href="#DejaVuSans-61" x="887.216797"/>
     <use xlink:href="#DejaVuSans-74" x="948.496094"/>
     <use xlink:href="#DejaVuSans-69" x="987.705078"/>
     <use xlink:href="#DejaVuSans-6f" x="1015.488281"/>
     <use xlink:href="#DejaVuSans-6e" x="1076.669922"/>
     <use xlink:href="#DejaVuSans-20" x="1140.048828"/>
     <use xlink:href="#DejaVuSans-4c" x="1171.835938"/>
     <use xlink:href="#DejaVuSans-6f" x="1225.798828"/>
     <use xlink:href="#DejaVuSans-73" x="1286.980469"/>
     <use xlink:href="#DejaVuSans-73" x="1339.080078"/>
    </g>
   </g>
   <g id="legend_1">
    <g id="patch_7">
     <path d="M 64.6 78.82825 
L 171.09375 78.82825 
Q 173.09375 78.82825 173.09375 76.82825 
L 173.09375 48.472 
Q 173.09375 46.472 171.09375 46.472 
L 64.6 46.472 
Q 62.6 46.472 62.6 48.472 
L 62.6 76.82825 
Q 62.6 78.82825 64.6 78.82825 
z
" style="fill: #ffffff; opacity: 0.8; stroke: #cccccc; stroke-linejoin: miter"/>
    </g>
    <g id="line2d_19">
     <path d="M 66.6 54.570437 
L 76.6 54.570437 
L 86.6 54.570437 
" style="fill: none; stroke: #1f77b4; stroke-width: 1.5; stroke-linecap: square"/>
    </g>
    <g id="text_20">
     <!-- Training Loss -->
     <g transform="translate(94.6 58.070437) scale(0.1 -0.1)">
      <use xlink:href="#DejaVuSans-54"/>
      <use xlink:href="#DejaVuSans-72" x="46.333984"/>
      <use xlink:href="#DejaVuSans-61" x="87.447266"/>
      <use xlink:href="#DejaVuSans-69" x="148.726562"/>
      <use xlink:href="#DejaVuSans-6e" x="176.509766"/>
      <use xlink:href="#DejaVuSans-69" x="239.888672"/>
      <use xlink:href="#DejaVuSans-6e" x="267.671875"/>
      <use xlink:href="#DejaVuSans-67" x="331.050781"/>
      <use xlink:href="#DejaVuSans-20" x="394.527344"/>
      <use xlink:href="#DejaVuSans-4c" x="426.314453"/>
      <use xlink:href="#DejaVuSans-6f" x="480.277344"/>
      <use xlink:href="#DejaVuSans-73" x="541.458984"/>
      <use xlink:href="#DejaVuSans-73" x="593.558594"/>
     </g>
    </g>
    <g id="line2d_20">
     <path d="M 66.6 69.248562 
L 76.6 69.248562 
L 86.6 69.248562 
" style="fill: none; stroke: #ff7f0e; stroke-width: 1.5; stroke-linecap: square"/>
    </g>
    <g id="text_21">
     <!-- Validation Loss -->
     <g transform="translate(94.6 72.748562) scale(0.1 -0.1)">
      <use xlink:href="#DejaVuSans-56"/>
      <use xlink:href="#DejaVuSans-61" x="60.658203"/>
      <use xlink:href="#DejaVuSans-6c" x="121.9375"/>
      <use xlink:href="#DejaVuSans-69" x="149.720703"/>
      <use xlink:href="#DejaVuSans-64" x="177.503906"/>
      <use xlink:href="#DejaVuSans-61" x="240.980469"/>
      <use xlink:href="#DejaVuSans-74" x="302.259766"/>
      <use xlink:href="#DejaVuSans-69" x="341.46875"/>
      <use xlink:href="#DejaVuSans-6f" x="369.251953"/>
      <use xlink:href="#DejaVuSans-6e" x="430.433594"/>
      <use xlink:href="#DejaVuSans-20" x="493.8125"/>
      <use xlink:href="#DejaVuSans-4c" x="525.599609"/>
      <use xlink:href="#DejaVuSans-6f" x="579.5625"/>
      <use xlink:href="#DejaVuSans-73" x="640.744141"/>
      <use xlink:href="#DejaVuSans-73" x="692.84375"/>
     </g>
    </g>
   </g>
  </g>
 </g>
 <defs>
  <clipPath id="pea61baf50d">
   <rect x="57.6" y="41.472" width="357.12" height="266.112"/>
  </clipPath>
 </defs>
</svg>
