<?xml version="1.0" encoding="utf-8" standalone="no"?>
<!DOCTYPE svg PUBLIC "-//W3C//DTD SVG 1.1//EN"
  "http://www.w3.org/Graphics/SVG/1.1/DTD/svg11.dtd">
<svg xmlns:xlink="http://www.w3.org/1999/xlink" width="460.8pt" height="345.6pt" viewBox="0 0 460.8 345.6" xmlns="http://www.w3.org/2000/svg" version="1.1">
 <metadata>
  <rdf:RDF xmlns:dc="http://purl.org/dc/elements/1.1/" xmlns:cc="http://creativecommons.org/ns#" xmlns:rdf="http://www.w3.org/1999/02/22-rdf-syntax-ns#">
   <cc:Work>
    <dc:type rdf:resource="http://purl.org/dc/dcmitype/StillImage"/>
    <dc:date>2023-07-12T11:24:10.812661</dc:date>
    <dc:format>image/svg+xml</dc:format>
    <dc:creator>
     <cc:Agent>
      <dc:title>Matplotlib v3.7.1, https://matplotlib.org/</dc:title>
     </cc:Agent>
    </dc:creator>
   </cc:Work>
  </rdf:RDF>
 </metadata>
 <defs>
  <style type="text/css">*{stroke-linejoin: round; stroke-linecap: butt}</style>
 </defs>
 <g id="figure_1">
  <g id="patch_1">
   <path d="M 0 345.6 
L 460.8 345.6 
L 460.8 0 
L 0 0 
z
" style="fill: #ffffff"/>
  </g>
  <g id="axes_1">
   <g id="patch_2">
    <path d="M 57.6 307.584 
L 414.72 307.584 
L 414.72 41.472 
L 57.6 41.472 
z
" style="fill: #ffffff"/>
   </g>
   <g id="matplotlib.axis_1">
    <g id="xtick_1">
     <g id="line2d_1">
      <defs>
       <path id="m87b60beef7" d="M 0 0 
L 0 3.5 
" style="stroke: #000000; stroke-width: 0.8"/>
      </defs>
      <g>
       <use xlink:href="#m87b60beef7" x="72.528894" y="307.584" style="stroke: #000000; stroke-width: 0.8"/>
      </g>
     </g>
     <g id="text_1">
      <!-- 0 -->
      <g transform="translate(69.347644 322.182437) scale(0.1 -0.1)">
       <defs>
        <path id="DejaVuSans-30" d="M 2034 4250 
Q 1547 4250 1301 3770 
Q 1056 3291 1056 2328 
Q 1056 1369 1301 889 
Q 1547 409 2034 409 
Q 2525 409 2770 889 
Q 3016 1369 3016 2328 
Q 3016 3291 2770 3770 
Q 2525 4250 2034 4250 
z
M 2034 4750 
Q 2819 4750 3233 4129 
Q 3647 3509 3647 2328 
Q 3647 1150 3233 529 
Q 2819 -91 2034 -91 
Q 1250 -91 836 529 
Q 422 1150 422 2328 
Q 422 3509 836 4129 
Q 1250 4750 2034 4750 
z
" transform="scale(0.015625)"/>
       </defs>
       <use xlink:href="#DejaVuSans-30"/>
      </g>
     </g>
    </g>
    <g id="xtick_2">
     <g id="line2d_2">
      <g>
       <use xlink:href="#m87b60beef7" x="137.72057" y="307.584" style="stroke: #000000; stroke-width: 0.8"/>
      </g>
     </g>
     <g id="text_2">
      <!-- 50 -->
      <g transform="translate(131.35807 322.182437) scale(0.1 -0.1)">
       <defs>
        <path id="DejaVuSans-35" d="M 691 4666 
L 3169 4666 
L 3169 4134 
L 1269 4134 
L 1269 2991 
Q 1406 3038 1543 3061 
Q 1681 3084 1819 3084 
Q 2600 3084 3056 2656 
Q 3513 2228 3513 1497 
Q 3513 744 3044 326 
Q 2575 -91 1722 -91 
Q 1428 -91 1123 -41 
Q 819 9 494 109 
L 494 744 
Q 775 591 1075 516 
Q 1375 441 1709 441 
Q 2250 441 2565 725 
Q 2881 1009 2881 1497 
Q 2881 1984 2565 2268 
Q 2250 2553 1709 2553 
Q 1456 2553 1204 2497 
Q 953 2441 691 2322 
L 691 4666 
z
" transform="scale(0.015625)"/>
       </defs>
       <use xlink:href="#DejaVuSans-35"/>
       <use xlink:href="#DejaVuSans-30" x="63.623047"/>
      </g>
     </g>
    </g>
    <g id="xtick_3">
     <g id="line2d_3">
      <g>
       <use xlink:href="#m87b60beef7" x="202.912245" y="307.584" style="stroke: #000000; stroke-width: 0.8"/>
      </g>
     </g>
     <g id="text_3">
      <!-- 100 -->
      <g transform="translate(193.368495 322.182437) scale(0.1 -0.1)">
       <defs>
        <path id="DejaVuSans-31" d="M 794 531 
L 1825 531 
L 1825 4091 
L 703 3866 
L 703 4441 
L 1819 4666 
L 2450 4666 
L 2450 531 
L 3481 531 
L 3481 0 
L 794 0 
L 794 531 
z
" transform="scale(0.015625)"/>
       </defs>
       <use xlink:href="#DejaVuSans-31"/>
       <use xlink:href="#DejaVuSans-30" x="63.623047"/>
       <use xlink:href="#DejaVuSans-30" x="127.246094"/>
      </g>
     </g>
    </g>
    <g id="xtick_4">
     <g id="line2d_4">
      <g>
       <use xlink:href="#m87b60beef7" x="268.103921" y="307.584" style="stroke: #000000; stroke-width: 0.8"/>
      </g>
     </g>
     <g id="text_4">
      <!-- 150 -->
      <g transform="translate(258.560171 322.182437) scale(0.1 -0.1)">
       <use xlink:href="#DejaVuSans-31"/>
       <use xlink:href="#DejaVuSans-35" x="63.623047"/>
       <use xlink:href="#DejaVuSans-30" x="127.246094"/>
      </g>
     </g>
    </g>
    <g id="xtick_5">
     <g id="line2d_5">
      <g>
       <use xlink:href="#m87b60beef7" x="333.295597" y="307.584" style="stroke: #000000; stroke-width: 0.8"/>
      </g>
     </g>
     <g id="text_5">
      <!-- 200 -->
      <g transform="translate(323.751847 322.182437) scale(0.1 -0.1)">
       <defs>
        <path id="DejaVuSans-32" d="M 1228 531 
L 3431 531 
L 3431 0 
L 469 0 
L 469 531 
Q 828 903 1448 1529 
Q 2069 2156 2228 2338 
Q 2531 2678 2651 2914 
Q 2772 3150 2772 3378 
Q 2772 3750 2511 3984 
Q 2250 4219 1831 4219 
Q 1534 4219 1204 4116 
Q 875 4013 500 3803 
L 500 4441 
Q 881 4594 1212 4672 
Q 1544 4750 1819 4750 
Q 2544 4750 2975 4387 
Q 3406 4025 3406 3419 
Q 3406 3131 3298 2873 
Q 3191 2616 2906 2266 
Q 2828 2175 2409 1742 
Q 1991 1309 1228 531 
z
" transform="scale(0.015625)"/>
       </defs>
       <use xlink:href="#DejaVuSans-32"/>
       <use xlink:href="#DejaVuSans-30" x="63.623047"/>
       <use xlink:href="#DejaVuSans-30" x="127.246094"/>
      </g>
     </g>
    </g>
    <g id="xtick_6">
     <g id="line2d_6">
      <g>
       <use xlink:href="#m87b60beef7" x="398.487273" y="307.584" style="stroke: #000000; stroke-width: 0.8"/>
      </g>
     </g>
     <g id="text_6">
      <!-- 250 -->
      <g transform="translate(388.943523 322.182437) scale(0.1 -0.1)">
       <use xlink:href="#DejaVuSans-32"/>
       <use xlink:href="#DejaVuSans-35" x="63.623047"/>
       <use xlink:href="#DejaVuSans-30" x="127.246094"/>
      </g>
     </g>
    </g>
    <g id="text_7">
     <!-- Epoch -->
     <g transform="translate(220.849063 335.860562) scale(0.1 -0.1)">
      <defs>
       <path id="DejaVuSans-45" d="M 628 4666 
L 3578 4666 
L 3578 4134 
L 1259 4134 
L 1259 2753 
L 3481 2753 
L 3481 2222 
L 1259 2222 
L 1259 531 
L 3634 531 
L 3634 0 
L 628 0 
L 628 4666 
z
" transform="scale(0.015625)"/>
       <path id="DejaVuSans-70" d="M 1159 525 
L 1159 -1331 
L 581 -1331 
L 581 3500 
L 1159 3500 
L 1159 2969 
Q 1341 3281 1617 3432 
Q 1894 3584 2278 3584 
Q 2916 3584 3314 3078 
Q 3713 2572 3713 1747 
Q 3713 922 3314 415 
Q 2916 -91 2278 -91 
Q 1894 -91 1617 61 
Q 1341 213 1159 525 
z
M 3116 1747 
Q 3116 2381 2855 2742 
Q 2594 3103 2138 3103 
Q 1681 3103 1420 2742 
Q 1159 2381 1159 1747 
Q 1159 1113 1420 752 
Q 1681 391 2138 391 
Q 2594 391 2855 752 
Q 3116 1113 3116 1747 
z
" transform="scale(0.015625)"/>
       <path id="DejaVuSans-6f" d="M 1959 3097 
Q 1497 3097 1228 2736 
Q 959 2375 959 1747 
Q 959 1119 1226 758 
Q 1494 397 1959 397 
Q 2419 397 2687 759 
Q 2956 1122 2956 1747 
Q 2956 2369 2687 2733 
Q 2419 3097 1959 3097 
z
M 1959 3584 
Q 2709 3584 3137 3096 
Q 3566 2609 3566 1747 
Q 3566 888 3137 398 
Q 2709 -91 1959 -91 
Q 1206 -91 779 398 
Q 353 888 353 1747 
Q 353 2609 779 3096 
Q 1206 3584 1959 3584 
z
" transform="scale(0.015625)"/>
       <path id="DejaVuSans-63" d="M 3122 3366 
L 3122 2828 
Q 2878 2963 2633 3030 
Q 2388 3097 2138 3097 
Q 1578 3097 1268 2742 
Q 959 2388 959 1747 
Q 959 1106 1268 751 
Q 1578 397 2138 397 
Q 2388 397 2633 464 
Q 2878 531 3122 666 
L 3122 134 
Q 2881 22 2623 -34 
Q 2366 -91 2075 -91 
Q 1284 -91 818 406 
Q 353 903 353 1747 
Q 353 2603 823 3093 
Q 1294 3584 2113 3584 
Q 2378 3584 2631 3529 
Q 2884 3475 3122 3366 
z
" transform="scale(0.015625)"/>
       <path id="DejaVuSans-68" d="M 3513 2113 
L 3513 0 
L 2938 0 
L 2938 2094 
Q 2938 2591 2744 2837 
Q 2550 3084 2163 3084 
Q 1697 3084 1428 2787 
Q 1159 2491 1159 1978 
L 1159 0 
L 581 0 
L 581 4863 
L 1159 4863 
L 1159 2956 
Q 1366 3272 1645 3428 
Q 1925 3584 2291 3584 
Q 2894 3584 3203 3211 
Q 3513 2838 3513 2113 
z
" transform="scale(0.015625)"/>
      </defs>
      <use xlink:href="#DejaVuSans-45"/>
      <use xlink:href="#DejaVuSans-70" x="63.183594"/>
      <use xlink:href="#DejaVuSans-6f" x="126.660156"/>
      <use xlink:href="#DejaVuSans-63" x="187.841797"/>
      <use xlink:href="#DejaVuSans-68" x="242.822266"/>
     </g>
    </g>
   </g>
   <g id="matplotlib.axis_2">
    <g id="ytick_1">
     <g id="line2d_7">
      <defs>
       <path id="m0a7c716a6d" d="M 0 0 
L -3.5 0 
" style="stroke: #000000; stroke-width: 0.8"/>
      </defs>
      <g>
       <use xlink:href="#m0a7c716a6d" x="57.6" y="261.979122" style="stroke: #000000; stroke-width: 0.8"/>
      </g>
     </g>
     <g id="text_8">
      <!-- 0.7 -->
      <g transform="translate(34.696875 265.77834) scale(0.1 -0.1)">
       <defs>
        <path id="DejaVuSans-2e" d="M 684 794 
L 1344 794 
L 1344 0 
L 684 0 
L 684 794 
z
" transform="scale(0.015625)"/>
        <path id="DejaVuSans-37" d="M 525 4666 
L 3525 4666 
L 3525 4397 
L 1831 0 
L 1172 0 
L 2766 4134 
L 525 4134 
L 525 4666 
z
" transform="scale(0.015625)"/>
       </defs>
       <use xlink:href="#DejaVuSans-30"/>
       <use xlink:href="#DejaVuSans-2e" x="63.623047"/>
       <use xlink:href="#DejaVuSans-37" x="95.410156"/>
      </g>
     </g>
    </g>
    <g id="ytick_2">
     <g id="line2d_8">
      <g>
       <use xlink:href="#m0a7c716a6d" x="57.6" y="206.04343" style="stroke: #000000; stroke-width: 0.8"/>
      </g>
     </g>
     <g id="text_9">
      <!-- 0.8 -->
      <g transform="translate(34.696875 209.842649) scale(0.1 -0.1)">
       <defs>
        <path id="DejaVuSans-38" d="M 2034 2216 
Q 1584 2216 1326 1975 
Q 1069 1734 1069 1313 
Q 1069 891 1326 650 
Q 1584 409 2034 409 
Q 2484 409 2743 651 
Q 3003 894 3003 1313 
Q 3003 1734 2745 1975 
Q 2488 2216 2034 2216 
z
M 1403 2484 
Q 997 2584 770 2862 
Q 544 3141 544 3541 
Q 544 4100 942 4425 
Q 1341 4750 2034 4750 
Q 2731 4750 3128 4425 
Q 3525 4100 3525 3541 
Q 3525 3141 3298 2862 
Q 3072 2584 2669 2484 
Q 3125 2378 3379 2068 
Q 3634 1759 3634 1313 
Q 3634 634 3220 271 
Q 2806 -91 2034 -91 
Q 1263 -91 848 271 
Q 434 634 434 1313 
Q 434 1759 690 2068 
Q 947 2378 1403 2484 
z
M 1172 3481 
Q 1172 3119 1398 2916 
Q 1625 2713 2034 2713 
Q 2441 2713 2670 2916 
Q 2900 3119 2900 3481 
Q 2900 3844 2670 4047 
Q 2441 4250 2034 4250 
Q 1625 4250 1398 4047 
Q 1172 3844 1172 3481 
z
" transform="scale(0.015625)"/>
       </defs>
       <use xlink:href="#DejaVuSans-30"/>
       <use xlink:href="#DejaVuSans-2e" x="63.623047"/>
       <use xlink:href="#DejaVuSans-38" x="95.410156"/>
      </g>
     </g>
    </g>
    <g id="ytick_3">
     <g id="line2d_9">
      <g>
       <use xlink:href="#m0a7c716a6d" x="57.6" y="150.107739" style="stroke: #000000; stroke-width: 0.8"/>
      </g>
     </g>
     <g id="text_10">
      <!-- 0.9 -->
      <g transform="translate(34.696875 153.906958) scale(0.1 -0.1)">
       <defs>
        <path id="DejaVuSans-39" d="M 703 97 
L 703 672 
Q 941 559 1184 500 
Q 1428 441 1663 441 
Q 2288 441 2617 861 
Q 2947 1281 2994 2138 
Q 2813 1869 2534 1725 
Q 2256 1581 1919 1581 
Q 1219 1581 811 2004 
Q 403 2428 403 3163 
Q 403 3881 828 4315 
Q 1253 4750 1959 4750 
Q 2769 4750 3195 4129 
Q 3622 3509 3622 2328 
Q 3622 1225 3098 567 
Q 2575 -91 1691 -91 
Q 1453 -91 1209 -44 
Q 966 3 703 97 
z
M 1959 2075 
Q 2384 2075 2632 2365 
Q 2881 2656 2881 3163 
Q 2881 3666 2632 3958 
Q 2384 4250 1959 4250 
Q 1534 4250 1286 3958 
Q 1038 3666 1038 3163 
Q 1038 2656 1286 2365 
Q 1534 2075 1959 2075 
z
" transform="scale(0.015625)"/>
       </defs>
       <use xlink:href="#DejaVuSans-30"/>
       <use xlink:href="#DejaVuSans-2e" x="63.623047"/>
       <use xlink:href="#DejaVuSans-39" x="95.410156"/>
      </g>
     </g>
    </g>
    <g id="ytick_4">
     <g id="line2d_10">
      <g>
       <use xlink:href="#m0a7c716a6d" x="57.6" y="94.172048" style="stroke: #000000; stroke-width: 0.8"/>
      </g>
     </g>
     <g id="text_11">
      <!-- 1.0 -->
      <g transform="translate(34.696875 97.971267) scale(0.1 -0.1)">
       <use xlink:href="#DejaVuSans-31"/>
       <use xlink:href="#DejaVuSans-2e" x="63.623047"/>
       <use xlink:href="#DejaVuSans-30" x="95.410156"/>
      </g>
     </g>
    </g>
    <g id="text_12">
     <!-- Loss -->
     <g transform="translate(28.617188 185.495187) rotate(-90) scale(0.1 -0.1)">
      <defs>
       <path id="DejaVuSans-4c" d="M 628 4666 
L 1259 4666 
L 1259 531 
L 3531 531 
L 3531 0 
L 628 0 
L 628 4666 
z
" transform="scale(0.015625)"/>
       <path id="DejaVuSans-73" d="M 2834 3397 
L 2834 2853 
Q 2591 2978 2328 3040 
Q 2066 3103 1784 3103 
Q 1356 3103 1142 2972 
Q 928 2841 928 2578 
Q 928 2378 1081 2264 
Q 1234 2150 1697 2047 
L 1894 2003 
Q 2506 1872 2764 1633 
Q 3022 1394 3022 966 
Q 3022 478 2636 193 
Q 2250 -91 1575 -91 
Q 1294 -91 989 -36 
Q 684 19 347 128 
L 347 722 
Q 666 556 975 473 
Q 1284 391 1588 391 
Q 1994 391 2212 530 
Q 2431 669 2431 922 
Q 2431 1156 2273 1281 
Q 2116 1406 1581 1522 
L 1381 1569 
Q 847 1681 609 1914 
Q 372 2147 372 2553 
Q 372 3047 722 3315 
Q 1072 3584 1716 3584 
Q 2034 3584 2315 3537 
Q 2597 3491 2834 3397 
z
" transform="scale(0.015625)"/>
      </defs>
      <use xlink:href="#DejaVuSans-4c"/>
      <use xlink:href="#DejaVuSans-6f" x="53.962891"/>
      <use xlink:href="#DejaVuSans-73" x="115.144531"/>
      <use xlink:href="#DejaVuSans-73" x="167.244141"/>
     </g>
    </g>
   </g>
   <g id="line2d_11">
    <path d="M 73.832727 287.015866 
L 75.136561 279.597959 
L 76.440394 265.285324 
L 77.744228 267.726875 
L 79.048061 254.452759 
L 80.351895 243.995786 
L 81.655728 247.636448 
L 82.959562 238.360049 
L 84.263395 226.67664 
L 85.567229 240.800648 
L 86.871062 238.757524 
L 88.174896 244.488154 
L 89.478729 224.808096 
L 90.782563 212.930902 
L 92.086396 232.294153 
L 93.39023 235.720835 
L 94.694064 250.144787 
L 95.997897 231.505278 
L 97.301731 230.435383 
L 98.605564 219.943947 
L 99.909398 206.677774 
L 101.213231 213.522073 
L 102.517065 217.387336 
L 103.820898 212.963656 
L 105.124732 206.728591 
L 106.428565 219.941326 
L 107.732399 211.654026 
L 109.036232 232.105673 
L 110.340066 210.898803 
L 111.643899 225.55322 
L 112.947733 199.950199 
L 114.251566 228.289478 
L 115.5554 208.702883 
L 116.859233 234.450416 
L 118.163067 218.71644 
L 119.4669 238.47691 
L 120.770734 198.813011 
L 122.074567 225.443808 
L 123.378401 192.878113 
L 124.682234 221.2671 
L 125.986068 181.005282 
L 127.289901 214.319667 
L 128.593735 170.591288 
L 129.897568 203.982025 
L 131.201402 181.561243 
L 132.505235 203.645331 
L 133.809069 208.833683 
L 135.112903 209.226751 
L 136.416736 201.384221 
L 137.72057 204.735626 
L 139.024403 217.505748 
L 140.328237 192.40671 
L 141.63207 204.929066 
L 142.935904 155.793788 
L 144.239737 192.269483 
L 145.543571 165.101609 
L 146.847404 200.766273 
L 148.151238 208.484886 
L 149.455071 201.399009 
L 150.758905 203.961925 
L 152.062738 188.126576 
L 153.366572 200.92314 
L 154.670405 178.338851 
L 155.974239 197.769337 
L 157.278072 167.229582 
L 158.581906 206.690541 
L 159.885739 195.215815 
L 161.189573 202.280518 
L 162.493406 203.472113 
L 163.79724 197.057943 
L 165.101073 201.425028 
L 166.404907 194.294411 
L 167.70874 220.833251 
L 169.012574 186.228219 
L 170.316407 223.87188 
L 171.620241 200.483347 
L 172.924074 220.730699 
L 174.227908 181.494214 
L 175.531742 215.066567 
L 176.835575 190.727983 
L 178.139409 213.20125 
L 179.443242 195.297501 
L 180.747076 207.911244 
L 182.050909 194.174194 
L 183.354743 192.643746 
L 184.658576 197.416003 
L 185.96241 198.865846 
L 187.266243 212.400501 
L 188.570077 191.884072 
L 189.87391 217.041417 
L 191.177744 184.40614 
L 192.481577 212.557276 
L 193.785411 192.841066 
L 195.089244 222.710267 
L 196.393078 193.225156 
L 197.696911 227.405005 
L 199.000745 205.285319 
L 200.304578 231.840015 
L 201.608412 200.012907 
L 202.912245 235.54959 
L 204.216079 209.173748 
L 205.519912 231.834604 
L 206.823746 205.671851 
L 208.127579 234.863323 
L 209.431413 219.172706 
L 210.735246 231.801729 
L 212.03908 217.614485 
L 213.342913 218.693835 
L 214.646747 210.129103 
L 215.950581 216.066503 
L 217.254414 214.653643 
L 218.558248 222.051429 
L 219.862081 214.156572 
L 221.165915 214.500735 
L 222.469748 209.673937 
L 223.773582 213.929394 
L 225.077415 212.440192 
L 226.381249 215.041711 
L 227.685082 206.358969 
L 228.988916 208.431664 
L 230.292749 205.851518 
L 231.596583 214.006152 
L 232.900416 215.562414 
L 234.20425 215.648746 
L 235.508083 210.418496 
L 236.811917 210.548912 
L 238.11575 212.274521 
L 239.419584 217.190765 
L 240.723417 203.559315 
L 242.027251 214.565909 
L 243.331084 211.480435 
L 244.634918 207.260155 
L 245.938751 205.554048 
L 247.242585 218.801412 
L 248.546418 212.18328 
L 249.850252 214.142948 
L 251.154085 219.921371 
L 252.457919 222.834314 
L 253.761752 212.596842 
L 255.065586 213.389995 
L 256.369419 219.695311 
L 257.673253 209.270244 
L 258.977087 219.389145 
L 260.28092 219.039261 
L 261.584754 216.264186 
L 262.888587 221.343715 
L 264.192421 221.561261 
L 265.496254 223.429722 
L 266.800088 222.179075 
L 268.103921 218.185279 
L 269.407755 231.384568 
L 270.711588 223.541722 
L 272.015422 244.316565 
L 273.319255 224.861206 
L 274.623089 239.562958 
L 275.926922 229.046172 
L 277.230756 224.342635 
L 278.534589 207.912405 
L 279.838423 219.055804 
L 281.142256 216.245043 
L 282.44609 213.939322 
L 283.749923 214.242499 
L 285.053757 209.232005 
L 286.35759 222.109293 
L 287.661424 209.275502 
L 288.965257 221.311324 
L 290.269091 202.025815 
L 291.572924 215.834249 
L 292.876758 198.024051 
L 294.180591 203.857909 
L 295.484425 191.308844 
L 296.788258 204.32287 
L 298.092092 201.358493 
L 299.395926 203.936965 
L 300.699759 208.947497 
L 302.003593 203.564507 
L 303.307426 212.875068 
L 304.61126 190.529133 
L 305.915093 208.403577 
L 307.218927 178.083743 
L 308.52276 214.113918 
L 309.826594 170.356554 
L 311.130427 210.649368 
L 312.434261 187.971715 
L 313.738094 212.547755 
L 315.041928 211.253046 
L 316.345761 212.961842 
L 317.649595 218.131062 
L 318.953428 222.587068 
L 320.257262 210.484984 
L 321.561095 209.935615 
L 322.864929 214.709869 
L 324.168762 212.143685 
L 325.472596 209.045622 
L 326.776429 212.024627 
L 328.080263 215.681758 
L 329.384096 209.023068 
L 330.68793 209.435327 
L 331.991763 207.207233 
L 333.295597 209.88386 
L 334.59943 206.489949 
L 335.903264 212.932929 
L 337.207097 204.627182 
L 338.510931 209.214597 
L 339.814765 181.457118 
L 341.118598 212.690066 
L 342.422432 177.335888 
L 343.726265 219.482682 
L 345.030099 183.618287 
L 346.333932 211.09641 
L 347.637766 178.512017 
L 348.941599 202.914171 
L 350.245433 210.278369 
L 351.549266 216.739977 
L 352.8531 208.837841 
L 354.156933 208.010744 
L 355.460767 208.908481 
L 356.7646 203.945677 
L 358.068434 212.256255 
L 359.372267 195.0874 
L 360.676101 209.710459 
L 361.979934 181.71375 
L 363.283768 223.383326 
L 364.587601 192.811534 
L 365.891435 219.749766 
L 367.195268 192.803203 
L 368.499102 218.489987 
L 369.802935 191.801477 
L 371.106769 216.397349 
L 372.410602 204.568023 
L 373.714436 217.76144 
L 375.018269 187.417054 
L 376.322103 193.948698 
L 377.625936 199.2839 
L 378.92977 201.555048 
L 380.233604 197.651427 
L 381.537437 207.200132 
L 382.841271 206.831172 
L 384.145104 194.997383 
L 385.448938 209.301499 
L 386.752771 172.5274 
L 388.056605 207.246406 
L 389.360438 176.514096 
L 390.664272 209.548242 
L 391.968105 201.385226 
L 393.271939 221.012313 
L 394.575772 220.309471 
L 395.879606 209.514785 
L 397.183439 211.888299 
L 398.487273 198.9322 
L 398.487273 198.9322 
" clip-path="url(#p02608591b8)" style="fill: none; stroke: #1f77b4; stroke-width: 1.5; stroke-linecap: square"/>
   </g>
   <g id="line2d_12">
    <path d="M 73.832727 280.408129 
L 75.136561 242.878788 
L 76.440394 241.943593 
L 77.744228 232.434381 
L 79.048061 295.324266 
L 80.351895 181.331649 
L 81.655728 275.117628 
L 82.959562 206.66762 
L 84.263395 163.69708 
L 85.567229 291.865013 
L 86.871062 294.823995 
L 88.174896 190.01879 
L 89.478729 180.76083 
L 90.782563 161.11691 
L 92.086396 280.051288 
L 93.39023 276.637945 
L 94.694064 257.472024 
L 95.997897 258.766727 
L 97.301731 154.578549 
L 98.605564 163.527478 
L 99.909398 114.138802 
L 101.213231 164.071891 
L 102.517065 131.97558 
L 103.820898 222.705657 
L 105.124732 173.178052 
L 106.428565 259.473474 
L 107.732399 192.647003 
L 109.036232 273.460217 
L 110.340066 227.299279 
L 111.643899 294.213368 
L 112.947733 244.021425 
L 114.251566 295.314197 
L 115.5554 254.728953 
L 116.859233 294.755681 
L 118.163067 281.191025 
L 119.4669 277.97859 
L 120.770734 294.469321 
L 122.074567 257.228206 
L 123.378401 294.33416 
L 124.682234 269.976859 
L 125.986068 279.955535 
L 127.289901 293.338853 
L 128.593735 221.585991 
L 129.897568 271.270261 
L 131.201402 126.429993 
L 132.505235 159.742991 
L 133.809069 82.137011 
L 135.112903 121.216308 
L 136.416736 90.75467 
L 137.72057 172.748596 
L 139.024403 142.609359 
L 140.328237 265.007592 
L 141.63207 220.655197 
L 142.935904 281.880335 
L 144.239737 294.853268 
L 145.543571 137.107614 
L 146.847404 151.513812 
L 148.151238 53.568 
L 149.455071 130.872951 
L 150.758905 124.12398 
L 152.062738 269.137684 
L 153.366572 242.1375 
L 154.670405 279.650138 
L 155.974239 295.475097 
L 157.278072 160.159744 
L 158.581906 180.208048 
L 159.885739 70.052363 
L 161.189573 104.398176 
L 162.493406 86.048424 
L 163.79724 208.494267 
L 165.101073 179.498768 
L 166.404907 285.353758 
L 167.70874 244.963755 
L 169.012574 293.512589 
L 170.316407 281.521894 
L 171.620241 283.74359 
L 172.924074 286.987065 
L 174.227908 260.841825 
L 175.531742 295.437456 
L 176.835575 221.686778 
L 178.139409 276.714661 
L 179.443242 164.907665 
L 180.747076 216.983967 
L 182.050909 107.471382 
L 183.354743 138.242417 
L 184.658576 70.956751 
L 185.96241 117.523606 
L 187.266243 98.262799 
L 188.570077 206.114739 
L 189.87391 168.707089 
L 191.177744 282.107116 
L 192.481577 242.266494 
L 193.785411 293.94798 
L 195.089244 279.747992 
L 196.393078 278.912518 
L 197.696911 291.982737 
L 199.000745 271.866352 
L 200.304578 291.45296 
L 201.608412 280.866091 
L 202.912245 285.537063 
L 204.216079 292.099662 
L 205.519912 264.211059 
L 206.823746 295.482699 
L 208.127579 247.015482 
L 209.431413 282.752984 
L 210.735246 199.595315 
L 212.03908 233.097819 
L 213.342913 145.537268 
L 214.646747 197.695454 
L 215.950581 141.032164 
L 217.254414 187.191301 
L 218.558248 131.869791 
L 219.862081 157.692631 
L 221.165915 110.357716 
L 222.469748 143.423595 
L 223.773582 107.780046 
L 225.077415 152.348119 
L 226.381249 108.00856 
L 227.685082 168.42433 
L 228.988916 127.834885 
L 230.292749 182.302117 
L 231.596583 128.858131 
L 232.900416 183.691407 
L 234.20425 129.028767 
L 235.508083 169.363092 
L 236.811917 117.871946 
L 238.11575 161.11851 
L 239.419584 108.129952 
L 240.723417 157.76858 
L 242.027251 111.26167 
L 243.331084 165.689128 
L 244.634918 115.556731 
L 245.938751 168.846518 
L 247.242585 128.439278 
L 248.546418 181.701226 
L 249.850252 130.288296 
L 251.154085 169.181721 
L 252.457919 123.386126 
L 253.761752 158.973064 
L 255.065586 119.373891 
L 256.369419 148.138309 
L 257.673253 108.387839 
L 258.977087 151.934266 
L 260.28092 119.183152 
L 261.584754 166.410078 
L 262.888587 126.245388 
L 264.192421 196.297096 
L 265.496254 159.37338 
L 266.800088 249.877177 
L 268.103921 204.947462 
L 269.407755 290.593248 
L 270.711588 266.74472 
L 272.015422 283.210446 
L 273.319255 292.991781 
L 274.623089 209.662577 
L 275.926922 221.24662 
L 277.230756 132.165019 
L 278.534589 152.684922 
L 279.838423 117.982069 
L 281.142256 178.475855 
L 282.44609 138.75039 
L 283.749923 220.184966 
L 285.053757 161.201294 
L 286.35759 242.789702 
L 287.661424 178.151421 
L 288.965257 259.178112 
L 290.269091 176.695351 
L 291.572924 258.256487 
L 292.876758 166.006794 
L 294.180591 235.899969 
L 295.484425 117.3343 
L 296.788258 155.960437 
L 298.092092 83.658261 
L 299.395926 121.788127 
L 300.699759 82.638382 
L 302.003593 154.118387 
L 303.307426 126.308468 
L 304.61126 250.023574 
L 305.915093 211.001089 
L 307.218927 295.488 
L 308.52276 280.557427 
L 309.826594 243.731798 
L 311.130427 284.804377 
L 312.434261 169.667822 
L 313.738094 215.647055 
L 315.041928 114.874022 
L 316.345761 156.955744 
L 317.649595 102.775871 
L 318.953428 136.203126 
L 320.257262 98.804178 
L 321.561095 141.074173 
L 322.864929 108.251844 
L 324.168762 136.489452 
L 325.472596 95.730972 
L 326.776429 134.061314 
L 328.080263 99.418906 
L 329.384096 143.896227 
L 330.68793 104.327628 
L 331.991763 184.773665 
L 333.295597 142.891985 
L 334.59943 227.952882 
L 335.903264 173.248967 
L 337.207097 254.292596 
L 338.510931 190.011722 
L 339.814765 292.627505 
L 341.118598 259.056153 
L 343.726265 295.256885 
L 345.030099 229.553148 
L 346.333932 278.785625 
L 347.637766 148.867961 
L 348.941599 193.180981 
L 350.245433 97.920361 
L 351.549266 127.630676 
L 352.8531 82.498953 
L 354.156933 138.67314 
L 355.460767 107.345255 
L 356.7646 192.700281 
L 358.068434 153.586943 
L 359.372267 261.873306 
L 360.676101 209.993412 
L 361.979934 295.282057 
L 363.283768 270.792529 
L 364.587601 283.734288 
L 365.891435 289.936578 
L 367.195268 258.580988 
L 368.499102 295.327133 
L 369.802935 223.864131 
L 371.106769 283.162236 
L 372.410602 199.386339 
L 373.714436 264.215594 
L 375.018269 154.340333 
L 376.322103 211.238205 
L 377.625936 88.724648 
L 378.92977 114.289834 
L 380.233604 65.783008 
L 381.537437 149.936417 
L 382.841271 129.757985 
L 384.145104 254.678076 
L 385.448938 216.173498 
L 386.752771 291.27489 
L 388.056605 292.82918 
L 389.360438 221.107858 
L 390.664272 270.089682 
L 391.968105 158.992201 
L 393.271939 205.900394 
L 394.575772 129.066041 
L 395.879606 185.561229 
L 397.183439 117.851075 
L 398.487273 172.944837 
L 398.487273 172.944837 
" clip-path="url(#p02608591b8)" style="fill: none; stroke: #ff7f0e; stroke-width: 1.5; stroke-linecap: square"/>
   </g>
   <g id="patch_3">
    <path d="M 57.6 307.584 
L 57.6 41.472 
" style="fill: none; stroke: #000000; stroke-width: 0.8; stroke-linejoin: miter; stroke-linecap: square"/>
   </g>
   <g id="patch_4">
    <path d="M 414.72 307.584 
L 414.72 41.472 
" style="fill: none; stroke: #000000; stroke-width: 0.8; stroke-linejoin: miter; stroke-linecap: square"/>
   </g>
   <g id="patch_5">
    <path d="M 57.6 307.584 
L 414.72 307.584 
" style="fill: none; stroke: #000000; stroke-width: 0.8; stroke-linejoin: miter; stroke-linecap: square"/>
   </g>
   <g id="patch_6">
    <path d="M 57.6 41.472 
L 414.72 41.472 
" style="fill: none; stroke: #000000; stroke-width: 0.8; stroke-linejoin: miter; stroke-linecap: square"/>
   </g>
   <g id="text_13">
    <!-- Training and Validation Loss -->
    <g transform="translate(152.690625 35.472) scale(0.12 -0.12)">
     <defs>
      <path id="DejaVuSans-54" d="M -19 4666 
L 3928 4666 
L 3928 4134 
L 2272 4134 
L 2272 0 
L 1638 0 
L 1638 4134 
L -19 4134 
L -19 4666 
z
" transform="scale(0.015625)"/>
      <path id="DejaVuSans-72" d="M 2631 2963 
Q 2534 3019 2420 3045 
Q 2306 3072 2169 3072 
Q 1681 3072 1420 2755 
Q 1159 2438 1159 1844 
L 1159 0 
L 581 0 
L 581 3500 
L 1159 3500 
L 1159 2956 
Q 1341 3275 1631 3429 
Q 1922 3584 2338 3584 
Q 2397 3584 2469 3576 
Q 2541 3569 2628 3553 
L 2631 2963 
z
" transform="scale(0.015625)"/>
      <path id="DejaVuSans-61" d="M 2194 1759 
Q 1497 1759 1228 1600 
Q 959 1441 959 1056 
Q 959 750 1161 570 
Q 1363 391 1709 391 
Q 2188 391 2477 730 
Q 2766 1069 2766 1631 
L 2766 1759 
L 2194 1759 
z
M 3341 1997 
L 3341 0 
L 2766 0 
L 2766 531 
Q 2569 213 2275 61 
Q 1981 -91 1556 -91 
Q 1019 -91 701 211 
Q 384 513 384 1019 
Q 384 1609 779 1909 
Q 1175 2209 1959 2209 
L 2766 2209 
L 2766 2266 
Q 2766 2663 2505 2880 
Q 2244 3097 1772 3097 
Q 1472 3097 1187 3025 
Q 903 2953 641 2809 
L 641 3341 
Q 956 3463 1253 3523 
Q 1550 3584 1831 3584 
Q 2591 3584 2966 3190 
Q 3341 2797 3341 1997 
z
" transform="scale(0.015625)"/>
      <path id="DejaVuSans-69" d="M 603 3500 
L 1178 3500 
L 1178 0 
L 603 0 
L 603 3500 
z
M 603 4863 
L 1178 4863 
L 1178 4134 
L 603 4134 
L 603 4863 
z
" transform="scale(0.015625)"/>
      <path id="DejaVuSans-6e" d="M 3513 2113 
L 3513 0 
L 2938 0 
L 2938 2094 
Q 2938 2591 2744 2837 
Q 2550 3084 2163 3084 
Q 1697 3084 1428 2787 
Q 1159 2491 1159 1978 
L 1159 0 
L 581 0 
L 581 3500 
L 1159 3500 
L 1159 2956 
Q 1366 3272 1645 3428 
Q 1925 3584 2291 3584 
Q 2894 3584 3203 3211 
Q 3513 2838 3513 2113 
z
" transform="scale(0.015625)"/>
      <path id="DejaVuSans-67" d="M 2906 1791 
Q 2906 2416 2648 2759 
Q 2391 3103 1925 3103 
Q 1463 3103 1205 2759 
Q 947 2416 947 1791 
Q 947 1169 1205 825 
Q 1463 481 1925 481 
Q 2391 481 2648 825 
Q 2906 1169 2906 1791 
z
M 3481 434 
Q 3481 -459 3084 -895 
Q 2688 -1331 1869 -1331 
Q 1566 -1331 1297 -1286 
Q 1028 -1241 775 -1147 
L 775 -588 
Q 1028 -725 1275 -790 
Q 1522 -856 1778 -856 
Q 2344 -856 2625 -561 
Q 2906 -266 2906 331 
L 2906 616 
Q 2728 306 2450 153 
Q 2172 0 1784 0 
Q 1141 0 747 490 
Q 353 981 353 1791 
Q 353 2603 747 3093 
Q 1141 3584 1784 3584 
Q 2172 3584 2450 3431 
Q 2728 3278 2906 2969 
L 2906 3500 
L 3481 3500 
L 3481 434 
z
" transform="scale(0.015625)"/>
      <path id="DejaVuSans-20" transform="scale(0.015625)"/>
      <path id="DejaVuSans-64" d="M 2906 2969 
L 2906 4863 
L 3481 4863 
L 3481 0 
L 2906 0 
L 2906 525 
Q 2725 213 2448 61 
Q 2172 -91 1784 -91 
Q 1150 -91 751 415 
Q 353 922 353 1747 
Q 353 2572 751 3078 
Q 1150 3584 1784 3584 
Q 2172 3584 2448 3432 
Q 2725 3281 2906 2969 
z
M 947 1747 
Q 947 1113 1208 752 
Q 1469 391 1925 391 
Q 2381 391 2643 752 
Q 2906 1113 2906 1747 
Q 2906 2381 2643 2742 
Q 2381 3103 1925 3103 
Q 1469 3103 1208 2742 
Q 947 2381 947 1747 
z
" transform="scale(0.015625)"/>
      <path id="DejaVuSans-56" d="M 1831 0 
L 50 4666 
L 709 4666 
L 2188 738 
L 3669 4666 
L 4325 4666 
L 2547 0 
L 1831 0 
z
" transform="scale(0.015625)"/>
      <path id="DejaVuSans-6c" d="M 603 4863 
L 1178 4863 
L 1178 0 
L 603 0 
L 603 4863 
z
" transform="scale(0.015625)"/>
      <path id="DejaVuSans-74" d="M 1172 4494 
L 1172 3500 
L 2356 3500 
L 2356 3053 
L 1172 3053 
L 1172 1153 
Q 1172 725 1289 603 
Q 1406 481 1766 481 
L 2356 481 
L 2356 0 
L 1766 0 
Q 1100 0 847 248 
Q 594 497 594 1153 
L 594 3053 
L 172 3053 
L 172 3500 
L 594 3500 
L 594 4494 
L 1172 4494 
z
" transform="scale(0.015625)"/>
     </defs>
     <use xlink:href="#DejaVuSans-54"/>
     <use xlink:href="#DejaVuSans-72" x="46.333984"/>
     <use xlink:href="#DejaVuSans-61" x="87.447266"/>
     <use xlink:href="#DejaVuSans-69" x="148.726562"/>
     <use xlink:href="#DejaVuSans-6e" x="176.509766"/>
     <use xlink:href="#DejaVuSans-69" x="239.888672"/>
     <use xlink:href="#DejaVuSans-6e" x="267.671875"/>
     <use xlink:href="#DejaVuSans-67" x="331.050781"/>
     <use xlink:href="#DejaVuSans-20" x="394.527344"/>
     <use xlink:href="#DejaVuSans-61" x="426.314453"/>
     <use xlink:href="#DejaVuSans-6e" x="487.59375"/>
     <use xlink:href="#DejaVuSans-64" x="550.972656"/>
     <use xlink:href="#DejaVuSans-20" x="614.449219"/>
     <use xlink:href="#DejaVuSans-56" x="646.236328"/>
     <use xlink:href="#DejaVuSans-61" x="706.894531"/>
     <use xlink:href="#DejaVuSans-6c" x="768.173828"/>
     <use xlink:href="#DejaVuSans-69" x="795.957031"/>
     <use xlink:href="#DejaVuSans-64" x="823.740234"/>
     <use xlink:href="#DejaVuSans-61" x="887.216797"/>
     <use xlink:href="#DejaVuSans-74" x="948.496094"/>
     <use xlink:href="#DejaVuSans-69" x="987.705078"/>
     <use xlink:href="#DejaVuSans-6f" x="1015.488281"/>
     <use xlink:href="#DejaVuSans-6e" x="1076.669922"/>
     <use xlink:href="#DejaVuSans-20" x="1140.048828"/>
     <use xlink:href="#DejaVuSans-4c" x="1171.835938"/>
     <use xlink:href="#DejaVuSans-6f" x="1225.798828"/>
     <use xlink:href="#DejaVuSans-73" x="1286.980469"/>
     <use xlink:href="#DejaVuSans-73" x="1339.080078"/>
    </g>
   </g>
   <g id="legend_1">
    <g id="patch_7">
     <path d="M 301.22625 78.82825 
L 407.72 78.82825 
Q 409.72 78.82825 409.72 76.82825 
L 409.72 48.472 
Q 409.72 46.472 407.72 46.472 
L 301.22625 46.472 
Q 299.22625 46.472 299.22625 48.472 
L 299.22625 76.82825 
Q 299.22625 78.82825 301.22625 78.82825 
z
" style="fill: #ffffff; opacity: 0.8; stroke: #cccccc; stroke-linejoin: miter"/>
    </g>
    <g id="line2d_13">
     <path d="M 303.22625 54.570437 
L 313.22625 54.570437 
L 323.22625 54.570437 
" style="fill: none; stroke: #1f77b4; stroke-width: 1.5; stroke-linecap: square"/>
    </g>
    <g id="text_14">
     <!-- Training Loss -->
     <g transform="translate(331.22625 58.070437) scale(0.1 -0.1)">
      <use xlink:href="#DejaVuSans-54"/>
      <use xlink:href="#DejaVuSans-72" x="46.333984"/>
      <use xlink:href="#DejaVuSans-61" x="87.447266"/>
      <use xlink:href="#DejaVuSans-69" x="148.726562"/>
      <use xlink:href="#DejaVuSans-6e" x="176.509766"/>
      <use xlink:href="#DejaVuSans-69" x="239.888672"/>
      <use xlink:href="#DejaVuSans-6e" x="267.671875"/>
      <use xlink:href="#DejaVuSans-67" x="331.050781"/>
      <use xlink:href="#DejaVuSans-20" x="394.527344"/>
      <use xlink:href="#DejaVuSans-4c" x="426.314453"/>
      <use xlink:href="#DejaVuSans-6f" x="480.277344"/>
      <use xlink:href="#DejaVuSans-73" x="541.458984"/>
      <use xlink:href="#DejaVuSans-73" x="593.558594"/>
     </g>
    </g>
    <g id="line2d_14">
     <path d="M 303.22625 69.248562 
L 313.22625 69.248562 
L 323.22625 69.248562 
" style="fill: none; stroke: #ff7f0e; stroke-width: 1.5; stroke-linecap: square"/>
    </g>
    <g id="text_15">
     <!-- Validation Loss -->
     <g transform="translate(331.22625 72.748562) scale(0.1 -0.1)">
      <use xlink:href="#DejaVuSans-56"/>
      <use xlink:href="#DejaVuSans-61" x="60.658203"/>
      <use xlink:href="#DejaVuSans-6c" x="121.9375"/>
      <use xlink:href="#DejaVuSans-69" x="149.720703"/>
      <use xlink:href="#DejaVuSans-64" x="177.503906"/>
      <use xlink:href="#DejaVuSans-61" x="240.980469"/>
      <use xlink:href="#DejaVuSans-74" x="302.259766"/>
      <use xlink:href="#DejaVuSans-69" x="341.46875"/>
      <use xlink:href="#DejaVuSans-6f" x="369.251953"/>
      <use xlink:href="#DejaVuSans-6e" x="430.433594"/>
      <use xlink:href="#DejaVuSans-20" x="493.8125"/>
      <use xlink:href="#DejaVuSans-4c" x="525.599609"/>
      <use xlink:href="#DejaVuSans-6f" x="579.5625"/>
      <use xlink:href="#DejaVuSans-73" x="640.744141"/>
      <use xlink:href="#DejaVuSans-73" x="692.84375"/>
     </g>
    </g>
   </g>
  </g>
 </g>
 <defs>
  <clipPath id="p02608591b8">
   <rect x="57.6" y="41.472" width="357.12" height="266.112"/>
  </clipPath>
 </defs>
</svg>
