<?xml version="1.0" encoding="utf-8" standalone="no"?>
<!DOCTYPE svg PUBLIC "-//W3C//DTD SVG 1.1//EN"
  "http://www.w3.org/Graphics/SVG/1.1/DTD/svg11.dtd">
<svg xmlns:xlink="http://www.w3.org/1999/xlink" width="460.8pt" height="345.6pt" viewBox="0 0 460.8 345.6" xmlns="http://www.w3.org/2000/svg" version="1.1">
 <metadata>
  <rdf:RDF xmlns:dc="http://purl.org/dc/elements/1.1/" xmlns:cc="http://creativecommons.org/ns#" xmlns:rdf="http://www.w3.org/1999/02/22-rdf-syntax-ns#">
   <cc:Work>
    <dc:type rdf:resource="http://purl.org/dc/dcmitype/StillImage"/>
    <dc:date>2023-07-15T20:09:26.011958</dc:date>
    <dc:format>image/svg+xml</dc:format>
    <dc:creator>
     <cc:Agent>
      <dc:title>Matplotlib v3.7.1, https://matplotlib.org/</dc:title>
     </cc:Agent>
    </dc:creator>
   </cc:Work>
  </rdf:RDF>
 </metadata>
 <defs>
  <style type="text/css">*{stroke-linejoin: round; stroke-linecap: butt}</style>
 </defs>
 <g id="figure_1">
  <g id="patch_1">
   <path d="M 0 345.6 
L 460.8 345.6 
L 460.8 0 
L 0 0 
z
" style="fill: #ffffff"/>
  </g>
  <g id="axes_1">
   <g id="patch_2">
    <path d="M 57.6 307.584 
L 414.72 307.584 
L 414.72 41.472 
L 57.6 41.472 
z
" style="fill: #ffffff"/>
   </g>
   <g id="matplotlib.axis_1">
    <g id="xtick_1">
     <g id="line2d_1">
      <defs>
       <path id="mdb5feb7b55" d="M 0 0 
L 0 3.5 
" style="stroke: #000000; stroke-width: 0.8"/>
      </defs>
      <g>
       <use xlink:href="#mdb5feb7b55" x="73.182117" y="307.584" style="stroke: #000000; stroke-width: 0.8"/>
      </g>
     </g>
     <g id="text_1">
      <!-- 0 -->
      <g transform="translate(70.000867 322.182437) scale(0.1 -0.1)">
       <defs>
        <path id="DejaVuSans-30" d="M 2034 4250 
Q 1547 4250 1301 3770 
Q 1056 3291 1056 2328 
Q 1056 1369 1301 889 
Q 1547 409 2034 409 
Q 2525 409 2770 889 
Q 3016 1369 3016 2328 
Q 3016 3291 2770 3770 
Q 2525 4250 2034 4250 
z
M 2034 4750 
Q 2819 4750 3233 4129 
Q 3647 3509 3647 2328 
Q 3647 1150 3233 529 
Q 2819 -91 2034 -91 
Q 1250 -91 836 529 
Q 422 1150 422 2328 
Q 422 3509 836 4129 
Q 1250 4750 2034 4750 
z
" transform="scale(0.015625)"/>
       </defs>
       <use xlink:href="#DejaVuSans-30"/>
      </g>
     </g>
    </g>
    <g id="xtick_2">
     <g id="line2d_2">
      <g>
       <use xlink:href="#mdb5feb7b55" x="138.243148" y="307.584" style="stroke: #000000; stroke-width: 0.8"/>
      </g>
     </g>
     <g id="text_2">
      <!-- 100 -->
      <g transform="translate(128.699398 322.182437) scale(0.1 -0.1)">
       <defs>
        <path id="DejaVuSans-31" d="M 794 531 
L 1825 531 
L 1825 4091 
L 703 3866 
L 703 4441 
L 1819 4666 
L 2450 4666 
L 2450 531 
L 3481 531 
L 3481 0 
L 794 0 
L 794 531 
z
" transform="scale(0.015625)"/>
       </defs>
       <use xlink:href="#DejaVuSans-31"/>
       <use xlink:href="#DejaVuSans-30" x="63.623047"/>
       <use xlink:href="#DejaVuSans-30" x="127.246094"/>
      </g>
     </g>
    </g>
    <g id="xtick_3">
     <g id="line2d_3">
      <g>
       <use xlink:href="#mdb5feb7b55" x="203.304179" y="307.584" style="stroke: #000000; stroke-width: 0.8"/>
      </g>
     </g>
     <g id="text_3">
      <!-- 200 -->
      <g transform="translate(193.760429 322.182437) scale(0.1 -0.1)">
       <defs>
        <path id="DejaVuSans-32" d="M 1228 531 
L 3431 531 
L 3431 0 
L 469 0 
L 469 531 
Q 828 903 1448 1529 
Q 2069 2156 2228 2338 
Q 2531 2678 2651 2914 
Q 2772 3150 2772 3378 
Q 2772 3750 2511 3984 
Q 2250 4219 1831 4219 
Q 1534 4219 1204 4116 
Q 875 4013 500 3803 
L 500 4441 
Q 881 4594 1212 4672 
Q 1544 4750 1819 4750 
Q 2544 4750 2975 4387 
Q 3406 4025 3406 3419 
Q 3406 3131 3298 2873 
Q 3191 2616 2906 2266 
Q 2828 2175 2409 1742 
Q 1991 1309 1228 531 
z
" transform="scale(0.015625)"/>
       </defs>
       <use xlink:href="#DejaVuSans-32"/>
       <use xlink:href="#DejaVuSans-30" x="63.623047"/>
       <use xlink:href="#DejaVuSans-30" x="127.246094"/>
      </g>
     </g>
    </g>
    <g id="xtick_4">
     <g id="line2d_4">
      <g>
       <use xlink:href="#mdb5feb7b55" x="268.36521" y="307.584" style="stroke: #000000; stroke-width: 0.8"/>
      </g>
     </g>
     <g id="text_4">
      <!-- 300 -->
      <g transform="translate(258.82146 322.182437) scale(0.1 -0.1)">
       <defs>
        <path id="DejaVuSans-33" d="M 2597 2516 
Q 3050 2419 3304 2112 
Q 3559 1806 3559 1356 
Q 3559 666 3084 287 
Q 2609 -91 1734 -91 
Q 1441 -91 1130 -33 
Q 819 25 488 141 
L 488 750 
Q 750 597 1062 519 
Q 1375 441 1716 441 
Q 2309 441 2620 675 
Q 2931 909 2931 1356 
Q 2931 1769 2642 2001 
Q 2353 2234 1838 2234 
L 1294 2234 
L 1294 2753 
L 1863 2753 
Q 2328 2753 2575 2939 
Q 2822 3125 2822 3475 
Q 2822 3834 2567 4026 
Q 2313 4219 1838 4219 
Q 1578 4219 1281 4162 
Q 984 4106 628 3988 
L 628 4550 
Q 988 4650 1302 4700 
Q 1616 4750 1894 4750 
Q 2613 4750 3031 4423 
Q 3450 4097 3450 3541 
Q 3450 3153 3228 2886 
Q 3006 2619 2597 2516 
z
" transform="scale(0.015625)"/>
       </defs>
       <use xlink:href="#DejaVuSans-33"/>
       <use xlink:href="#DejaVuSans-30" x="63.623047"/>
       <use xlink:href="#DejaVuSans-30" x="127.246094"/>
      </g>
     </g>
    </g>
    <g id="xtick_5">
     <g id="line2d_5">
      <g>
       <use xlink:href="#mdb5feb7b55" x="333.426242" y="307.584" style="stroke: #000000; stroke-width: 0.8"/>
      </g>
     </g>
     <g id="text_5">
      <!-- 400 -->
      <g transform="translate(323.882492 322.182437) scale(0.1 -0.1)">
       <defs>
        <path id="DejaVuSans-34" d="M 2419 4116 
L 825 1625 
L 2419 1625 
L 2419 4116 
z
M 2253 4666 
L 3047 4666 
L 3047 1625 
L 3713 1625 
L 3713 1100 
L 3047 1100 
L 3047 0 
L 2419 0 
L 2419 1100 
L 313 1100 
L 313 1709 
L 2253 4666 
z
" transform="scale(0.015625)"/>
       </defs>
       <use xlink:href="#DejaVuSans-34"/>
       <use xlink:href="#DejaVuSans-30" x="63.623047"/>
       <use xlink:href="#DejaVuSans-30" x="127.246094"/>
      </g>
     </g>
    </g>
    <g id="xtick_6">
     <g id="line2d_6">
      <g>
       <use xlink:href="#mdb5feb7b55" x="398.487273" y="307.584" style="stroke: #000000; stroke-width: 0.8"/>
      </g>
     </g>
     <g id="text_6">
      <!-- 500 -->
      <g transform="translate(388.943523 322.182437) scale(0.1 -0.1)">
       <defs>
        <path id="DejaVuSans-35" d="M 691 4666 
L 3169 4666 
L 3169 4134 
L 1269 4134 
L 1269 2991 
Q 1406 3038 1543 3061 
Q 1681 3084 1819 3084 
Q 2600 3084 3056 2656 
Q 3513 2228 3513 1497 
Q 3513 744 3044 326 
Q 2575 -91 1722 -91 
Q 1428 -91 1123 -41 
Q 819 9 494 109 
L 494 744 
Q 775 591 1075 516 
Q 1375 441 1709 441 
Q 2250 441 2565 725 
Q 2881 1009 2881 1497 
Q 2881 1984 2565 2268 
Q 2250 2553 1709 2553 
Q 1456 2553 1204 2497 
Q 953 2441 691 2322 
L 691 4666 
z
" transform="scale(0.015625)"/>
       </defs>
       <use xlink:href="#DejaVuSans-35"/>
       <use xlink:href="#DejaVuSans-30" x="63.623047"/>
       <use xlink:href="#DejaVuSans-30" x="127.246094"/>
      </g>
     </g>
    </g>
    <g id="text_7">
     <!-- Epoch -->
     <g transform="translate(220.849063 335.860562) scale(0.1 -0.1)">
      <defs>
       <path id="DejaVuSans-45" d="M 628 4666 
L 3578 4666 
L 3578 4134 
L 1259 4134 
L 1259 2753 
L 3481 2753 
L 3481 2222 
L 1259 2222 
L 1259 531 
L 3634 531 
L 3634 0 
L 628 0 
L 628 4666 
z
" transform="scale(0.015625)"/>
       <path id="DejaVuSans-70" d="M 1159 525 
L 1159 -1331 
L 581 -1331 
L 581 3500 
L 1159 3500 
L 1159 2969 
Q 1341 3281 1617 3432 
Q 1894 3584 2278 3584 
Q 2916 3584 3314 3078 
Q 3713 2572 3713 1747 
Q 3713 922 3314 415 
Q 2916 -91 2278 -91 
Q 1894 -91 1617 61 
Q 1341 213 1159 525 
z
M 3116 1747 
Q 3116 2381 2855 2742 
Q 2594 3103 2138 3103 
Q 1681 3103 1420 2742 
Q 1159 2381 1159 1747 
Q 1159 1113 1420 752 
Q 1681 391 2138 391 
Q 2594 391 2855 752 
Q 3116 1113 3116 1747 
z
" transform="scale(0.015625)"/>
       <path id="DejaVuSans-6f" d="M 1959 3097 
Q 1497 3097 1228 2736 
Q 959 2375 959 1747 
Q 959 1119 1226 758 
Q 1494 397 1959 397 
Q 2419 397 2687 759 
Q 2956 1122 2956 1747 
Q 2956 2369 2687 2733 
Q 2419 3097 1959 3097 
z
M 1959 3584 
Q 2709 3584 3137 3096 
Q 3566 2609 3566 1747 
Q 3566 888 3137 398 
Q 2709 -91 1959 -91 
Q 1206 -91 779 398 
Q 353 888 353 1747 
Q 353 2609 779 3096 
Q 1206 3584 1959 3584 
z
" transform="scale(0.015625)"/>
       <path id="DejaVuSans-63" d="M 3122 3366 
L 3122 2828 
Q 2878 2963 2633 3030 
Q 2388 3097 2138 3097 
Q 1578 3097 1268 2742 
Q 959 2388 959 1747 
Q 959 1106 1268 751 
Q 1578 397 2138 397 
Q 2388 397 2633 464 
Q 2878 531 3122 666 
L 3122 134 
Q 2881 22 2623 -34 
Q 2366 -91 2075 -91 
Q 1284 -91 818 406 
Q 353 903 353 1747 
Q 353 2603 823 3093 
Q 1294 3584 2113 3584 
Q 2378 3584 2631 3529 
Q 2884 3475 3122 3366 
z
" transform="scale(0.015625)"/>
       <path id="DejaVuSans-68" d="M 3513 2113 
L 3513 0 
L 2938 0 
L 2938 2094 
Q 2938 2591 2744 2837 
Q 2550 3084 2163 3084 
Q 1697 3084 1428 2787 
Q 1159 2491 1159 1978 
L 1159 0 
L 581 0 
L 581 4863 
L 1159 4863 
L 1159 2956 
Q 1366 3272 1645 3428 
Q 1925 3584 2291 3584 
Q 2894 3584 3203 3211 
Q 3513 2838 3513 2113 
z
" transform="scale(0.015625)"/>
      </defs>
      <use xlink:href="#DejaVuSans-45"/>
      <use xlink:href="#DejaVuSans-70" x="63.183594"/>
      <use xlink:href="#DejaVuSans-6f" x="126.660156"/>
      <use xlink:href="#DejaVuSans-63" x="187.841797"/>
      <use xlink:href="#DejaVuSans-68" x="242.822266"/>
     </g>
    </g>
   </g>
   <g id="matplotlib.axis_2">
    <g id="ytick_1">
     <g id="line2d_7">
      <defs>
       <path id="mb463b10b36" d="M 0 0 
L -3.5 0 
" style="stroke: #000000; stroke-width: 0.8"/>
      </defs>
      <g>
       <use xlink:href="#mb463b10b36" x="57.6" y="295.930881" style="stroke: #000000; stroke-width: 0.8"/>
      </g>
     </g>
     <g id="text_8">
      <!-- 0.62 -->
      <g transform="translate(28.334375 299.730099) scale(0.1 -0.1)">
       <defs>
        <path id="DejaVuSans-2e" d="M 684 794 
L 1344 794 
L 1344 0 
L 684 0 
L 684 794 
z
" transform="scale(0.015625)"/>
        <path id="DejaVuSans-36" d="M 2113 2584 
Q 1688 2584 1439 2293 
Q 1191 2003 1191 1497 
Q 1191 994 1439 701 
Q 1688 409 2113 409 
Q 2538 409 2786 701 
Q 3034 994 3034 1497 
Q 3034 2003 2786 2293 
Q 2538 2584 2113 2584 
z
M 3366 4563 
L 3366 3988 
Q 3128 4100 2886 4159 
Q 2644 4219 2406 4219 
Q 1781 4219 1451 3797 
Q 1122 3375 1075 2522 
Q 1259 2794 1537 2939 
Q 1816 3084 2150 3084 
Q 2853 3084 3261 2657 
Q 3669 2231 3669 1497 
Q 3669 778 3244 343 
Q 2819 -91 2113 -91 
Q 1303 -91 875 529 
Q 447 1150 447 2328 
Q 447 3434 972 4092 
Q 1497 4750 2381 4750 
Q 2619 4750 2861 4703 
Q 3103 4656 3366 4563 
z
" transform="scale(0.015625)"/>
       </defs>
       <use xlink:href="#DejaVuSans-30"/>
       <use xlink:href="#DejaVuSans-2e" x="63.623047"/>
       <use xlink:href="#DejaVuSans-36" x="95.410156"/>
       <use xlink:href="#DejaVuSans-32" x="159.033203"/>
      </g>
     </g>
    </g>
    <g id="ytick_2">
     <g id="line2d_8">
      <g>
       <use xlink:href="#mb463b10b36" x="57.6" y="261.388672" style="stroke: #000000; stroke-width: 0.8"/>
      </g>
     </g>
     <g id="text_9">
      <!-- 0.63 -->
      <g transform="translate(28.334375 265.187891) scale(0.1 -0.1)">
       <use xlink:href="#DejaVuSans-30"/>
       <use xlink:href="#DejaVuSans-2e" x="63.623047"/>
       <use xlink:href="#DejaVuSans-36" x="95.410156"/>
       <use xlink:href="#DejaVuSans-33" x="159.033203"/>
      </g>
     </g>
    </g>
    <g id="ytick_3">
     <g id="line2d_9">
      <g>
       <use xlink:href="#mb463b10b36" x="57.6" y="226.846463" style="stroke: #000000; stroke-width: 0.8"/>
      </g>
     </g>
     <g id="text_10">
      <!-- 0.64 -->
      <g transform="translate(28.334375 230.645682) scale(0.1 -0.1)">
       <use xlink:href="#DejaVuSans-30"/>
       <use xlink:href="#DejaVuSans-2e" x="63.623047"/>
       <use xlink:href="#DejaVuSans-36" x="95.410156"/>
       <use xlink:href="#DejaVuSans-34" x="159.033203"/>
      </g>
     </g>
    </g>
    <g id="ytick_4">
     <g id="line2d_10">
      <g>
       <use xlink:href="#mb463b10b36" x="57.6" y="192.304254" style="stroke: #000000; stroke-width: 0.8"/>
      </g>
     </g>
     <g id="text_11">
      <!-- 0.65 -->
      <g transform="translate(28.334375 196.103473) scale(0.1 -0.1)">
       <use xlink:href="#DejaVuSans-30"/>
       <use xlink:href="#DejaVuSans-2e" x="63.623047"/>
       <use xlink:href="#DejaVuSans-36" x="95.410156"/>
       <use xlink:href="#DejaVuSans-35" x="159.033203"/>
      </g>
     </g>
    </g>
    <g id="ytick_5">
     <g id="line2d_11">
      <g>
       <use xlink:href="#mb463b10b36" x="57.6" y="157.762045" style="stroke: #000000; stroke-width: 0.8"/>
      </g>
     </g>
     <g id="text_12">
      <!-- 0.66 -->
      <g transform="translate(28.334375 161.561264) scale(0.1 -0.1)">
       <use xlink:href="#DejaVuSans-30"/>
       <use xlink:href="#DejaVuSans-2e" x="63.623047"/>
       <use xlink:href="#DejaVuSans-36" x="95.410156"/>
       <use xlink:href="#DejaVuSans-36" x="159.033203"/>
      </g>
     </g>
    </g>
    <g id="ytick_6">
     <g id="line2d_12">
      <g>
       <use xlink:href="#mb463b10b36" x="57.6" y="123.219836" style="stroke: #000000; stroke-width: 0.8"/>
      </g>
     </g>
     <g id="text_13">
      <!-- 0.67 -->
      <g transform="translate(28.334375 127.019055) scale(0.1 -0.1)">
       <defs>
        <path id="DejaVuSans-37" d="M 525 4666 
L 3525 4666 
L 3525 4397 
L 1831 0 
L 1172 0 
L 2766 4134 
L 525 4134 
L 525 4666 
z
" transform="scale(0.015625)"/>
       </defs>
       <use xlink:href="#DejaVuSans-30"/>
       <use xlink:href="#DejaVuSans-2e" x="63.623047"/>
       <use xlink:href="#DejaVuSans-36" x="95.410156"/>
       <use xlink:href="#DejaVuSans-37" x="159.033203"/>
      </g>
     </g>
    </g>
    <g id="ytick_7">
     <g id="line2d_13">
      <g>
       <use xlink:href="#mb463b10b36" x="57.6" y="88.677627" style="stroke: #000000; stroke-width: 0.8"/>
      </g>
     </g>
     <g id="text_14">
      <!-- 0.68 -->
      <g transform="translate(28.334375 92.476846) scale(0.1 -0.1)">
       <defs>
        <path id="DejaVuSans-38" d="M 2034 2216 
Q 1584 2216 1326 1975 
Q 1069 1734 1069 1313 
Q 1069 891 1326 650 
Q 1584 409 2034 409 
Q 2484 409 2743 651 
Q 3003 894 3003 1313 
Q 3003 1734 2745 1975 
Q 2488 2216 2034 2216 
z
M 1403 2484 
Q 997 2584 770 2862 
Q 544 3141 544 3541 
Q 544 4100 942 4425 
Q 1341 4750 2034 4750 
Q 2731 4750 3128 4425 
Q 3525 4100 3525 3541 
Q 3525 3141 3298 2862 
Q 3072 2584 2669 2484 
Q 3125 2378 3379 2068 
Q 3634 1759 3634 1313 
Q 3634 634 3220 271 
Q 2806 -91 2034 -91 
Q 1263 -91 848 271 
Q 434 634 434 1313 
Q 434 1759 690 2068 
Q 947 2378 1403 2484 
z
M 1172 3481 
Q 1172 3119 1398 2916 
Q 1625 2713 2034 2713 
Q 2441 2713 2670 2916 
Q 2900 3119 2900 3481 
Q 2900 3844 2670 4047 
Q 2441 4250 2034 4250 
Q 1625 4250 1398 4047 
Q 1172 3844 1172 3481 
z
" transform="scale(0.015625)"/>
       </defs>
       <use xlink:href="#DejaVuSans-30"/>
       <use xlink:href="#DejaVuSans-2e" x="63.623047"/>
       <use xlink:href="#DejaVuSans-36" x="95.410156"/>
       <use xlink:href="#DejaVuSans-38" x="159.033203"/>
      </g>
     </g>
    </g>
    <g id="ytick_8">
     <g id="line2d_14">
      <g>
       <use xlink:href="#mb463b10b36" x="57.6" y="54.135418" style="stroke: #000000; stroke-width: 0.8"/>
      </g>
     </g>
     <g id="text_15">
      <!-- 0.69 -->
      <g transform="translate(28.334375 57.934637) scale(0.1 -0.1)">
       <defs>
        <path id="DejaVuSans-39" d="M 703 97 
L 703 672 
Q 941 559 1184 500 
Q 1428 441 1663 441 
Q 2288 441 2617 861 
Q 2947 1281 2994 2138 
Q 2813 1869 2534 1725 
Q 2256 1581 1919 1581 
Q 1219 1581 811 2004 
Q 403 2428 403 3163 
Q 403 3881 828 4315 
Q 1253 4750 1959 4750 
Q 2769 4750 3195 4129 
Q 3622 3509 3622 2328 
Q 3622 1225 3098 567 
Q 2575 -91 1691 -91 
Q 1453 -91 1209 -44 
Q 966 3 703 97 
z
M 1959 2075 
Q 2384 2075 2632 2365 
Q 2881 2656 2881 3163 
Q 2881 3666 2632 3958 
Q 2384 4250 1959 4250 
Q 1534 4250 1286 3958 
Q 1038 3666 1038 3163 
Q 1038 2656 1286 2365 
Q 1534 2075 1959 2075 
z
" transform="scale(0.015625)"/>
       </defs>
       <use xlink:href="#DejaVuSans-30"/>
       <use xlink:href="#DejaVuSans-2e" x="63.623047"/>
       <use xlink:href="#DejaVuSans-36" x="95.410156"/>
       <use xlink:href="#DejaVuSans-39" x="159.033203"/>
      </g>
     </g>
    </g>
    <g id="text_16">
     <!-- Loss -->
     <g transform="translate(22.254688 185.495187) rotate(-90) scale(0.1 -0.1)">
      <defs>
       <path id="DejaVuSans-4c" d="M 628 4666 
L 1259 4666 
L 1259 531 
L 3531 531 
L 3531 0 
L 628 0 
L 628 4666 
z
" transform="scale(0.015625)"/>
       <path id="DejaVuSans-73" d="M 2834 3397 
L 2834 2853 
Q 2591 2978 2328 3040 
Q 2066 3103 1784 3103 
Q 1356 3103 1142 2972 
Q 928 2841 928 2578 
Q 928 2378 1081 2264 
Q 1234 2150 1697 2047 
L 1894 2003 
Q 2506 1872 2764 1633 
Q 3022 1394 3022 966 
Q 3022 478 2636 193 
Q 2250 -91 1575 -91 
Q 1294 -91 989 -36 
Q 684 19 347 128 
L 347 722 
Q 666 556 975 473 
Q 1284 391 1588 391 
Q 1994 391 2212 530 
Q 2431 669 2431 922 
Q 2431 1156 2273 1281 
Q 2116 1406 1581 1522 
L 1381 1569 
Q 847 1681 609 1914 
Q 372 2147 372 2553 
Q 372 3047 722 3315 
Q 1072 3584 1716 3584 
Q 2034 3584 2315 3537 
Q 2597 3491 2834 3397 
z
" transform="scale(0.015625)"/>
      </defs>
      <use xlink:href="#DejaVuSans-4c"/>
      <use xlink:href="#DejaVuSans-6f" x="53.962891"/>
      <use xlink:href="#DejaVuSans-73" x="115.144531"/>
      <use xlink:href="#DejaVuSans-73" x="167.244141"/>
     </g>
    </g>
   </g>
   <g id="line2d_15">
    <path d="M 73.832727 157.656226 
L 74.483338 214.433753 
L 75.133948 234.290061 
L 75.784558 203.723227 
L 76.435169 251.773282 
L 77.085779 193.552719 
L 77.736389 254.336988 
L 78.386999 232.824691 
L 79.03761 229.513379 
L 79.68822 249.508816 
L 80.33883 262.199602 
L 80.989441 251.676526 
L 81.640051 245.027804 
L 82.941272 239.04623 
L 83.591882 239.960254 
L 84.242492 246.167615 
L 84.893103 254.578469 
L 85.543713 261.063788 
L 86.194323 263.418262 
L 86.844934 258.504643 
L 87.495544 251.033355 
L 88.146154 246.42485 
L 88.796764 245.249868 
L 89.447375 247.147203 
L 90.097985 252.564079 
L 90.748595 258.933621 
L 91.399206 263.915039 
L 92.049816 264.065769 
L 92.700426 261.024678 
L 94.001647 247.440461 
L 94.652257 243.920975 
L 95.302868 244.973813 
L 95.953478 251.15121 
L 97.254698 267.978557 
L 97.905309 269.910745 
L 98.555919 268.833387 
L 99.85714 255.136668 
L 100.50775 247.33233 
L 101.15836 243.881355 
L 101.808971 244.303269 
L 102.459581 255.739334 
L 103.110191 258.051901 
L 103.760802 276.297333 
L 105.062022 267.452093 
L 106.363243 253.595401 
L 107.013853 245.333252 
L 107.664463 241.590499 
L 108.315074 246.094504 
L 110.266905 272.90778 
L 110.917515 277.095836 
L 111.568125 277.616123 
L 112.218736 269.502009 
L 112.869346 263.566383 
L 113.519956 253.99272 
L 114.821177 240.085062 
L 115.471787 253.649193 
L 116.122398 263.351919 
L 116.773008 271.278603 
L 117.423618 289.253741 
L 118.724839 269.54231 
L 120.026059 249.146511 
L 120.67667 241.478588 
L 121.32728 236.643514 
L 121.97789 242.163158 
L 122.628501 249.258243 
L 123.929721 269.280566 
L 124.580332 273.526512 
L 125.230942 275.285144 
L 125.881552 264.521174 
L 126.532163 258.081349 
L 127.182773 248.32417 
L 127.833383 241.775507 
L 128.483993 241.064437 
L 129.134604 250.224568 
L 129.785214 240.669329 
L 130.435824 243.564769 
L 131.737045 267.538823 
L 132.387655 271.16186 
L 133.038266 267.49876 
L 133.688876 256.847162 
L 134.990097 227.847766 
L 135.640707 218.004298 
L 136.291317 214.66106 
L 136.941927 218.909152 
L 137.592538 229.817867 
L 138.243148 246.355188 
L 138.893758 259.186239 
L 139.544369 268.816824 
L 140.194979 267.536034 
L 140.845589 260.994368 
L 142.79742 221.534228 
L 143.448031 216.226699 
L 144.098641 218.275209 
L 144.749251 229.636854 
L 146.050472 259.495765 
L 146.701082 270.58063 
L 147.351692 274.054264 
L 148.002303 264.82375 
L 148.652913 258.333434 
L 149.303523 248.516117 
L 149.954134 234.085422 
L 150.604744 222.532751 
L 151.255354 216.60209 
L 151.905965 216.83546 
L 152.556575 223.902879 
L 153.207185 234.390116 
L 154.508406 258.750462 
L 155.159016 263.671411 
L 155.809627 263.778693 
L 156.460237 255.234068 
L 158.412068 214.440791 
L 159.062678 206.413079 
L 159.713288 205.992036 
L 160.363899 213.554145 
L 161.665119 241.917201 
L 162.31573 256.608035 
L 162.96634 263.014848 
L 163.61695 262.907487 
L 164.267561 256.265978 
L 164.918171 244.217659 
L 166.219392 215.436048 
L 166.870002 204.037598 
L 167.520612 198.328789 
L 168.171222 199.514723 
L 168.821833 206.79321 
L 170.123053 236.412041 
L 170.773664 251.77625 
L 171.424274 261.349465 
L 172.074884 264.098739 
L 172.725495 260.232168 
L 173.376105 249.572395 
L 175.327936 202.127953 
L 175.978546 193.187605 
L 176.629156 191.958079 
L 177.279767 199.41223 
L 177.930377 213.802749 
L 179.231598 247.913233 
L 179.882208 261.288132 
L 180.532818 264.672275 
L 181.183429 262.410079 
L 181.834039 252.22776 
L 184.43648 193.361257 
L 185.087091 186.197709 
L 185.737701 185.652577 
L 186.388311 192.32826 
L 187.038921 204.723106 
L 188.990752 252.896953 
L 189.641363 262.434902 
L 190.291973 264.790842 
L 190.942583 259.077704 
L 191.593194 247.740381 
L 193.545025 196.054845 
L 194.195635 184.326817 
L 194.846245 179.417362 
L 195.496856 183.076163 
L 196.147466 194.456679 
L 198.099297 248.991745 
L 198.749907 260.702528 
L 199.400517 264.673373 
L 200.051128 262.365572 
L 200.701738 252.384679 
L 201.352348 238.237718 
L 202.653569 204.32291 
L 203.304179 189.354369 
L 203.95479 178.606232 
L 204.6054 173.654391 
L 205.25601 175.180863 
L 205.906621 183.497542 
L 206.557231 197.53278 
L 208.509062 249.222604 
L 209.159672 260.932627 
L 209.810282 264.485522 
L 210.460893 263.341312 
L 211.111503 253.225234 
L 211.762113 238.23027 
L 213.713944 184.766139 
L 214.364555 173.189266 
L 215.015165 168.9122 
L 215.665775 172.780463 
L 216.316385 184.254439 
L 216.966996 201.656868 
L 218.268216 240.911921 
L 218.918827 256.172673 
L 219.569437 265.660682 
L 220.220047 264.892036 
L 220.870658 260.005585 
L 221.521268 248.794506 
L 224.77432 171.302121 
L 225.42493 165.138207 
L 226.07554 164.970846 
L 226.72615 171.629342 
L 227.376761 183.407025 
L 228.677981 219.597064 
L 229.328592 238.426213 
L 229.979202 253.71425 
L 230.629812 264.433356 
L 231.280423 268.009735 
L 231.931033 265.036455 
L 232.581643 254.537111 
L 233.882864 221.951242 
L 235.184085 185.078838 
L 235.834695 171.415551 
L 236.485305 137.64846 
L 237.135915 146.219313 
L 237.786526 160.918866 
L 239.087746 202.477207 
L 240.388967 243.114607 
L 241.039577 254.202934 
L 241.690188 259.301437 
L 242.340798 257.063829 
L 242.991408 248.139251 
L 243.642019 235.662108 
L 245.59385 186.123454 
L 246.24446 172.834993 
L 246.89507 162.526947 
L 247.54568 156.724254 
L 248.196291 156.116198 
L 248.846901 161.246358 
L 249.497511 172.103087 
L 250.148122 186.888205 
L 252.099953 242.428995 
L 252.750563 256.33859 
L 253.401173 265.154047 
L 254.051784 268.030234 
L 254.702394 262.244862 
L 255.353004 252.961282 
L 256.003615 237.297152 
L 258.606056 163.691212 
L 259.256666 153.643859 
L 259.907276 150.510028 
L 260.557887 154.961313 
L 261.208497 166.863491 
L 262.509718 205.582998 
L 263.160328 228.642749 
L 263.810938 247.326129 
L 264.461549 260.845471 
L 265.112159 269.723509 
L 265.762769 271.14064 
L 266.413379 264.281307 
L 267.06399 253.662192 
L 267.7146 239.348863 
L 270.317041 170.187743 
L 270.967652 158.195441 
L 271.618262 149.931969 
L 272.268872 147.995268 
L 272.919483 153.034965 
L 273.570093 164.371581 
L 274.220703 179.512134 
L 276.823144 252.35559 
L 277.473755 264.951197 
L 278.124365 270.963315 
L 278.774975 270.750772 
L 279.425586 263.607763 
L 280.076196 251.607469 
L 281.377417 214.834885 
L 282.678637 175.12475 
L 283.329248 159.492315 
L 283.979858 148.66143 
L 284.630468 144.626015 
L 285.281079 147.873549 
L 285.931689 158.930987 
L 286.582299 175.212165 
L 289.18474 256.227755 
L 289.835351 267.952646 
L 290.485961 272.65195 
L 291.136571 269.868834 
L 291.787182 263.026613 
L 292.437792 250.958439 
L 295.690844 162.9384 
L 296.341454 150.966169 
L 296.992064 143.387879 
L 297.642674 141.19013 
L 298.293285 144.984048 
L 298.943895 154.020166 
L 299.594505 167.939433 
L 300.895726 206.343426 
L 302.196947 246.145874 
L 302.847557 261.344621 
L 303.498167 269.305239 
L 304.148778 274.321503 
L 304.799388 272.074305 
L 305.449998 264.130943 
L 306.751219 232.529031 
L 308.70305 173.118796 
L 309.35366 158.465939 
L 310.00427 148.017297 
L 310.654881 143.906524 
L 311.305491 148.350699 
L 311.956101 155.290939 
L 312.606712 170.922132 
L 314.558543 233.739653 
L 315.209153 252.014121 
L 315.859763 267.14649 
L 316.510373 275.160917 
L 317.160984 278.06195 
L 317.811594 274.312293 
L 318.462204 265.614424 
L 319.112815 252.481006 
L 320.414035 217.496219 
L 321.715256 181.736498 
L 322.365866 166.307846 
L 323.016477 153.969386 
L 323.667087 145.857448 
L 324.317697 142.162397 
L 324.968308 144.609009 
L 325.618918 152.315179 
L 326.269528 164.258526 
L 327.570749 199.487536 
L 328.871969 240.188194 
L 329.52258 257.737708 
L 330.17319 271.776207 
L 330.8238 279.488397 
L 331.474411 281.06238 
L 332.125021 276.118529 
L 332.775631 266.353842 
L 333.426242 251.870519 
L 336.679293 158.092661 
L 337.329903 146.83023 
L 337.980514 143.132474 
L 338.631124 141.783128 
L 339.281734 147.864194 
L 339.932345 161.865571 
L 340.582955 179.876175 
L 341.884176 223.843954 
L 342.534786 244.306161 
L 343.836007 274.302989 
L 344.486617 277.643006 
L 345.137227 277.034181 
L 345.787837 270.753805 
L 346.438448 256.856253 
L 349.691499 168.892777 
L 350.34211 154.224073 
L 351.64333 135.343437 
L 352.293941 134.419149 
L 352.944551 138.240682 
L 353.595161 146.752481 
L 354.245772 158.857281 
L 355.546992 196.522697 
L 357.498823 256.092678 
L 358.149433 269.798598 
L 358.800044 279.616209 
L 359.450654 282.735444 
L 360.101264 280.589236 
L 360.751875 270.875519 
L 361.402485 256.57084 
L 362.703706 219.597117 
L 364.004926 177.003665 
L 364.655537 158.653415 
L 365.306147 145.520832 
L 365.956757 135.855201 
L 366.607367 131.989769 
L 367.257978 133.706047 
L 367.908588 141.649296 
L 369.209809 172.36626 
L 369.860419 199.449152 
L 371.16164 238.340546 
L 371.81225 256.279397 
L 372.46286 268.901385 
L 373.113471 275.724486 
L 373.764081 276.477648 
L 374.414691 273.392267 
L 375.065302 263.666975 
L 375.715912 249.251826 
L 379.619574 141.083879 
L 380.270184 130.220836 
L 380.920794 123.033841 
L 381.571405 121.431878 
L 382.222015 125.623199 
L 382.872625 134.162369 
L 383.523236 148.392792 
L 384.173846 165.686888 
L 386.776287 247.253883 
L 387.426897 262.325062 
L 388.077508 271.609151 
L 388.728118 276.221149 
L 389.378728 274.430887 
L 390.029339 266.566451 
L 390.679949 254.543455 
L 391.330559 237.769309 
L 394.583611 140.200889 
L 395.234221 127.769915 
L 395.884831 121.127011 
L 396.535442 121.437389 
L 397.186052 131.319407 
L 397.836662 149.772523 
L 398.487273 172.23223 
L 398.487273 172.23223 
" clip-path="url(#p7b5d0f85ed)" style="fill: none; stroke: #1f77b4; stroke-width: 1.5; stroke-linecap: square"/>
   </g>
   <g id="line2d_16">
    <path d="M 73.832727 161.054509 
L 74.483338 251.767148 
L 75.133948 235.99101 
L 77.085779 279.977251 
L 77.736389 271.709834 
L 78.386999 242.197492 
L 79.03761 261.094269 
L 79.68822 286.700305 
L 80.33883 295.488 
L 80.989441 286.743336 
L 81.640051 284.813139 
L 82.290661 282.039215 
L 82.941272 280.931128 
L 83.591882 283.679934 
L 84.893103 294.426032 
L 85.543713 294.89072 
L 86.194323 288.967951 
L 87.495544 268.538959 
L 88.146154 264.559769 
L 88.796764 264.065021 
L 89.447375 268.08683 
L 90.748595 283.124037 
L 91.399206 288.257021 
L 92.049816 288.994511 
L 92.700426 285.818077 
L 94.001647 276.040886 
L 94.652257 272.971102 
L 95.302868 271.34006 
L 95.953478 269.354274 
L 96.604088 271.994371 
L 97.254698 271.026493 
L 99.206529 235.467438 
L 99.85714 213.145104 
L 100.50775 213.808885 
L 101.15836 224.72134 
L 101.808971 227.488264 
L 102.459581 211.855424 
L 103.110191 208.746109 
L 103.760802 247.130765 
L 104.411412 259.53117 
L 105.062022 262.513452 
L 105.712633 257.918041 
L 107.013853 231.527367 
L 107.664463 222.962237 
L 108.315074 231.450365 
L 108.965684 245.741642 
L 109.616294 251.319961 
L 110.266905 245.373721 
L 110.917515 230.237481 
L 111.568125 224.425892 
L 112.218736 208.476396 
L 112.869346 176.209484 
L 113.519956 166.899452 
L 114.170567 169.154333 
L 114.821177 170.582988 
L 115.471787 169.214041 
L 116.122398 143.336439 
L 116.773008 165.627067 
L 117.423618 218.875779 
L 118.074228 231.183535 
L 118.724839 234.406293 
L 119.375449 234.402176 
L 120.026059 226.106758 
L 120.67667 207.471047 
L 121.32728 213.878475 
L 121.97789 227.218139 
L 122.628501 235.446026 
L 123.279111 241.70048 
L 123.929721 242.095166 
L 124.580332 232.631748 
L 125.230942 208.936349 
L 125.881552 161.888148 
L 126.532163 179.876137 
L 127.182773 165.912633 
L 128.483993 131.639552 
L 129.134604 155.198242 
L 129.785214 169.659376 
L 130.435824 189.160432 
L 131.086435 213.381668 
L 131.737045 227.281141 
L 132.387655 236.243634 
L 133.038266 242.639121 
L 134.339486 224.183562 
L 134.990097 211.781098 
L 135.640707 204.511618 
L 136.291317 203.030669 
L 136.941927 208.710079 
L 137.592538 219.942071 
L 138.243148 227.625179 
L 138.893758 227.599649 
L 139.544369 224.459039 
L 140.194979 214.407195 
L 140.845589 197.682121 
L 142.79742 133.939317 
L 143.448031 109.931174 
L 144.098641 113.523295 
L 144.749251 124.762288 
L 145.399862 139.119449 
L 146.701082 175.824063 
L 148.002303 182.032809 
L 148.652913 192.884116 
L 149.303523 187.267296 
L 149.954134 185.951262 
L 150.604744 182.558029 
L 151.255354 183.422962 
L 152.556575 194.922815 
L 153.207185 192.611109 
L 153.857796 199.289691 
L 154.508406 203.515328 
L 155.159016 201.98373 
L 155.809627 193.944025 
L 156.460237 180.559683 
L 157.761457 147.88182 
L 158.412068 135.796835 
L 159.062678 131.349662 
L 159.713288 135.528357 
L 160.363899 147.963145 
L 162.31573 199.614582 
L 162.96634 213.534849 
L 163.61695 218.647656 
L 164.267561 212.188344 
L 164.918171 190.849328 
L 165.568781 180.978253 
L 166.219392 172.949871 
L 166.870002 168.526994 
L 167.520612 170.662048 
L 168.171222 177.749935 
L 168.821833 193.382158 
L 170.123053 237.831646 
L 170.773664 251.992801 
L 171.424274 256.184467 
L 172.074884 251.264989 
L 172.725495 238.168066 
L 174.677326 176.051774 
L 175.327936 161.879501 
L 175.978546 156.040116 
L 176.629156 160.192046 
L 177.279767 173.423001 
L 179.231598 233.43718 
L 179.882208 246.33748 
L 180.532818 251.593791 
L 181.183429 250.807095 
L 181.834039 247.634778 
L 184.43648 205.576469 
L 185.087091 202.284532 
L 185.737701 205.035397 
L 186.388311 213.423052 
L 188.340142 252.278573 
L 188.990752 259.98227 
L 189.641363 260.893117 
L 190.291973 254.2553 
L 190.942583 240.471537 
L 192.243804 199.615817 
L 192.894414 178.401981 
L 193.545025 161.255043 
L 194.195635 151.390762 
L 194.846245 150.492886 
L 195.496856 159.199462 
L 196.147466 176.078334 
L 198.099297 239.397421 
L 198.749907 252.146393 
L 199.400517 257.27423 
L 200.051128 255.121675 
L 200.701738 246.8802 
L 202.002959 220.281992 
L 203.304179 193.175858 
L 203.95479 184.16704 
L 204.6054 182.342464 
L 205.25601 186.569955 
L 205.906621 196.200553 
L 208.509062 248.375562 
L 209.159672 251.955536 
L 209.810282 248.276736 
L 210.460893 237.439224 
L 211.111503 220.398936 
L 213.713944 139.235364 
L 214.364555 129.513145 
L 215.015165 128.196288 
L 216.966996 148.946465 
L 218.268216 188.990781 
L 218.918827 204.037871 
L 219.569437 212.347701 
L 220.220047 213.549261 
L 220.870658 208.012325 
L 221.521268 197.25058 
L 222.822489 166.714771 
L 224.123709 137.381963 
L 224.77432 127.876338 
L 225.42493 123.594494 
L 226.07554 125.16521 
L 226.72615 132.156124 
L 228.027371 156.880549 
L 229.328592 182.121135 
L 229.979202 189.129755 
L 230.629812 190.875476 
L 231.280423 185.429337 
L 231.931033 173.437207 
L 232.581643 154.822703 
L 235.184085 66.639393 
L 235.834695 53.568 
L 236.485305 164.264091 
L 237.135915 174.070106 
L 237.786526 190.047602 
L 239.738357 249.952043 
L 240.388967 263.592097 
L 241.039577 270.520627 
L 241.690188 270.454126 
L 242.340798 263.923988 
L 242.991408 252.041597 
L 244.292629 218.442386 
L 245.59385 183.82362 
L 246.24446 170.405512 
L 246.89507 161.324633 
L 247.54568 157.691335 
L 248.196291 159.813624 
L 248.846901 167.769122 
L 249.497511 180.914428 
L 250.798732 217.126352 
L 252.099953 251.648763 
L 252.750563 262.92111 
L 253.401173 268.128831 
L 254.051784 266.712118 
L 254.702394 258.883036 
L 255.353004 245.534107 
L 256.654225 207.744054 
L 257.955445 169.919 
L 258.606056 156.803547 
L 259.256666 150.063611 
L 259.907276 150.7871 
L 260.557887 159.210168 
L 261.208497 174.331995 
L 263.810938 253.905909 
L 264.461549 265.082106 
L 265.112159 269.430041 
L 265.762769 267.088481 
L 266.413379 258.704943 
L 267.06399 245.507959 
L 268.36521 211.004696 
L 269.666431 176.648642 
L 270.317041 163.318037 
L 270.967652 154.244159 
L 271.618262 150.260645 
L 272.268872 151.751066 
L 272.919483 158.871277 
L 273.570093 170.972321 
L 274.871314 206.369548 
L 276.172534 243.856535 
L 276.823144 258.087075 
L 277.473755 267.025685 
L 278.124365 269.777373 
L 278.774975 266.047101 
L 279.425586 256.213497 
L 280.076196 241.211703 
L 281.377417 201.887375 
L 282.678637 163.470394 
L 283.329248 149.998962 
L 283.979858 142.584332 
L 284.630468 142.24194 
L 285.281079 149.596452 
L 285.931689 163.692341 
L 287.232909 205.273814 
L 288.53413 246.6389 
L 289.18474 260.995443 
L 289.835351 269.070973 
L 290.485961 270.424478 
L 291.136571 265.343789 
L 291.787182 254.722047 
L 292.437792 239.817226 
L 295.690844 151.587591 
L 296.341454 141.155471 
L 296.992064 136.310112 
L 297.642674 138.288692 
L 298.293285 147.593165 
L 298.943895 160.539172 
L 299.594505 176.679526 
L 302.196947 252.109745 
L 302.847557 264.382912 
L 303.498167 270.674631 
L 304.148778 270.545128 
L 304.799388 264.150876 
L 305.449998 252.019978 
L 306.100608 235.124224 
L 308.70305 154.258365 
L 309.35366 139.182656 
L 310.00427 128.733448 
L 310.654881 123.420725 
L 311.305491 123.272897 
L 311.956101 131.427282 
L 312.606712 155.772256 
L 313.257322 190.782003 
L 315.209153 251.555084 
L 315.859763 264.072845 
L 316.510373 270.597012 
L 317.160984 271.019699 
L 317.811594 265.100018 
L 318.462204 254.100679 
L 319.112815 239.436951 
L 322.365866 154.646669 
L 323.016477 144.230403 
L 323.667087 138.273663 
L 324.317697 137.346551 
L 324.968308 141.67925 
L 325.618918 150.957986 
L 326.269528 164.870842 
L 327.570749 201.786902 
L 328.871969 239.626162 
L 329.52258 248.550566 
L 330.17319 255.411153 
L 330.8238 258.750239 
L 331.474411 255.954285 
L 332.125021 249.747803 
L 332.775631 238.635637 
L 333.426242 232.469097 
L 336.679293 132.20039 
L 337.329903 128.713477 
L 337.980514 134.06079 
L 338.631124 134.741867 
L 339.281734 139.418604 
L 340.582955 173.380794 
L 342.534786 244.07004 
L 343.185396 259.741176 
L 343.836007 270.001996 
L 344.486617 271.537506 
L 345.137227 265.088077 
L 346.438448 238.635637 
L 349.691499 159.088694 
L 350.34211 145.325107 
L 350.99272 136.662798 
L 351.64333 130.47917 
L 352.293941 130.714499 
L 352.944551 135.733627 
L 353.595161 147.354542 
L 354.245772 162.955675 
L 357.498823 257.109726 
L 358.149433 267.592082 
L 358.800044 272.436823 
L 359.450654 270.104734 
L 360.101264 262.030234 
L 360.751875 249.437118 
L 362.053095 218.142202 
L 363.354316 180.658921 
L 364.004926 159.432115 
L 364.655537 143.424765 
L 365.306147 138.495198 
L 365.956757 134.656217 
L 366.607367 127.329295 
L 367.257978 124.708552 
L 367.908588 137.550379 
L 371.16164 229.387783 
L 371.81225 246.729285 
L 372.46286 258.981656 
L 373.113471 265.110107 
L 373.764081 264.860365 
L 374.414691 258.876242 
L 375.065302 248.021023 
L 376.366522 216.504366 
L 377.017132 193.004148 
L 378.968963 136.218081 
L 379.619574 123.635259 
L 380.270184 115.111101 
L 380.920794 111.266561 
L 381.571405 112.580124 
L 382.872625 125.888699 
L 384.173846 157.025906 
L 384.824456 178.981349 
L 385.475066 207.560196 
L 386.776287 243.93786 
L 387.426897 256.064435 
L 388.077508 262.668074 
L 388.728118 263.309826 
L 389.378728 257.959836 
L 390.029339 247.009292 
L 390.679949 231.431629 
L 391.98117 191.75194 
L 393.28239 147.51534 
L 394.583611 114.399553 
L 395.234221 106.511793 
L 395.884831 104.915958 
L 396.535442 106.566971 
L 397.836662 141.595247 
L 398.487273 165.559536 
L 398.487273 165.559536 
" clip-path="url(#p7b5d0f85ed)" style="fill: none; stroke: #ff7f0e; stroke-width: 1.5; stroke-linecap: square"/>
   </g>
   <g id="patch_3">
    <path d="M 57.6 307.584 
L 57.6 41.472 
" style="fill: none; stroke: #000000; stroke-width: 0.8; stroke-linejoin: miter; stroke-linecap: square"/>
   </g>
   <g id="patch_4">
    <path d="M 414.72 307.584 
L 414.72 41.472 
" style="fill: none; stroke: #000000; stroke-width: 0.8; stroke-linejoin: miter; stroke-linecap: square"/>
   </g>
   <g id="patch_5">
    <path d="M 57.6 307.584 
L 414.72 307.584 
" style="fill: none; stroke: #000000; stroke-width: 0.8; stroke-linejoin: miter; stroke-linecap: square"/>
   </g>
   <g id="patch_6">
    <path d="M 57.6 41.472 
L 414.72 41.472 
" style="fill: none; stroke: #000000; stroke-width: 0.8; stroke-linejoin: miter; stroke-linecap: square"/>
   </g>
   <g id="text_17">
    <!-- Training and Validation Loss -->
    <g transform="translate(152.690625 35.472) scale(0.12 -0.12)">
     <defs>
      <path id="DejaVuSans-54" d="M -19 4666 
L 3928 4666 
L 3928 4134 
L 2272 4134 
L 2272 0 
L 1638 0 
L 1638 4134 
L -19 4134 
L -19 4666 
z
" transform="scale(0.015625)"/>
      <path id="DejaVuSans-72" d="M 2631 2963 
Q 2534 3019 2420 3045 
Q 2306 3072 2169 3072 
Q 1681 3072 1420 2755 
Q 1159 2438 1159 1844 
L 1159 0 
L 581 0 
L 581 3500 
L 1159 3500 
L 1159 2956 
Q 1341 3275 1631 3429 
Q 1922 3584 2338 3584 
Q 2397 3584 2469 3576 
Q 2541 3569 2628 3553 
L 2631 2963 
z
" transform="scale(0.015625)"/>
      <path id="DejaVuSans-61" d="M 2194 1759 
Q 1497 1759 1228 1600 
Q 959 1441 959 1056 
Q 959 750 1161 570 
Q 1363 391 1709 391 
Q 2188 391 2477 730 
Q 2766 1069 2766 1631 
L 2766 1759 
L 2194 1759 
z
M 3341 1997 
L 3341 0 
L 2766 0 
L 2766 531 
Q 2569 213 2275 61 
Q 1981 -91 1556 -91 
Q 1019 -91 701 211 
Q 384 513 384 1019 
Q 384 1609 779 1909 
Q 1175 2209 1959 2209 
L 2766 2209 
L 2766 2266 
Q 2766 2663 2505 2880 
Q 2244 3097 1772 3097 
Q 1472 3097 1187 3025 
Q 903 2953 641 2809 
L 641 3341 
Q 956 3463 1253 3523 
Q 1550 3584 1831 3584 
Q 2591 3584 2966 3190 
Q 3341 2797 3341 1997 
z
" transform="scale(0.015625)"/>
      <path id="DejaVuSans-69" d="M 603 3500 
L 1178 3500 
L 1178 0 
L 603 0 
L 603 3500 
z
M 603 4863 
L 1178 4863 
L 1178 4134 
L 603 4134 
L 603 4863 
z
" transform="scale(0.015625)"/>
      <path id="DejaVuSans-6e" d="M 3513 2113 
L 3513 0 
L 2938 0 
L 2938 2094 
Q 2938 2591 2744 2837 
Q 2550 3084 2163 3084 
Q 1697 3084 1428 2787 
Q 1159 2491 1159 1978 
L 1159 0 
L 581 0 
L 581 3500 
L 1159 3500 
L 1159 2956 
Q 1366 3272 1645 3428 
Q 1925 3584 2291 3584 
Q 2894 3584 3203 3211 
Q 3513 2838 3513 2113 
z
" transform="scale(0.015625)"/>
      <path id="DejaVuSans-67" d="M 2906 1791 
Q 2906 2416 2648 2759 
Q 2391 3103 1925 3103 
Q 1463 3103 1205 2759 
Q 947 2416 947 1791 
Q 947 1169 1205 825 
Q 1463 481 1925 481 
Q 2391 481 2648 825 
Q 2906 1169 2906 1791 
z
M 3481 434 
Q 3481 -459 3084 -895 
Q 2688 -1331 1869 -1331 
Q 1566 -1331 1297 -1286 
Q 1028 -1241 775 -1147 
L 775 -588 
Q 1028 -725 1275 -790 
Q 1522 -856 1778 -856 
Q 2344 -856 2625 -561 
Q 2906 -266 2906 331 
L 2906 616 
Q 2728 306 2450 153 
Q 2172 0 1784 0 
Q 1141 0 747 490 
Q 353 981 353 1791 
Q 353 2603 747 3093 
Q 1141 3584 1784 3584 
Q 2172 3584 2450 3431 
Q 2728 3278 2906 2969 
L 2906 3500 
L 3481 3500 
L 3481 434 
z
" transform="scale(0.015625)"/>
      <path id="DejaVuSans-20" transform="scale(0.015625)"/>
      <path id="DejaVuSans-64" d="M 2906 2969 
L 2906 4863 
L 3481 4863 
L 3481 0 
L 2906 0 
L 2906 525 
Q 2725 213 2448 61 
Q 2172 -91 1784 -91 
Q 1150 -91 751 415 
Q 353 922 353 1747 
Q 353 2572 751 3078 
Q 1150 3584 1784 3584 
Q 2172 3584 2448 3432 
Q 2725 3281 2906 2969 
z
M 947 1747 
Q 947 1113 1208 752 
Q 1469 391 1925 391 
Q 2381 391 2643 752 
Q 2906 1113 2906 1747 
Q 2906 2381 2643 2742 
Q 2381 3103 1925 3103 
Q 1469 3103 1208 2742 
Q 947 2381 947 1747 
z
" transform="scale(0.015625)"/>
      <path id="DejaVuSans-56" d="M 1831 0 
L 50 4666 
L 709 4666 
L 2188 738 
L 3669 4666 
L 4325 4666 
L 2547 0 
L 1831 0 
z
" transform="scale(0.015625)"/>
      <path id="DejaVuSans-6c" d="M 603 4863 
L 1178 4863 
L 1178 0 
L 603 0 
L 603 4863 
z
" transform="scale(0.015625)"/>
      <path id="DejaVuSans-74" d="M 1172 4494 
L 1172 3500 
L 2356 3500 
L 2356 3053 
L 1172 3053 
L 1172 1153 
Q 1172 725 1289 603 
Q 1406 481 1766 481 
L 2356 481 
L 2356 0 
L 1766 0 
Q 1100 0 847 248 
Q 594 497 594 1153 
L 594 3053 
L 172 3053 
L 172 3500 
L 594 3500 
L 594 4494 
L 1172 4494 
z
" transform="scale(0.015625)"/>
     </defs>
     <use xlink:href="#DejaVuSans-54"/>
     <use xlink:href="#DejaVuSans-72" x="46.333984"/>
     <use xlink:href="#DejaVuSans-61" x="87.447266"/>
     <use xlink:href="#DejaVuSans-69" x="148.726562"/>
     <use xlink:href="#DejaVuSans-6e" x="176.509766"/>
     <use xlink:href="#DejaVuSans-69" x="239.888672"/>
     <use xlink:href="#DejaVuSans-6e" x="267.671875"/>
     <use xlink:href="#DejaVuSans-67" x="331.050781"/>
     <use xlink:href="#DejaVuSans-20" x="394.527344"/>
     <use xlink:href="#DejaVuSans-61" x="426.314453"/>
     <use xlink:href="#DejaVuSans-6e" x="487.59375"/>
     <use xlink:href="#DejaVuSans-64" x="550.972656"/>
     <use xlink:href="#DejaVuSans-20" x="614.449219"/>
     <use xlink:href="#DejaVuSans-56" x="646.236328"/>
     <use xlink:href="#DejaVuSans-61" x="706.894531"/>
     <use xlink:href="#DejaVuSans-6c" x="768.173828"/>
     <use xlink:href="#DejaVuSans-69" x="795.957031"/>
     <use xlink:href="#DejaVuSans-64" x="823.740234"/>
     <use xlink:href="#DejaVuSans-61" x="887.216797"/>
     <use xlink:href="#DejaVuSans-74" x="948.496094"/>
     <use xlink:href="#DejaVuSans-69" x="987.705078"/>
     <use xlink:href="#DejaVuSans-6f" x="1015.488281"/>
     <use xlink:href="#DejaVuSans-6e" x="1076.669922"/>
     <use xlink:href="#DejaVuSans-20" x="1140.048828"/>
     <use xlink:href="#DejaVuSans-4c" x="1171.835938"/>
     <use xlink:href="#DejaVuSans-6f" x="1225.798828"/>
     <use xlink:href="#DejaVuSans-73" x="1286.980469"/>
     <use xlink:href="#DejaVuSans-73" x="1339.080078"/>
    </g>
   </g>
   <g id="legend_1">
    <g id="patch_7">
     <path d="M 301.22625 78.82825 
L 407.72 78.82825 
Q 409.72 78.82825 409.72 76.82825 
L 409.72 48.472 
Q 409.72 46.472 407.72 46.472 
L 301.22625 46.472 
Q 299.22625 46.472 299.22625 48.472 
L 299.22625 76.82825 
Q 299.22625 78.82825 301.22625 78.82825 
z
" style="fill: #ffffff; opacity: 0.8; stroke: #cccccc; stroke-linejoin: miter"/>
    </g>
    <g id="line2d_17">
     <path d="M 303.22625 54.570437 
L 313.22625 54.570437 
L 323.22625 54.570437 
" style="fill: none; stroke: #1f77b4; stroke-width: 1.5; stroke-linecap: square"/>
    </g>
    <g id="text_18">
     <!-- Training Loss -->
     <g transform="translate(331.22625 58.070437) scale(0.1 -0.1)">
      <use xlink:href="#DejaVuSans-54"/>
      <use xlink:href="#DejaVuSans-72" x="46.333984"/>
      <use xlink:href="#DejaVuSans-61" x="87.447266"/>
      <use xlink:href="#DejaVuSans-69" x="148.726562"/>
      <use xlink:href="#DejaVuSans-6e" x="176.509766"/>
      <use xlink:href="#DejaVuSans-69" x="239.888672"/>
      <use xlink:href="#DejaVuSans-6e" x="267.671875"/>
      <use xlink:href="#DejaVuSans-67" x="331.050781"/>
      <use xlink:href="#DejaVuSans-20" x="394.527344"/>
      <use xlink:href="#DejaVuSans-4c" x="426.314453"/>
      <use xlink:href="#DejaVuSans-6f" x="480.277344"/>
      <use xlink:href="#DejaVuSans-73" x="541.458984"/>
      <use xlink:href="#DejaVuSans-73" x="593.558594"/>
     </g>
    </g>
    <g id="line2d_18">
     <path d="M 303.22625 69.248562 
L 313.22625 69.248562 
L 323.22625 69.248562 
" style="fill: none; stroke: #ff7f0e; stroke-width: 1.5; stroke-linecap: square"/>
    </g>
    <g id="text_19">
     <!-- Validation Loss -->
     <g transform="translate(331.22625 72.748562) scale(0.1 -0.1)">
      <use xlink:href="#DejaVuSans-56"/>
      <use xlink:href="#DejaVuSans-61" x="60.658203"/>
      <use xlink:href="#DejaVuSans-6c" x="121.9375"/>
      <use xlink:href="#DejaVuSans-69" x="149.720703"/>
      <use xlink:href="#DejaVuSans-64" x="177.503906"/>
      <use xlink:href="#DejaVuSans-61" x="240.980469"/>
      <use xlink:href="#DejaVuSans-74" x="302.259766"/>
      <use xlink:href="#DejaVuSans-69" x="341.46875"/>
      <use xlink:href="#DejaVuSans-6f" x="369.251953"/>
      <use xlink:href="#DejaVuSans-6e" x="430.433594"/>
      <use xlink:href="#DejaVuSans-20" x="493.8125"/>
      <use xlink:href="#DejaVuSans-4c" x="525.599609"/>
      <use xlink:href="#DejaVuSans-6f" x="579.5625"/>
      <use xlink:href="#DejaVuSans-73" x="640.744141"/>
      <use xlink:href="#DejaVuSans-73" x="692.84375"/>
     </g>
    </g>
   </g>
  </g>
 </g>
 <defs>
  <clipPath id="p7b5d0f85ed">
   <rect x="57.6" y="41.472" width="357.12" height="266.112"/>
  </clipPath>
 </defs>
</svg>
