<?xml version="1.0" encoding="utf-8" standalone="no"?>
<!DOCTYPE svg PUBLIC "-//W3C//DTD SVG 1.1//EN"
  "http://www.w3.org/Graphics/SVG/1.1/DTD/svg11.dtd">
<svg xmlns:xlink="http://www.w3.org/1999/xlink" width="460.8pt" height="345.6pt" viewBox="0 0 460.8 345.6" xmlns="http://www.w3.org/2000/svg" version="1.1">
 <metadata>
  <rdf:RDF xmlns:dc="http://purl.org/dc/elements/1.1/" xmlns:cc="http://creativecommons.org/ns#" xmlns:rdf="http://www.w3.org/1999/02/22-rdf-syntax-ns#">
   <cc:Work>
    <dc:type rdf:resource="http://purl.org/dc/dcmitype/StillImage"/>
    <dc:date>2023-07-16T14:30:55.398511</dc:date>
    <dc:format>image/svg+xml</dc:format>
    <dc:creator>
     <cc:Agent>
      <dc:title>Matplotlib v3.7.1, https://matplotlib.org/</dc:title>
     </cc:Agent>
    </dc:creator>
   </cc:Work>
  </rdf:RDF>
 </metadata>
 <defs>
  <style type="text/css">*{stroke-linejoin: round; stroke-linecap: butt}</style>
 </defs>
 <g id="figure_1">
  <g id="patch_1">
   <path d="M 0 345.6 
L 460.8 345.6 
L 460.8 0 
L 0 0 
z
" style="fill: #ffffff"/>
  </g>
  <g id="axes_1">
   <g id="patch_2">
    <path d="M 57.6 307.584 
L 414.72 307.584 
L 414.72 41.472 
L 57.6 41.472 
z
" style="fill: #ffffff"/>
   </g>
   <g id="matplotlib.axis_1">
    <g id="xtick_1">
     <g id="line2d_1">
      <defs>
       <path id="m61baa77455" d="M 0 0 
L 0 3.5 
" style="stroke: #000000; stroke-width: 0.8"/>
      </defs>
      <g>
       <use xlink:href="#m61baa77455" x="72.528894" y="307.584" style="stroke: #000000; stroke-width: 0.8"/>
      </g>
     </g>
     <g id="text_1">
      <!-- 0 -->
      <g transform="translate(69.347644 322.182437) scale(0.1 -0.1)">
       <defs>
        <path id="DejaVuSans-30" d="M 2034 4250 
Q 1547 4250 1301 3770 
Q 1056 3291 1056 2328 
Q 1056 1369 1301 889 
Q 1547 409 2034 409 
Q 2525 409 2770 889 
Q 3016 1369 3016 2328 
Q 3016 3291 2770 3770 
Q 2525 4250 2034 4250 
z
M 2034 4750 
Q 2819 4750 3233 4129 
Q 3647 3509 3647 2328 
Q 3647 1150 3233 529 
Q 2819 -91 2034 -91 
Q 1250 -91 836 529 
Q 422 1150 422 2328 
Q 422 3509 836 4129 
Q 1250 4750 2034 4750 
z
" transform="scale(0.015625)"/>
       </defs>
       <use xlink:href="#DejaVuSans-30"/>
      </g>
     </g>
    </g>
    <g id="xtick_2">
     <g id="line2d_2">
      <g>
       <use xlink:href="#m61baa77455" x="137.72057" y="307.584" style="stroke: #000000; stroke-width: 0.8"/>
      </g>
     </g>
     <g id="text_2">
      <!-- 50 -->
      <g transform="translate(131.35807 322.182437) scale(0.1 -0.1)">
       <defs>
        <path id="DejaVuSans-35" d="M 691 4666 
L 3169 4666 
L 3169 4134 
L 1269 4134 
L 1269 2991 
Q 1406 3038 1543 3061 
Q 1681 3084 1819 3084 
Q 2600 3084 3056 2656 
Q 3513 2228 3513 1497 
Q 3513 744 3044 326 
Q 2575 -91 1722 -91 
Q 1428 -91 1123 -41 
Q 819 9 494 109 
L 494 744 
Q 775 591 1075 516 
Q 1375 441 1709 441 
Q 2250 441 2565 725 
Q 2881 1009 2881 1497 
Q 2881 1984 2565 2268 
Q 2250 2553 1709 2553 
Q 1456 2553 1204 2497 
Q 953 2441 691 2322 
L 691 4666 
z
" transform="scale(0.015625)"/>
       </defs>
       <use xlink:href="#DejaVuSans-35"/>
       <use xlink:href="#DejaVuSans-30" x="63.623047"/>
      </g>
     </g>
    </g>
    <g id="xtick_3">
     <g id="line2d_3">
      <g>
       <use xlink:href="#m61baa77455" x="202.912245" y="307.584" style="stroke: #000000; stroke-width: 0.8"/>
      </g>
     </g>
     <g id="text_3">
      <!-- 100 -->
      <g transform="translate(193.368495 322.182437) scale(0.1 -0.1)">
       <defs>
        <path id="DejaVuSans-31" d="M 794 531 
L 1825 531 
L 1825 4091 
L 703 3866 
L 703 4441 
L 1819 4666 
L 2450 4666 
L 2450 531 
L 3481 531 
L 3481 0 
L 794 0 
L 794 531 
z
" transform="scale(0.015625)"/>
       </defs>
       <use xlink:href="#DejaVuSans-31"/>
       <use xlink:href="#DejaVuSans-30" x="63.623047"/>
       <use xlink:href="#DejaVuSans-30" x="127.246094"/>
      </g>
     </g>
    </g>
    <g id="xtick_4">
     <g id="line2d_4">
      <g>
       <use xlink:href="#m61baa77455" x="268.103921" y="307.584" style="stroke: #000000; stroke-width: 0.8"/>
      </g>
     </g>
     <g id="text_4">
      <!-- 150 -->
      <g transform="translate(258.560171 322.182437) scale(0.1 -0.1)">
       <use xlink:href="#DejaVuSans-31"/>
       <use xlink:href="#DejaVuSans-35" x="63.623047"/>
       <use xlink:href="#DejaVuSans-30" x="127.246094"/>
      </g>
     </g>
    </g>
    <g id="xtick_5">
     <g id="line2d_5">
      <g>
       <use xlink:href="#m61baa77455" x="333.295597" y="307.584" style="stroke: #000000; stroke-width: 0.8"/>
      </g>
     </g>
     <g id="text_5">
      <!-- 200 -->
      <g transform="translate(323.751847 322.182437) scale(0.1 -0.1)">
       <defs>
        <path id="DejaVuSans-32" d="M 1228 531 
L 3431 531 
L 3431 0 
L 469 0 
L 469 531 
Q 828 903 1448 1529 
Q 2069 2156 2228 2338 
Q 2531 2678 2651 2914 
Q 2772 3150 2772 3378 
Q 2772 3750 2511 3984 
Q 2250 4219 1831 4219 
Q 1534 4219 1204 4116 
Q 875 4013 500 3803 
L 500 4441 
Q 881 4594 1212 4672 
Q 1544 4750 1819 4750 
Q 2544 4750 2975 4387 
Q 3406 4025 3406 3419 
Q 3406 3131 3298 2873 
Q 3191 2616 2906 2266 
Q 2828 2175 2409 1742 
Q 1991 1309 1228 531 
z
" transform="scale(0.015625)"/>
       </defs>
       <use xlink:href="#DejaVuSans-32"/>
       <use xlink:href="#DejaVuSans-30" x="63.623047"/>
       <use xlink:href="#DejaVuSans-30" x="127.246094"/>
      </g>
     </g>
    </g>
    <g id="xtick_6">
     <g id="line2d_6">
      <g>
       <use xlink:href="#m61baa77455" x="398.487273" y="307.584" style="stroke: #000000; stroke-width: 0.8"/>
      </g>
     </g>
     <g id="text_6">
      <!-- 250 -->
      <g transform="translate(388.943523 322.182437) scale(0.1 -0.1)">
       <use xlink:href="#DejaVuSans-32"/>
       <use xlink:href="#DejaVuSans-35" x="63.623047"/>
       <use xlink:href="#DejaVuSans-30" x="127.246094"/>
      </g>
     </g>
    </g>
    <g id="text_7">
     <!-- Epoch -->
     <g transform="translate(220.849063 335.860562) scale(0.1 -0.1)">
      <defs>
       <path id="DejaVuSans-45" d="M 628 4666 
L 3578 4666 
L 3578 4134 
L 1259 4134 
L 1259 2753 
L 3481 2753 
L 3481 2222 
L 1259 2222 
L 1259 531 
L 3634 531 
L 3634 0 
L 628 0 
L 628 4666 
z
" transform="scale(0.015625)"/>
       <path id="DejaVuSans-70" d="M 1159 525 
L 1159 -1331 
L 581 -1331 
L 581 3500 
L 1159 3500 
L 1159 2969 
Q 1341 3281 1617 3432 
Q 1894 3584 2278 3584 
Q 2916 3584 3314 3078 
Q 3713 2572 3713 1747 
Q 3713 922 3314 415 
Q 2916 -91 2278 -91 
Q 1894 -91 1617 61 
Q 1341 213 1159 525 
z
M 3116 1747 
Q 3116 2381 2855 2742 
Q 2594 3103 2138 3103 
Q 1681 3103 1420 2742 
Q 1159 2381 1159 1747 
Q 1159 1113 1420 752 
Q 1681 391 2138 391 
Q 2594 391 2855 752 
Q 3116 1113 3116 1747 
z
" transform="scale(0.015625)"/>
       <path id="DejaVuSans-6f" d="M 1959 3097 
Q 1497 3097 1228 2736 
Q 959 2375 959 1747 
Q 959 1119 1226 758 
Q 1494 397 1959 397 
Q 2419 397 2687 759 
Q 2956 1122 2956 1747 
Q 2956 2369 2687 2733 
Q 2419 3097 1959 3097 
z
M 1959 3584 
Q 2709 3584 3137 3096 
Q 3566 2609 3566 1747 
Q 3566 888 3137 398 
Q 2709 -91 1959 -91 
Q 1206 -91 779 398 
Q 353 888 353 1747 
Q 353 2609 779 3096 
Q 1206 3584 1959 3584 
z
" transform="scale(0.015625)"/>
       <path id="DejaVuSans-63" d="M 3122 3366 
L 3122 2828 
Q 2878 2963 2633 3030 
Q 2388 3097 2138 3097 
Q 1578 3097 1268 2742 
Q 959 2388 959 1747 
Q 959 1106 1268 751 
Q 1578 397 2138 397 
Q 2388 397 2633 464 
Q 2878 531 3122 666 
L 3122 134 
Q 2881 22 2623 -34 
Q 2366 -91 2075 -91 
Q 1284 -91 818 406 
Q 353 903 353 1747 
Q 353 2603 823 3093 
Q 1294 3584 2113 3584 
Q 2378 3584 2631 3529 
Q 2884 3475 3122 3366 
z
" transform="scale(0.015625)"/>
       <path id="DejaVuSans-68" d="M 3513 2113 
L 3513 0 
L 2938 0 
L 2938 2094 
Q 2938 2591 2744 2837 
Q 2550 3084 2163 3084 
Q 1697 3084 1428 2787 
Q 1159 2491 1159 1978 
L 1159 0 
L 581 0 
L 581 4863 
L 1159 4863 
L 1159 2956 
Q 1366 3272 1645 3428 
Q 1925 3584 2291 3584 
Q 2894 3584 3203 3211 
Q 3513 2838 3513 2113 
z
" transform="scale(0.015625)"/>
      </defs>
      <use xlink:href="#DejaVuSans-45"/>
      <use xlink:href="#DejaVuSans-70" x="63.183594"/>
      <use xlink:href="#DejaVuSans-6f" x="126.660156"/>
      <use xlink:href="#DejaVuSans-63" x="187.841797"/>
      <use xlink:href="#DejaVuSans-68" x="242.822266"/>
     </g>
    </g>
   </g>
   <g id="matplotlib.axis_2">
    <g id="ytick_1">
     <g id="line2d_7">
      <defs>
       <path id="m0bcafbe4b1" d="M 0 0 
L -3.5 0 
" style="stroke: #000000; stroke-width: 0.8"/>
      </defs>
      <g>
       <use xlink:href="#m0bcafbe4b1" x="57.6" y="294.727306" style="stroke: #000000; stroke-width: 0.8"/>
      </g>
     </g>
     <g id="text_8">
      <!-- 0.45 -->
      <g transform="translate(28.334375 298.526525) scale(0.1 -0.1)">
       <defs>
        <path id="DejaVuSans-2e" d="M 684 794 
L 1344 794 
L 1344 0 
L 684 0 
L 684 794 
z
" transform="scale(0.015625)"/>
        <path id="DejaVuSans-34" d="M 2419 4116 
L 825 1625 
L 2419 1625 
L 2419 4116 
z
M 2253 4666 
L 3047 4666 
L 3047 1625 
L 3713 1625 
L 3713 1100 
L 3047 1100 
L 3047 0 
L 2419 0 
L 2419 1100 
L 313 1100 
L 313 1709 
L 2253 4666 
z
" transform="scale(0.015625)"/>
       </defs>
       <use xlink:href="#DejaVuSans-30"/>
       <use xlink:href="#DejaVuSans-2e" x="63.623047"/>
       <use xlink:href="#DejaVuSans-34" x="95.410156"/>
       <use xlink:href="#DejaVuSans-35" x="159.033203"/>
      </g>
     </g>
    </g>
    <g id="ytick_2">
     <g id="line2d_8">
      <g>
       <use xlink:href="#m0bcafbe4b1" x="57.6" y="257.586971" style="stroke: #000000; stroke-width: 0.8"/>
      </g>
     </g>
     <g id="text_9">
      <!-- 0.50 -->
      <g transform="translate(28.334375 261.38619) scale(0.1 -0.1)">
       <use xlink:href="#DejaVuSans-30"/>
       <use xlink:href="#DejaVuSans-2e" x="63.623047"/>
       <use xlink:href="#DejaVuSans-35" x="95.410156"/>
       <use xlink:href="#DejaVuSans-30" x="159.033203"/>
      </g>
     </g>
    </g>
    <g id="ytick_3">
     <g id="line2d_9">
      <g>
       <use xlink:href="#m0bcafbe4b1" x="57.6" y="220.446636" style="stroke: #000000; stroke-width: 0.8"/>
      </g>
     </g>
     <g id="text_10">
      <!-- 0.55 -->
      <g transform="translate(28.334375 224.245855) scale(0.1 -0.1)">
       <use xlink:href="#DejaVuSans-30"/>
       <use xlink:href="#DejaVuSans-2e" x="63.623047"/>
       <use xlink:href="#DejaVuSans-35" x="95.410156"/>
       <use xlink:href="#DejaVuSans-35" x="159.033203"/>
      </g>
     </g>
    </g>
    <g id="ytick_4">
     <g id="line2d_10">
      <g>
       <use xlink:href="#m0bcafbe4b1" x="57.6" y="183.306301" style="stroke: #000000; stroke-width: 0.8"/>
      </g>
     </g>
     <g id="text_11">
      <!-- 0.60 -->
      <g transform="translate(28.334375 187.10552) scale(0.1 -0.1)">
       <defs>
        <path id="DejaVuSans-36" d="M 2113 2584 
Q 1688 2584 1439 2293 
Q 1191 2003 1191 1497 
Q 1191 994 1439 701 
Q 1688 409 2113 409 
Q 2538 409 2786 701 
Q 3034 994 3034 1497 
Q 3034 2003 2786 2293 
Q 2538 2584 2113 2584 
z
M 3366 4563 
L 3366 3988 
Q 3128 4100 2886 4159 
Q 2644 4219 2406 4219 
Q 1781 4219 1451 3797 
Q 1122 3375 1075 2522 
Q 1259 2794 1537 2939 
Q 1816 3084 2150 3084 
Q 2853 3084 3261 2657 
Q 3669 2231 3669 1497 
Q 3669 778 3244 343 
Q 2819 -91 2113 -91 
Q 1303 -91 875 529 
Q 447 1150 447 2328 
Q 447 3434 972 4092 
Q 1497 4750 2381 4750 
Q 2619 4750 2861 4703 
Q 3103 4656 3366 4563 
z
" transform="scale(0.015625)"/>
       </defs>
       <use xlink:href="#DejaVuSans-30"/>
       <use xlink:href="#DejaVuSans-2e" x="63.623047"/>
       <use xlink:href="#DejaVuSans-36" x="95.410156"/>
       <use xlink:href="#DejaVuSans-30" x="159.033203"/>
      </g>
     </g>
    </g>
    <g id="ytick_5">
     <g id="line2d_11">
      <g>
       <use xlink:href="#m0bcafbe4b1" x="57.6" y="146.165966" style="stroke: #000000; stroke-width: 0.8"/>
      </g>
     </g>
     <g id="text_12">
      <!-- 0.65 -->
      <g transform="translate(28.334375 149.965185) scale(0.1 -0.1)">
       <use xlink:href="#DejaVuSans-30"/>
       <use xlink:href="#DejaVuSans-2e" x="63.623047"/>
       <use xlink:href="#DejaVuSans-36" x="95.410156"/>
       <use xlink:href="#DejaVuSans-35" x="159.033203"/>
      </g>
     </g>
    </g>
    <g id="ytick_6">
     <g id="line2d_12">
      <g>
       <use xlink:href="#m0bcafbe4b1" x="57.6" y="109.025632" style="stroke: #000000; stroke-width: 0.8"/>
      </g>
     </g>
     <g id="text_13">
      <!-- 0.70 -->
      <g transform="translate(28.334375 112.82485) scale(0.1 -0.1)">
       <defs>
        <path id="DejaVuSans-37" d="M 525 4666 
L 3525 4666 
L 3525 4397 
L 1831 0 
L 1172 0 
L 2766 4134 
L 525 4134 
L 525 4666 
z
" transform="scale(0.015625)"/>
       </defs>
       <use xlink:href="#DejaVuSans-30"/>
       <use xlink:href="#DejaVuSans-2e" x="63.623047"/>
       <use xlink:href="#DejaVuSans-37" x="95.410156"/>
       <use xlink:href="#DejaVuSans-30" x="159.033203"/>
      </g>
     </g>
    </g>
    <g id="ytick_7">
     <g id="line2d_13">
      <g>
       <use xlink:href="#m0bcafbe4b1" x="57.6" y="71.885297" style="stroke: #000000; stroke-width: 0.8"/>
      </g>
     </g>
     <g id="text_14">
      <!-- 0.75 -->
      <g transform="translate(28.334375 75.684515) scale(0.1 -0.1)">
       <use xlink:href="#DejaVuSans-30"/>
       <use xlink:href="#DejaVuSans-2e" x="63.623047"/>
       <use xlink:href="#DejaVuSans-37" x="95.410156"/>
       <use xlink:href="#DejaVuSans-35" x="159.033203"/>
      </g>
     </g>
    </g>
    <g id="text_15">
     <!-- Loss -->
     <g transform="translate(22.254688 185.495187) rotate(-90) scale(0.1 -0.1)">
      <defs>
       <path id="DejaVuSans-4c" d="M 628 4666 
L 1259 4666 
L 1259 531 
L 3531 531 
L 3531 0 
L 628 0 
L 628 4666 
z
" transform="scale(0.015625)"/>
       <path id="DejaVuSans-73" d="M 2834 3397 
L 2834 2853 
Q 2591 2978 2328 3040 
Q 2066 3103 1784 3103 
Q 1356 3103 1142 2972 
Q 928 2841 928 2578 
Q 928 2378 1081 2264 
Q 1234 2150 1697 2047 
L 1894 2003 
Q 2506 1872 2764 1633 
Q 3022 1394 3022 966 
Q 3022 478 2636 193 
Q 2250 -91 1575 -91 
Q 1294 -91 989 -36 
Q 684 19 347 128 
L 347 722 
Q 666 556 975 473 
Q 1284 391 1588 391 
Q 1994 391 2212 530 
Q 2431 669 2431 922 
Q 2431 1156 2273 1281 
Q 2116 1406 1581 1522 
L 1381 1569 
Q 847 1681 609 1914 
Q 372 2147 372 2553 
Q 372 3047 722 3315 
Q 1072 3584 1716 3584 
Q 2034 3584 2315 3537 
Q 2597 3491 2834 3397 
z
" transform="scale(0.015625)"/>
      </defs>
      <use xlink:href="#DejaVuSans-4c"/>
      <use xlink:href="#DejaVuSans-6f" x="53.962891"/>
      <use xlink:href="#DejaVuSans-73" x="115.144531"/>
      <use xlink:href="#DejaVuSans-73" x="167.244141"/>
     </g>
    </g>
   </g>
   <g id="line2d_14">
    <path d="M 73.832727 182.323377 
L 75.136561 221.53839 
L 76.440394 239.804107 
L 79.048061 231.515251 
L 80.351895 229.077708 
L 81.655728 239.02389 
L 82.959562 253.31911 
L 84.263395 256.225383 
L 85.567229 242.832772 
L 86.871062 232.967271 
L 88.174896 231.330517 
L 89.478729 234.851234 
L 90.782563 244.724391 
L 92.086396 256.685795 
L 93.39023 258.994803 
L 94.694064 253.699014 
L 95.997897 246.989379 
L 97.301731 248.199975 
L 98.605564 254.264798 
L 99.909398 255.983114 
L 101.213231 253.43631 
L 102.517065 254.540604 
L 103.820898 255.343804 
L 105.124732 254.800481 
L 106.428565 251.188402 
L 107.732399 245.687452 
L 109.036232 242.081372 
L 110.340066 241.144525 
L 111.643899 243.22525 
L 112.947733 246.4337 
L 114.251566 251.517504 
L 115.5554 254.909195 
L 116.859233 255.19039 
L 118.163067 254.757664 
L 119.4669 254.702637 
L 120.770734 256.951952 
L 122.074567 258.125316 
L 123.378401 257.349253 
L 124.682234 252.838128 
L 125.986068 242.491628 
L 127.289901 238.862245 
L 128.593735 246.921943 
L 129.897568 258.373176 
L 131.201402 263.248911 
L 132.505235 263.329237 
L 133.809069 261.946251 
L 135.112903 263.97763 
L 137.72057 272.927669 
L 139.024403 276.037092 
L 140.328237 272.436081 
L 141.63207 268.472768 
L 142.935904 262.474092 
L 144.239737 259.885536 
L 145.543571 260.175009 
L 146.847404 264.372427 
L 150.758905 283.745318 
L 152.062738 282.963638 
L 153.366572 278.499986 
L 154.670405 274.529231 
L 155.974239 271.199987 
L 157.278072 268.966725 
L 159.885739 274.282902 
L 161.189573 271.656429 
L 163.79724 268.307129 
L 165.101073 276.586817 
L 166.404907 283.246497 
L 167.70874 272.030271 
L 169.012574 285.235335 
L 170.316407 281.662542 
L 171.620241 263.559475 
L 172.924074 252.958931 
L 174.227908 245.332921 
L 175.531742 247.553092 
L 178.139409 280.459497 
L 179.443242 288.569336 
L 180.747076 260.450759 
L 182.050909 240.486092 
L 183.354743 266.613944 
L 184.658576 281.715931 
L 185.96241 286.488094 
L 187.266243 295.488 
L 188.570077 278.530282 
L 189.87391 253.542153 
L 191.177744 245.801231 
L 192.481577 249.157237 
L 195.089244 265.608925 
L 196.393078 267.192414 
L 197.696911 253.623066 
L 199.000745 237.185577 
L 200.304578 223.881416 
L 201.608412 222.885632 
L 204.216079 251.045499 
L 205.519912 255.436653 
L 206.823746 253.012352 
L 208.127579 250.826971 
L 209.431413 247.112549 
L 212.03908 228.212928 
L 213.342913 221.123551 
L 214.646747 216.728375 
L 215.950581 214.42171 
L 218.558248 211.275457 
L 219.862081 212.622897 
L 222.469748 222.45306 
L 223.773582 224.735997 
L 225.077415 226.566642 
L 226.381249 229.878473 
L 227.685082 230.4849 
L 228.988916 230.172152 
L 230.292749 226.33678 
L 231.596583 221.900908 
L 232.900416 213.793308 
L 234.20425 208.667282 
L 235.508083 201.756148 
L 236.811917 199.856406 
L 238.11575 199.088239 
L 240.723417 191.933207 
L 242.027251 191.180192 
L 243.331084 189.458011 
L 244.634918 188.793082 
L 247.242585 192.260984 
L 248.546418 189.441292 
L 249.850252 184.293958 
L 251.154085 175.186549 
L 252.457919 169.645848 
L 253.761752 169.042287 
L 255.065586 173.211934 
L 256.369419 174.888778 
L 257.673253 164.379398 
L 258.977087 168.935938 
L 260.28092 183.702478 
L 261.584754 183.125891 
L 262.888587 180.815128 
L 264.192421 178.926765 
L 265.496254 176.574559 
L 266.800088 177.581913 
L 268.103921 180.226051 
L 269.407755 182.133091 
L 270.711588 182.215086 
L 272.015422 181.392822 
L 273.319255 182.846569 
L 274.623089 184.110257 
L 275.926922 183.548192 
L 277.230756 181.224295 
L 278.534589 180.151864 
L 279.838423 179.741085 
L 281.142256 179.708396 
L 282.44609 179.361963 
L 283.749923 178.284843 
L 286.35759 174.343632 
L 287.661424 171.711648 
L 288.965257 168.560174 
L 290.269091 165.854806 
L 291.572924 163.576678 
L 292.876758 161.819813 
L 294.180591 160.434384 
L 295.484425 159.524603 
L 296.788258 159.189134 
L 298.092092 159.932684 
L 299.395926 160.92294 
L 300.699759 162.528197 
L 303.307426 166.663719 
L 304.61126 168.977948 
L 305.915093 170.606101 
L 307.218927 171.389993 
L 308.52276 171.631505 
L 309.826594 171.121163 
L 311.130427 170.111144 
L 312.434261 168.33633 
L 313.738094 166.068602 
L 316.345761 162.168372 
L 317.649595 160.510353 
L 318.953428 159.640047 
L 320.257262 159.490574 
L 321.561095 160.333578 
L 322.864929 162.189719 
L 324.168762 165.186108 
L 325.472596 168.763792 
L 326.776429 170.636602 
L 328.080263 171.678546 
L 329.384096 171.789319 
L 330.68793 171.541317 
L 331.991763 171.81003 
L 334.59943 172.072241 
L 335.903264 172.110663 
L 337.207097 172.266785 
L 338.510931 173.054237 
L 339.814765 172.329493 
L 342.422432 170.108903 
L 346.333932 167.790652 
L 347.637766 167.767922 
L 348.941599 168.177408 
L 350.245433 169.05154 
L 351.549266 169.520287 
L 354.156933 170.221081 
L 355.460767 170.415653 
L 356.7646 170.233268 
L 358.068434 169.721272 
L 359.372267 168.883636 
L 360.676101 167.653902 
L 363.283768 165.5753 
L 364.587601 164.735745 
L 365.891435 164.285843 
L 367.195268 164.427792 
L 368.499102 164.994867 
L 371.106769 166.617163 
L 373.714436 168.478072 
L 375.018269 169.518419 
L 376.322103 170.351451 
L 378.92977 170.359524 
L 380.233604 169.323215 
L 381.537437 168.102572 
L 382.841271 167.344493 
L 384.145104 166.312209 
L 385.448938 165.432757 
L 386.752771 164.887108 
L 388.056605 164.722917 
L 389.360438 165.057546 
L 390.664272 165.703546 
L 393.271939 167.486283 
L 394.575772 168.410756 
L 395.879606 169.15584 
L 397.183439 169.317967 
L 398.487273 169.000362 
L 398.487273 169.000362 
" clip-path="url(#p15af4890d1)" style="fill: none; stroke: #1f77b4; stroke-width: 1.5; stroke-linecap: square"/>
   </g>
   <g id="line2d_15">
    <path d="M 73.832727 207.141717 
L 75.136561 240.632893 
L 76.440394 246.031887 
L 77.744228 238.965064 
L 79.048061 222.86416 
L 80.351895 217.934302 
L 81.655728 231.439201 
L 82.959562 246.159353 
L 84.263395 246.070494 
L 85.567229 236.730873 
L 86.871062 229.713682 
L 88.174896 231.954913 
L 90.782563 244.36357 
L 92.086396 240.970887 
L 93.39023 227.478561 
L 94.694064 224.516272 
L 95.997897 221.095783 
L 97.301731 219.302214 
L 98.605564 225.667459 
L 99.909398 222.627955 
L 101.213231 222.94567 
L 102.517065 225.070547 
L 103.820898 225.224933 
L 105.124732 225.621148 
L 106.428565 221.879756 
L 107.732399 217.271775 
L 109.036232 215.080707 
L 110.340066 213.818745 
L 112.947733 216.239333 
L 114.251566 216.422807 
L 115.5554 217.442321 
L 116.859233 217.179772 
L 118.163067 218.060751 
L 119.4669 217.426559 
L 120.770734 215.965139 
L 122.074567 219.003006 
L 123.378401 224.130152 
L 124.682234 224.918331 
L 125.986068 220.252394 
L 127.289901 221.167996 
L 128.593735 224.148969 
L 129.897568 220.540667 
L 131.201402 213.780049 
L 132.505235 207.891642 
L 133.809069 209.825474 
L 136.416736 214.781277 
L 137.72057 216.307693 
L 139.024403 205.696191 
L 140.328237 205.8214 
L 141.63207 201.758176 
L 142.935904 190.972851 
L 144.239737 183.480859 
L 145.543571 180.807285 
L 146.847404 186.167582 
L 149.455071 194.949785 
L 150.758905 192.038721 
L 152.062738 182.436108 
L 153.366572 175.531685 
L 154.670405 175.660171 
L 155.974239 173.565356 
L 157.278072 163.55329 
L 158.581906 142.36491 
L 159.885739 123.669507 
L 161.189573 100.878736 
L 162.493406 103.68996 
L 163.79724 113.537855 
L 165.101073 148.717448 
L 166.404907 192.672691 
L 167.70874 199.974657 
L 169.012574 175.278478 
L 170.316407 132.928371 
L 171.620241 116.309055 
L 172.924074 112.123012 
L 174.227908 108.89689 
L 175.531742 112.941475 
L 176.835575 122.903687 
L 179.443242 191.86636 
L 180.747076 190.587396 
L 182.050909 187.211182 
L 183.354743 166.85406 
L 184.658576 133.334061 
L 185.96241 143.826463 
L 187.266243 176.988944 
L 188.570077 180.691772 
L 189.87391 176.481688 
L 191.177744 178.661333 
L 192.481577 182.114275 
L 193.785411 184.935859 
L 195.089244 172.427097 
L 196.393078 141.640753 
L 197.696911 98.626569 
L 199.000745 67.696332 
L 200.304578 53.568 
L 201.608412 68.290853 
L 202.912245 96.151125 
L 204.216079 142.214952 
L 205.519912 168.841243 
L 206.823746 181.914419 
L 208.127579 182.953547 
L 209.431413 180.073786 
L 213.342913 161.576822 
L 214.646747 162.654823 
L 215.950581 167.473419 
L 217.254414 170.654293 
L 218.558248 170.712115 
L 219.862081 170.33609 
L 221.165915 168.428425 
L 222.469748 159.526238 
L 223.773582 153.116585 
L 225.077415 153.12637 
L 226.381249 151.145696 
L 227.685082 148.34926 
L 228.988916 147.889157 
L 230.292749 141.076161 
L 231.596583 137.400606 
L 234.20425 131.640995 
L 235.508083 136.647626 
L 238.11575 130.788175 
L 240.723417 141.849287 
L 242.027251 145.854467 
L 243.331084 146.665403 
L 244.634918 150.235894 
L 245.938751 158.897404 
L 247.242585 159.134274 
L 248.546418 154.016646 
L 251.154085 142.202909 
L 252.457919 139.872686 
L 253.761752 141.690517 
L 255.065586 145.721599 
L 256.369419 140.425544 
L 257.673253 121.823517 
L 258.977087 140.626773 
L 260.28092 154.489987 
L 261.584754 153.610736 
L 262.888587 153.509656 
L 264.192421 153.799744 
L 265.496254 153.676926 
L 266.800088 157.380906 
L 268.103921 161.433328 
L 269.407755 161.770834 
L 270.711588 160.249289 
L 272.015422 161.392905 
L 273.319255 164.5218 
L 274.623089 165.666833 
L 275.926922 165.096353 
L 277.230756 164.082462 
L 278.534589 164.41253 
L 279.838423 165.582357 
L 281.142256 167.010792 
L 282.44609 168.016626 
L 283.749923 168.391943 
L 285.053757 168.004494 
L 286.35759 168.055587 
L 287.661424 165.989374 
L 291.572924 162.067829 
L 294.180591 160.78488 
L 295.484425 160.643688 
L 296.788258 161.479905 
L 298.092092 162.519785 
L 299.395926 163.752482 
L 302.003593 167.133256 
L 303.307426 168.624296 
L 304.61126 169.593559 
L 305.915093 169.831668 
L 307.218927 169.619105 
L 308.52276 168.727014 
L 309.826594 167.433705 
L 311.130427 165.220322 
L 316.345761 152.521533 
L 317.649595 149.769991 
L 318.953428 148.260976 
L 320.257262 148.060854 
L 321.561095 149.015639 
L 324.168762 152.239016 
L 325.472596 153.595239 
L 326.776429 155.309646 
L 329.384096 155.183418 
L 330.68793 154.1071 
L 331.991763 152.858641 
L 333.295597 154.25449 
L 334.59943 156.55775 
L 335.903264 157.596037 
L 337.207097 158.32108 
L 338.510931 158.132248 
L 339.814765 158.84516 
L 341.118598 160.08069 
L 342.422432 160.581128 
L 343.726265 160.68265 
L 345.030099 161.181759 
L 346.333932 161.89135 
L 347.637766 163.018496 
L 348.941599 163.80632 
L 350.245433 164.082639 
L 354.156933 166.371465 
L 355.460767 166.530766 
L 358.068434 164.435021 
L 359.372267 162.597222 
L 360.676101 159.836737 
L 361.979934 158.034667 
L 363.283768 156.657811 
L 364.587601 155.834832 
L 365.891435 155.447119 
L 371.106769 157.075853 
L 372.410602 157.589528 
L 373.714436 158.384083 
L 375.018269 159.746328 
L 376.322103 161.336809 
L 377.625936 161.240777 
L 378.92977 162.00062 
L 380.233604 161.474636 
L 381.537437 161.100426 
L 385.448938 161.40725 
L 386.752771 162.898733 
L 388.056605 163.811456 
L 389.360438 163.570646 
L 390.664272 164.305075 
L 393.271939 166.20393 
L 394.575772 166.316565 
L 395.879606 166.091251 
L 397.183439 165.460601 
L 398.487273 164.226797 
L 398.487273 164.226797 
" clip-path="url(#p15af4890d1)" style="fill: none; stroke: #ff7f0e; stroke-width: 1.5; stroke-linecap: square"/>
   </g>
   <g id="patch_3">
    <path d="M 57.6 307.584 
L 57.6 41.472 
" style="fill: none; stroke: #000000; stroke-width: 0.8; stroke-linejoin: miter; stroke-linecap: square"/>
   </g>
   <g id="patch_4">
    <path d="M 414.72 307.584 
L 414.72 41.472 
" style="fill: none; stroke: #000000; stroke-width: 0.8; stroke-linejoin: miter; stroke-linecap: square"/>
   </g>
   <g id="patch_5">
    <path d="M 57.6 307.584 
L 414.72 307.584 
" style="fill: none; stroke: #000000; stroke-width: 0.8; stroke-linejoin: miter; stroke-linecap: square"/>
   </g>
   <g id="patch_6">
    <path d="M 57.6 41.472 
L 414.72 41.472 
" style="fill: none; stroke: #000000; stroke-width: 0.8; stroke-linejoin: miter; stroke-linecap: square"/>
   </g>
   <g id="text_16">
    <!-- Training and Validation Loss -->
    <g transform="translate(152.690625 35.472) scale(0.12 -0.12)">
     <defs>
      <path id="DejaVuSans-54" d="M -19 4666 
L 3928 4666 
L 3928 4134 
L 2272 4134 
L 2272 0 
L 1638 0 
L 1638 4134 
L -19 4134 
L -19 4666 
z
" transform="scale(0.015625)"/>
      <path id="DejaVuSans-72" d="M 2631 2963 
Q 2534 3019 2420 3045 
Q 2306 3072 2169 3072 
Q 1681 3072 1420 2755 
Q 1159 2438 1159 1844 
L 1159 0 
L 581 0 
L 581 3500 
L 1159 3500 
L 1159 2956 
Q 1341 3275 1631 3429 
Q 1922 3584 2338 3584 
Q 2397 3584 2469 3576 
Q 2541 3569 2628 3553 
L 2631 2963 
z
" transform="scale(0.015625)"/>
      <path id="DejaVuSans-61" d="M 2194 1759 
Q 1497 1759 1228 1600 
Q 959 1441 959 1056 
Q 959 750 1161 570 
Q 1363 391 1709 391 
Q 2188 391 2477 730 
Q 2766 1069 2766 1631 
L 2766 1759 
L 2194 1759 
z
M 3341 1997 
L 3341 0 
L 2766 0 
L 2766 531 
Q 2569 213 2275 61 
Q 1981 -91 1556 -91 
Q 1019 -91 701 211 
Q 384 513 384 1019 
Q 384 1609 779 1909 
Q 1175 2209 1959 2209 
L 2766 2209 
L 2766 2266 
Q 2766 2663 2505 2880 
Q 2244 3097 1772 3097 
Q 1472 3097 1187 3025 
Q 903 2953 641 2809 
L 641 3341 
Q 956 3463 1253 3523 
Q 1550 3584 1831 3584 
Q 2591 3584 2966 3190 
Q 3341 2797 3341 1997 
z
" transform="scale(0.015625)"/>
      <path id="DejaVuSans-69" d="M 603 3500 
L 1178 3500 
L 1178 0 
L 603 0 
L 603 3500 
z
M 603 4863 
L 1178 4863 
L 1178 4134 
L 603 4134 
L 603 4863 
z
" transform="scale(0.015625)"/>
      <path id="DejaVuSans-6e" d="M 3513 2113 
L 3513 0 
L 2938 0 
L 2938 2094 
Q 2938 2591 2744 2837 
Q 2550 3084 2163 3084 
Q 1697 3084 1428 2787 
Q 1159 2491 1159 1978 
L 1159 0 
L 581 0 
L 581 3500 
L 1159 3500 
L 1159 2956 
Q 1366 3272 1645 3428 
Q 1925 3584 2291 3584 
Q 2894 3584 3203 3211 
Q 3513 2838 3513 2113 
z
" transform="scale(0.015625)"/>
      <path id="DejaVuSans-67" d="M 2906 1791 
Q 2906 2416 2648 2759 
Q 2391 3103 1925 3103 
Q 1463 3103 1205 2759 
Q 947 2416 947 1791 
Q 947 1169 1205 825 
Q 1463 481 1925 481 
Q 2391 481 2648 825 
Q 2906 1169 2906 1791 
z
M 3481 434 
Q 3481 -459 3084 -895 
Q 2688 -1331 1869 -1331 
Q 1566 -1331 1297 -1286 
Q 1028 -1241 775 -1147 
L 775 -588 
Q 1028 -725 1275 -790 
Q 1522 -856 1778 -856 
Q 2344 -856 2625 -561 
Q 2906 -266 2906 331 
L 2906 616 
Q 2728 306 2450 153 
Q 2172 0 1784 0 
Q 1141 0 747 490 
Q 353 981 353 1791 
Q 353 2603 747 3093 
Q 1141 3584 1784 3584 
Q 2172 3584 2450 3431 
Q 2728 3278 2906 2969 
L 2906 3500 
L 3481 3500 
L 3481 434 
z
" transform="scale(0.015625)"/>
      <path id="DejaVuSans-20" transform="scale(0.015625)"/>
      <path id="DejaVuSans-64" d="M 2906 2969 
L 2906 4863 
L 3481 4863 
L 3481 0 
L 2906 0 
L 2906 525 
Q 2725 213 2448 61 
Q 2172 -91 1784 -91 
Q 1150 -91 751 415 
Q 353 922 353 1747 
Q 353 2572 751 3078 
Q 1150 3584 1784 3584 
Q 2172 3584 2448 3432 
Q 2725 3281 2906 2969 
z
M 947 1747 
Q 947 1113 1208 752 
Q 1469 391 1925 391 
Q 2381 391 2643 752 
Q 2906 1113 2906 1747 
Q 2906 2381 2643 2742 
Q 2381 3103 1925 3103 
Q 1469 3103 1208 2742 
Q 947 2381 947 1747 
z
" transform="scale(0.015625)"/>
      <path id="DejaVuSans-56" d="M 1831 0 
L 50 4666 
L 709 4666 
L 2188 738 
L 3669 4666 
L 4325 4666 
L 2547 0 
L 1831 0 
z
" transform="scale(0.015625)"/>
      <path id="DejaVuSans-6c" d="M 603 4863 
L 1178 4863 
L 1178 0 
L 603 0 
L 603 4863 
z
" transform="scale(0.015625)"/>
      <path id="DejaVuSans-74" d="M 1172 4494 
L 1172 3500 
L 2356 3500 
L 2356 3053 
L 1172 3053 
L 1172 1153 
Q 1172 725 1289 603 
Q 1406 481 1766 481 
L 2356 481 
L 2356 0 
L 1766 0 
Q 1100 0 847 248 
Q 594 497 594 1153 
L 594 3053 
L 172 3053 
L 172 3500 
L 594 3500 
L 594 4494 
L 1172 4494 
z
" transform="scale(0.015625)"/>
     </defs>
     <use xlink:href="#DejaVuSans-54"/>
     <use xlink:href="#DejaVuSans-72" x="46.333984"/>
     <use xlink:href="#DejaVuSans-61" x="87.447266"/>
     <use xlink:href="#DejaVuSans-69" x="148.726562"/>
     <use xlink:href="#DejaVuSans-6e" x="176.509766"/>
     <use xlink:href="#DejaVuSans-69" x="239.888672"/>
     <use xlink:href="#DejaVuSans-6e" x="267.671875"/>
     <use xlink:href="#DejaVuSans-67" x="331.050781"/>
     <use xlink:href="#DejaVuSans-20" x="394.527344"/>
     <use xlink:href="#DejaVuSans-61" x="426.314453"/>
     <use xlink:href="#DejaVuSans-6e" x="487.59375"/>
     <use xlink:href="#DejaVuSans-64" x="550.972656"/>
     <use xlink:href="#DejaVuSans-20" x="614.449219"/>
     <use xlink:href="#DejaVuSans-56" x="646.236328"/>
     <use xlink:href="#DejaVuSans-61" x="706.894531"/>
     <use xlink:href="#DejaVuSans-6c" x="768.173828"/>
     <use xlink:href="#DejaVuSans-69" x="795.957031"/>
     <use xlink:href="#DejaVuSans-64" x="823.740234"/>
     <use xlink:href="#DejaVuSans-61" x="887.216797"/>
     <use xlink:href="#DejaVuSans-74" x="948.496094"/>
     <use xlink:href="#DejaVuSans-69" x="987.705078"/>
     <use xlink:href="#DejaVuSans-6f" x="1015.488281"/>
     <use xlink:href="#DejaVuSans-6e" x="1076.669922"/>
     <use xlink:href="#DejaVuSans-20" x="1140.048828"/>
     <use xlink:href="#DejaVuSans-4c" x="1171.835938"/>
     <use xlink:href="#DejaVuSans-6f" x="1225.798828"/>
     <use xlink:href="#DejaVuSans-73" x="1286.980469"/>
     <use xlink:href="#DejaVuSans-73" x="1339.080078"/>
    </g>
   </g>
   <g id="legend_1">
    <g id="patch_7">
     <path d="M 301.22625 78.82825 
L 407.72 78.82825 
Q 409.72 78.82825 409.72 76.82825 
L 409.72 48.472 
Q 409.72 46.472 407.72 46.472 
L 301.22625 46.472 
Q 299.22625 46.472 299.22625 48.472 
L 299.22625 76.82825 
Q 299.22625 78.82825 301.22625 78.82825 
z
" style="fill: #ffffff; opacity: 0.8; stroke: #cccccc; stroke-linejoin: miter"/>
    </g>
    <g id="line2d_16">
     <path d="M 303.22625 54.570437 
L 313.22625 54.570437 
L 323.22625 54.570437 
" style="fill: none; stroke: #1f77b4; stroke-width: 1.5; stroke-linecap: square"/>
    </g>
    <g id="text_17">
     <!-- Training Loss -->
     <g transform="translate(331.22625 58.070437) scale(0.1 -0.1)">
      <use xlink:href="#DejaVuSans-54"/>
      <use xlink:href="#DejaVuSans-72" x="46.333984"/>
      <use xlink:href="#DejaVuSans-61" x="87.447266"/>
      <use xlink:href="#DejaVuSans-69" x="148.726562"/>
      <use xlink:href="#DejaVuSans-6e" x="176.509766"/>
      <use xlink:href="#DejaVuSans-69" x="239.888672"/>
      <use xlink:href="#DejaVuSans-6e" x="267.671875"/>
      <use xlink:href="#DejaVuSans-67" x="331.050781"/>
      <use xlink:href="#DejaVuSans-20" x="394.527344"/>
      <use xlink:href="#DejaVuSans-4c" x="426.314453"/>
      <use xlink:href="#DejaVuSans-6f" x="480.277344"/>
      <use xlink:href="#DejaVuSans-73" x="541.458984"/>
      <use xlink:href="#DejaVuSans-73" x="593.558594"/>
     </g>
    </g>
    <g id="line2d_17">
     <path d="M 303.22625 69.248562 
L 313.22625 69.248562 
L 323.22625 69.248562 
" style="fill: none; stroke: #ff7f0e; stroke-width: 1.5; stroke-linecap: square"/>
    </g>
    <g id="text_18">
     <!-- Validation Loss -->
     <g transform="translate(331.22625 72.748562) scale(0.1 -0.1)">
      <use xlink:href="#DejaVuSans-56"/>
      <use xlink:href="#DejaVuSans-61" x="60.658203"/>
      <use xlink:href="#DejaVuSans-6c" x="121.9375"/>
      <use xlink:href="#DejaVuSans-69" x="149.720703"/>
      <use xlink:href="#DejaVuSans-64" x="177.503906"/>
      <use xlink:href="#DejaVuSans-61" x="240.980469"/>
      <use xlink:href="#DejaVuSans-74" x="302.259766"/>
      <use xlink:href="#DejaVuSans-69" x="341.46875"/>
      <use xlink:href="#DejaVuSans-6f" x="369.251953"/>
      <use xlink:href="#DejaVuSans-6e" x="430.433594"/>
      <use xlink:href="#DejaVuSans-20" x="493.8125"/>
      <use xlink:href="#DejaVuSans-4c" x="525.599609"/>
      <use xlink:href="#DejaVuSans-6f" x="579.5625"/>
      <use xlink:href="#DejaVuSans-73" x="640.744141"/>
      <use xlink:href="#DejaVuSans-73" x="692.84375"/>
     </g>
    </g>
   </g>
  </g>
 </g>
 <defs>
  <clipPath id="p15af4890d1">
   <rect x="57.6" y="41.472" width="357.12" height="266.112"/>
  </clipPath>
 </defs>
</svg>
