<?xml version="1.0" encoding="utf-8" standalone="no"?>
<!DOCTYPE svg PUBLIC "-//W3C//DTD SVG 1.1//EN"
  "http://www.w3.org/Graphics/SVG/1.1/DTD/svg11.dtd">
<svg xmlns:xlink="http://www.w3.org/1999/xlink" width="460.8pt" height="345.6pt" viewBox="0 0 460.8 345.6" xmlns="http://www.w3.org/2000/svg" version="1.1">
 <metadata>
  <rdf:RDF xmlns:dc="http://purl.org/dc/elements/1.1/" xmlns:cc="http://creativecommons.org/ns#" xmlns:rdf="http://www.w3.org/1999/02/22-rdf-syntax-ns#">
   <cc:Work>
    <dc:type rdf:resource="http://purl.org/dc/dcmitype/StillImage"/>
    <dc:date>2023-07-15T16:56:39.051625</dc:date>
    <dc:format>image/svg+xml</dc:format>
    <dc:creator>
     <cc:Agent>
      <dc:title>Matplotlib v3.7.1, https://matplotlib.org/</dc:title>
     </cc:Agent>
    </dc:creator>
   </cc:Work>
  </rdf:RDF>
 </metadata>
 <defs>
  <style type="text/css">*{stroke-linejoin: round; stroke-linecap: butt}</style>
 </defs>
 <g id="figure_1">
  <g id="patch_1">
   <path d="M 0 345.6 
L 460.8 345.6 
L 460.8 0 
L 0 0 
z
" style="fill: #ffffff"/>
  </g>
  <g id="axes_1">
   <g id="patch_2">
    <path d="M 57.6 307.584 
L 414.72 307.584 
L 414.72 41.472 
L 57.6 41.472 
z
" style="fill: #ffffff"/>
   </g>
   <g id="matplotlib.axis_1">
    <g id="xtick_1">
     <g id="line2d_1">
      <defs>
       <path id="m04f4a29ae3" d="M 0 0 
L 0 3.5 
" style="stroke: #000000; stroke-width: 0.8"/>
      </defs>
      <g>
       <use xlink:href="#m04f4a29ae3" x="72.528894" y="307.584" style="stroke: #000000; stroke-width: 0.8"/>
      </g>
     </g>
     <g id="text_1">
      <!-- 0 -->
      <g transform="translate(69.347644 322.182437) scale(0.1 -0.1)">
       <defs>
        <path id="DejaVuSans-30" d="M 2034 4250 
Q 1547 4250 1301 3770 
Q 1056 3291 1056 2328 
Q 1056 1369 1301 889 
Q 1547 409 2034 409 
Q 2525 409 2770 889 
Q 3016 1369 3016 2328 
Q 3016 3291 2770 3770 
Q 2525 4250 2034 4250 
z
M 2034 4750 
Q 2819 4750 3233 4129 
Q 3647 3509 3647 2328 
Q 3647 1150 3233 529 
Q 2819 -91 2034 -91 
Q 1250 -91 836 529 
Q 422 1150 422 2328 
Q 422 3509 836 4129 
Q 1250 4750 2034 4750 
z
" transform="scale(0.015625)"/>
       </defs>
       <use xlink:href="#DejaVuSans-30"/>
      </g>
     </g>
    </g>
    <g id="xtick_2">
     <g id="line2d_2">
      <g>
       <use xlink:href="#m04f4a29ae3" x="137.72057" y="307.584" style="stroke: #000000; stroke-width: 0.8"/>
      </g>
     </g>
     <g id="text_2">
      <!-- 50 -->
      <g transform="translate(131.35807 322.182437) scale(0.1 -0.1)">
       <defs>
        <path id="DejaVuSans-35" d="M 691 4666 
L 3169 4666 
L 3169 4134 
L 1269 4134 
L 1269 2991 
Q 1406 3038 1543 3061 
Q 1681 3084 1819 3084 
Q 2600 3084 3056 2656 
Q 3513 2228 3513 1497 
Q 3513 744 3044 326 
Q 2575 -91 1722 -91 
Q 1428 -91 1123 -41 
Q 819 9 494 109 
L 494 744 
Q 775 591 1075 516 
Q 1375 441 1709 441 
Q 2250 441 2565 725 
Q 2881 1009 2881 1497 
Q 2881 1984 2565 2268 
Q 2250 2553 1709 2553 
Q 1456 2553 1204 2497 
Q 953 2441 691 2322 
L 691 4666 
z
" transform="scale(0.015625)"/>
       </defs>
       <use xlink:href="#DejaVuSans-35"/>
       <use xlink:href="#DejaVuSans-30" x="63.623047"/>
      </g>
     </g>
    </g>
    <g id="xtick_3">
     <g id="line2d_3">
      <g>
       <use xlink:href="#m04f4a29ae3" x="202.912245" y="307.584" style="stroke: #000000; stroke-width: 0.8"/>
      </g>
     </g>
     <g id="text_3">
      <!-- 100 -->
      <g transform="translate(193.368495 322.182437) scale(0.1 -0.1)">
       <defs>
        <path id="DejaVuSans-31" d="M 794 531 
L 1825 531 
L 1825 4091 
L 703 3866 
L 703 4441 
L 1819 4666 
L 2450 4666 
L 2450 531 
L 3481 531 
L 3481 0 
L 794 0 
L 794 531 
z
" transform="scale(0.015625)"/>
       </defs>
       <use xlink:href="#DejaVuSans-31"/>
       <use xlink:href="#DejaVuSans-30" x="63.623047"/>
       <use xlink:href="#DejaVuSans-30" x="127.246094"/>
      </g>
     </g>
    </g>
    <g id="xtick_4">
     <g id="line2d_4">
      <g>
       <use xlink:href="#m04f4a29ae3" x="268.103921" y="307.584" style="stroke: #000000; stroke-width: 0.8"/>
      </g>
     </g>
     <g id="text_4">
      <!-- 150 -->
      <g transform="translate(258.560171 322.182437) scale(0.1 -0.1)">
       <use xlink:href="#DejaVuSans-31"/>
       <use xlink:href="#DejaVuSans-35" x="63.623047"/>
       <use xlink:href="#DejaVuSans-30" x="127.246094"/>
      </g>
     </g>
    </g>
    <g id="xtick_5">
     <g id="line2d_5">
      <g>
       <use xlink:href="#m04f4a29ae3" x="333.295597" y="307.584" style="stroke: #000000; stroke-width: 0.8"/>
      </g>
     </g>
     <g id="text_5">
      <!-- 200 -->
      <g transform="translate(323.751847 322.182437) scale(0.1 -0.1)">
       <defs>
        <path id="DejaVuSans-32" d="M 1228 531 
L 3431 531 
L 3431 0 
L 469 0 
L 469 531 
Q 828 903 1448 1529 
Q 2069 2156 2228 2338 
Q 2531 2678 2651 2914 
Q 2772 3150 2772 3378 
Q 2772 3750 2511 3984 
Q 2250 4219 1831 4219 
Q 1534 4219 1204 4116 
Q 875 4013 500 3803 
L 500 4441 
Q 881 4594 1212 4672 
Q 1544 4750 1819 4750 
Q 2544 4750 2975 4387 
Q 3406 4025 3406 3419 
Q 3406 3131 3298 2873 
Q 3191 2616 2906 2266 
Q 2828 2175 2409 1742 
Q 1991 1309 1228 531 
z
" transform="scale(0.015625)"/>
       </defs>
       <use xlink:href="#DejaVuSans-32"/>
       <use xlink:href="#DejaVuSans-30" x="63.623047"/>
       <use xlink:href="#DejaVuSans-30" x="127.246094"/>
      </g>
     </g>
    </g>
    <g id="xtick_6">
     <g id="line2d_6">
      <g>
       <use xlink:href="#m04f4a29ae3" x="398.487273" y="307.584" style="stroke: #000000; stroke-width: 0.8"/>
      </g>
     </g>
     <g id="text_6">
      <!-- 250 -->
      <g transform="translate(388.943523 322.182437) scale(0.1 -0.1)">
       <use xlink:href="#DejaVuSans-32"/>
       <use xlink:href="#DejaVuSans-35" x="63.623047"/>
       <use xlink:href="#DejaVuSans-30" x="127.246094"/>
      </g>
     </g>
    </g>
    <g id="text_7">
     <!-- Epoch -->
     <g transform="translate(220.849063 335.860562) scale(0.1 -0.1)">
      <defs>
       <path id="DejaVuSans-45" d="M 628 4666 
L 3578 4666 
L 3578 4134 
L 1259 4134 
L 1259 2753 
L 3481 2753 
L 3481 2222 
L 1259 2222 
L 1259 531 
L 3634 531 
L 3634 0 
L 628 0 
L 628 4666 
z
" transform="scale(0.015625)"/>
       <path id="DejaVuSans-70" d="M 1159 525 
L 1159 -1331 
L 581 -1331 
L 581 3500 
L 1159 3500 
L 1159 2969 
Q 1341 3281 1617 3432 
Q 1894 3584 2278 3584 
Q 2916 3584 3314 3078 
Q 3713 2572 3713 1747 
Q 3713 922 3314 415 
Q 2916 -91 2278 -91 
Q 1894 -91 1617 61 
Q 1341 213 1159 525 
z
M 3116 1747 
Q 3116 2381 2855 2742 
Q 2594 3103 2138 3103 
Q 1681 3103 1420 2742 
Q 1159 2381 1159 1747 
Q 1159 1113 1420 752 
Q 1681 391 2138 391 
Q 2594 391 2855 752 
Q 3116 1113 3116 1747 
z
" transform="scale(0.015625)"/>
       <path id="DejaVuSans-6f" d="M 1959 3097 
Q 1497 3097 1228 2736 
Q 959 2375 959 1747 
Q 959 1119 1226 758 
Q 1494 397 1959 397 
Q 2419 397 2687 759 
Q 2956 1122 2956 1747 
Q 2956 2369 2687 2733 
Q 2419 3097 1959 3097 
z
M 1959 3584 
Q 2709 3584 3137 3096 
Q 3566 2609 3566 1747 
Q 3566 888 3137 398 
Q 2709 -91 1959 -91 
Q 1206 -91 779 398 
Q 353 888 353 1747 
Q 353 2609 779 3096 
Q 1206 3584 1959 3584 
z
" transform="scale(0.015625)"/>
       <path id="DejaVuSans-63" d="M 3122 3366 
L 3122 2828 
Q 2878 2963 2633 3030 
Q 2388 3097 2138 3097 
Q 1578 3097 1268 2742 
Q 959 2388 959 1747 
Q 959 1106 1268 751 
Q 1578 397 2138 397 
Q 2388 397 2633 464 
Q 2878 531 3122 666 
L 3122 134 
Q 2881 22 2623 -34 
Q 2366 -91 2075 -91 
Q 1284 -91 818 406 
Q 353 903 353 1747 
Q 353 2603 823 3093 
Q 1294 3584 2113 3584 
Q 2378 3584 2631 3529 
Q 2884 3475 3122 3366 
z
" transform="scale(0.015625)"/>
       <path id="DejaVuSans-68" d="M 3513 2113 
L 3513 0 
L 2938 0 
L 2938 2094 
Q 2938 2591 2744 2837 
Q 2550 3084 2163 3084 
Q 1697 3084 1428 2787 
Q 1159 2491 1159 1978 
L 1159 0 
L 581 0 
L 581 4863 
L 1159 4863 
L 1159 2956 
Q 1366 3272 1645 3428 
Q 1925 3584 2291 3584 
Q 2894 3584 3203 3211 
Q 3513 2838 3513 2113 
z
" transform="scale(0.015625)"/>
      </defs>
      <use xlink:href="#DejaVuSans-45"/>
      <use xlink:href="#DejaVuSans-70" x="63.183594"/>
      <use xlink:href="#DejaVuSans-6f" x="126.660156"/>
      <use xlink:href="#DejaVuSans-63" x="187.841797"/>
      <use xlink:href="#DejaVuSans-68" x="242.822266"/>
     </g>
    </g>
   </g>
   <g id="matplotlib.axis_2">
    <g id="ytick_1">
     <g id="line2d_7">
      <defs>
       <path id="m3d069c60e3" d="M 0 0 
L -3.5 0 
" style="stroke: #000000; stroke-width: 0.8"/>
      </defs>
      <g>
       <use xlink:href="#m3d069c60e3" x="57.6" y="264.705408" style="stroke: #000000; stroke-width: 0.8"/>
      </g>
     </g>
     <g id="text_8">
      <!-- 0.64 -->
      <g transform="translate(28.334375 268.504627) scale(0.1 -0.1)">
       <defs>
        <path id="DejaVuSans-2e" d="M 684 794 
L 1344 794 
L 1344 0 
L 684 0 
L 684 794 
z
" transform="scale(0.015625)"/>
        <path id="DejaVuSans-36" d="M 2113 2584 
Q 1688 2584 1439 2293 
Q 1191 2003 1191 1497 
Q 1191 994 1439 701 
Q 1688 409 2113 409 
Q 2538 409 2786 701 
Q 3034 994 3034 1497 
Q 3034 2003 2786 2293 
Q 2538 2584 2113 2584 
z
M 3366 4563 
L 3366 3988 
Q 3128 4100 2886 4159 
Q 2644 4219 2406 4219 
Q 1781 4219 1451 3797 
Q 1122 3375 1075 2522 
Q 1259 2794 1537 2939 
Q 1816 3084 2150 3084 
Q 2853 3084 3261 2657 
Q 3669 2231 3669 1497 
Q 3669 778 3244 343 
Q 2819 -91 2113 -91 
Q 1303 -91 875 529 
Q 447 1150 447 2328 
Q 447 3434 972 4092 
Q 1497 4750 2381 4750 
Q 2619 4750 2861 4703 
Q 3103 4656 3366 4563 
z
" transform="scale(0.015625)"/>
        <path id="DejaVuSans-34" d="M 2419 4116 
L 825 1625 
L 2419 1625 
L 2419 4116 
z
M 2253 4666 
L 3047 4666 
L 3047 1625 
L 3713 1625 
L 3713 1100 
L 3047 1100 
L 3047 0 
L 2419 0 
L 2419 1100 
L 313 1100 
L 313 1709 
L 2253 4666 
z
" transform="scale(0.015625)"/>
       </defs>
       <use xlink:href="#DejaVuSans-30"/>
       <use xlink:href="#DejaVuSans-2e" x="63.623047"/>
       <use xlink:href="#DejaVuSans-36" x="95.410156"/>
       <use xlink:href="#DejaVuSans-34" x="159.033203"/>
      </g>
     </g>
    </g>
    <g id="ytick_2">
     <g id="line2d_8">
      <g>
       <use xlink:href="#m3d069c60e3" x="57.6" y="211.576734" style="stroke: #000000; stroke-width: 0.8"/>
      </g>
     </g>
     <g id="text_9">
      <!-- 0.66 -->
      <g transform="translate(28.334375 215.375953) scale(0.1 -0.1)">
       <use xlink:href="#DejaVuSans-30"/>
       <use xlink:href="#DejaVuSans-2e" x="63.623047"/>
       <use xlink:href="#DejaVuSans-36" x="95.410156"/>
       <use xlink:href="#DejaVuSans-36" x="159.033203"/>
      </g>
     </g>
    </g>
    <g id="ytick_3">
     <g id="line2d_9">
      <g>
       <use xlink:href="#m3d069c60e3" x="57.6" y="158.44806" style="stroke: #000000; stroke-width: 0.8"/>
      </g>
     </g>
     <g id="text_10">
      <!-- 0.68 -->
      <g transform="translate(28.334375 162.247279) scale(0.1 -0.1)">
       <defs>
        <path id="DejaVuSans-38" d="M 2034 2216 
Q 1584 2216 1326 1975 
Q 1069 1734 1069 1313 
Q 1069 891 1326 650 
Q 1584 409 2034 409 
Q 2484 409 2743 651 
Q 3003 894 3003 1313 
Q 3003 1734 2745 1975 
Q 2488 2216 2034 2216 
z
M 1403 2484 
Q 997 2584 770 2862 
Q 544 3141 544 3541 
Q 544 4100 942 4425 
Q 1341 4750 2034 4750 
Q 2731 4750 3128 4425 
Q 3525 4100 3525 3541 
Q 3525 3141 3298 2862 
Q 3072 2584 2669 2484 
Q 3125 2378 3379 2068 
Q 3634 1759 3634 1313 
Q 3634 634 3220 271 
Q 2806 -91 2034 -91 
Q 1263 -91 848 271 
Q 434 634 434 1313 
Q 434 1759 690 2068 
Q 947 2378 1403 2484 
z
M 1172 3481 
Q 1172 3119 1398 2916 
Q 1625 2713 2034 2713 
Q 2441 2713 2670 2916 
Q 2900 3119 2900 3481 
Q 2900 3844 2670 4047 
Q 2441 4250 2034 4250 
Q 1625 4250 1398 4047 
Q 1172 3844 1172 3481 
z
" transform="scale(0.015625)"/>
       </defs>
       <use xlink:href="#DejaVuSans-30"/>
       <use xlink:href="#DejaVuSans-2e" x="63.623047"/>
       <use xlink:href="#DejaVuSans-36" x="95.410156"/>
       <use xlink:href="#DejaVuSans-38" x="159.033203"/>
      </g>
     </g>
    </g>
    <g id="ytick_4">
     <g id="line2d_10">
      <g>
       <use xlink:href="#m3d069c60e3" x="57.6" y="105.319387" style="stroke: #000000; stroke-width: 0.8"/>
      </g>
     </g>
     <g id="text_11">
      <!-- 0.70 -->
      <g transform="translate(28.334375 109.118605) scale(0.1 -0.1)">
       <defs>
        <path id="DejaVuSans-37" d="M 525 4666 
L 3525 4666 
L 3525 4397 
L 1831 0 
L 1172 0 
L 2766 4134 
L 525 4134 
L 525 4666 
z
" transform="scale(0.015625)"/>
       </defs>
       <use xlink:href="#DejaVuSans-30"/>
       <use xlink:href="#DejaVuSans-2e" x="63.623047"/>
       <use xlink:href="#DejaVuSans-37" x="95.410156"/>
       <use xlink:href="#DejaVuSans-30" x="159.033203"/>
      </g>
     </g>
    </g>
    <g id="ytick_5">
     <g id="line2d_11">
      <g>
       <use xlink:href="#m3d069c60e3" x="57.6" y="52.190713" style="stroke: #000000; stroke-width: 0.8"/>
      </g>
     </g>
     <g id="text_12">
      <!-- 0.72 -->
      <g transform="translate(28.334375 55.989932) scale(0.1 -0.1)">
       <use xlink:href="#DejaVuSans-30"/>
       <use xlink:href="#DejaVuSans-2e" x="63.623047"/>
       <use xlink:href="#DejaVuSans-37" x="95.410156"/>
       <use xlink:href="#DejaVuSans-32" x="159.033203"/>
      </g>
     </g>
    </g>
    <g id="text_13">
     <!-- Loss -->
     <g transform="translate(22.254688 185.495187) rotate(-90) scale(0.1 -0.1)">
      <defs>
       <path id="DejaVuSans-4c" d="M 628 4666 
L 1259 4666 
L 1259 531 
L 3531 531 
L 3531 0 
L 628 0 
L 628 4666 
z
" transform="scale(0.015625)"/>
       <path id="DejaVuSans-73" d="M 2834 3397 
L 2834 2853 
Q 2591 2978 2328 3040 
Q 2066 3103 1784 3103 
Q 1356 3103 1142 2972 
Q 928 2841 928 2578 
Q 928 2378 1081 2264 
Q 1234 2150 1697 2047 
L 1894 2003 
Q 2506 1872 2764 1633 
Q 3022 1394 3022 966 
Q 3022 478 2636 193 
Q 2250 -91 1575 -91 
Q 1294 -91 989 -36 
Q 684 19 347 128 
L 347 722 
Q 666 556 975 473 
Q 1284 391 1588 391 
Q 1994 391 2212 530 
Q 2431 669 2431 922 
Q 2431 1156 2273 1281 
Q 2116 1406 1581 1522 
L 1381 1569 
Q 847 1681 609 1914 
Q 372 2147 372 2553 
Q 372 3047 722 3315 
Q 1072 3584 1716 3584 
Q 2034 3584 2315 3537 
Q 2597 3491 2834 3397 
z
" transform="scale(0.015625)"/>
      </defs>
      <use xlink:href="#DejaVuSans-4c"/>
      <use xlink:href="#DejaVuSans-6f" x="53.962891"/>
      <use xlink:href="#DejaVuSans-73" x="115.144531"/>
      <use xlink:href="#DejaVuSans-73" x="167.244141"/>
     </g>
    </g>
   </g>
   <g id="line2d_12">
    <path d="M 73.832727 242.037515 
L 75.136561 272.405401 
L 76.440394 284.297008 
L 77.744228 283.512578 
L 79.048061 257.236647 
L 80.351895 289.687178 
L 81.655728 261.21609 
L 82.959562 269.640191 
L 84.263395 291.708475 
L 85.567229 287.37332 
L 86.871062 270.976806 
L 88.174896 262.192173 
L 89.478729 269.751587 
L 90.782563 286.601675 
L 92.086396 294.900094 
L 93.39023 289.519427 
L 94.694064 276.193916 
L 95.997897 264.483189 
L 97.301731 266.002021 
L 98.605564 278.406582 
L 99.909398 292.346643 
L 101.213231 292.784817 
L 102.517065 282.268563 
L 103.820898 266.906237 
L 105.124732 257.663962 
L 106.428565 261.093978 
L 109.036232 290.061916 
L 110.340066 293.909095 
L 111.643899 285.108897 
L 112.947733 267.394129 
L 114.251566 252.980835 
L 115.5554 252.446524 
L 116.859233 266.0785 
L 118.163067 284.698582 
L 119.4669 295.488 
L 120.770734 290.243559 
L 122.074567 274.2611 
L 123.378401 255.072109 
L 124.682234 243.524461 
L 125.986068 244.756485 
L 127.289901 259.701093 
L 128.593735 279.730645 
L 129.897568 293.34271 
L 131.201402 291.943007 
L 132.505235 277.698023 
L 133.809069 255.745116 
L 135.112903 237.378641 
L 136.416736 233.622565 
L 137.72057 248.148407 
L 139.024403 270.894376 
L 140.328237 290.616701 
L 141.63207 294.319055 
L 142.935904 281.967311 
L 145.543571 237.442976 
L 146.847404 223.336541 
L 148.151238 222.739195 
L 149.455071 236.887337 
L 152.062738 283.755911 
L 153.366572 293.860929 
L 154.670405 288.586089 
L 155.974239 269.438575 
L 157.278072 242.841466 
L 158.581906 219.363656 
L 159.885739 211.036623 
L 161.189573 221.78371 
L 163.79724 273.777754 
L 165.101073 292.183053 
L 166.404907 292.910167 
L 167.70874 277.587942 
L 169.012574 253.285235 
L 170.316407 226.750929 
L 171.620241 207.002455 
L 172.924074 198.82437 
L 174.227908 205.358111 
L 175.531742 225.574345 
L 178.139409 277.541349 
L 179.443242 293.563501 
L 180.747076 290.671603 
L 182.050909 276.315239 
L 184.658576 218.566673 
L 185.96241 195.648839 
L 187.266243 187.968116 
L 188.570077 199.592695 
L 189.87391 225.298439 
L 191.177744 258.48403 
L 192.481577 283.899916 
L 193.785411 294.196393 
L 195.089244 288.325149 
L 196.393078 270.273832 
L 199.000745 216.109831 
L 200.304578 193.337883 
L 201.608412 180.640723 
L 202.912245 181.214031 
L 204.216079 195.475767 
L 205.519912 220.53607 
L 206.823746 249.554123 
L 208.127579 275.082291 
L 209.431413 293.447715 
L 210.735246 292.794185 
L 212.03908 279.367289 
L 213.342913 254.261161 
L 215.950581 194.481436 
L 217.254414 175.042506 
L 218.558248 171.301058 
L 219.862081 184.827322 
L 221.165915 212.226181 
L 223.773582 274.097633 
L 225.077415 291.979154 
L 226.381249 293.923883 
L 227.685082 281.892524 
L 228.988916 259.001578 
L 231.596583 203.030156 
L 232.900416 179.810896 
L 234.20425 165.65369 
L 235.508083 163.105734 
L 236.811917 172.844733 
L 238.11575 193.650439 
L 240.723417 251.74626 
L 242.027251 277.394792 
L 243.331084 293.375665 
L 244.634918 293.361947 
L 245.938751 279.305522 
L 247.242585 253.478002 
L 249.850252 191.390408 
L 251.154085 166.632568 
L 252.457919 154.684255 
L 253.761752 158.677833 
L 255.065586 178.469887 
L 256.369419 209.303749 
L 257.673253 244.082112 
L 258.977087 272.079018 
L 260.28092 290.573751 
L 261.584754 294.853321 
L 262.888587 284.156062 
L 264.192421 262.586456 
L 265.496254 236.661865 
L 268.103921 179.669578 
L 269.407755 158.775802 
L 270.711588 146.840436 
L 272.015422 145.970936 
L 273.319255 156.625292 
L 274.623089 177.648239 
L 275.926922 206.277503 
L 278.534589 266.187998 
L 279.838423 285.772531 
L 281.142256 293.919864 
L 282.44609 289.634995 
L 283.749923 270.858344 
L 285.053757 242.801074 
L 287.661424 176.789297 
L 288.965257 151.234567 
L 290.269091 137.108246 
L 291.572924 138.126831 
L 292.876758 154.740571 
L 294.180591 183.375622 
L 296.788258 252.742917 
L 298.092092 278.296545 
L 299.395926 292.934543 
L 300.699759 294.582863 
L 302.003593 282.328043 
L 303.307426 257.913673 
L 304.61126 231.275539 
L 305.915093 200.455991 
L 307.218927 172.597639 
L 308.52276 149.944223 
L 309.826594 134.648558 
L 311.130427 129.431667 
L 312.434261 134.838396 
L 313.738094 150.899432 
L 315.041928 175.619291 
L 318.953428 266.770298 
L 320.257262 286.293584 
L 321.561095 294.914515 
L 322.864929 291.3602 
L 324.168762 273.875753 
L 325.472596 246.713935 
L 329.384096 149.863107 
L 330.68793 128.73632 
L 331.991763 120.325449 
L 333.295597 126.645408 
L 334.59943 147.31729 
L 335.903264 178.557336 
L 337.207097 216.295718 
L 338.510931 249.709998 
L 339.814765 277.76524 
L 341.118598 292.471703 
L 342.422432 294.580212 
L 343.726265 283.190721 
L 345.030099 263.490599 
L 350.245433 147.282295 
L 351.549266 126.154153 
L 352.8531 113.414196 
L 354.156933 110.409296 
L 355.460767 117.653798 
L 356.7646 134.358008 
L 358.068434 160.403193 
L 359.372267 190.728618 
L 361.979934 255.177744 
L 363.283768 279.09458 
L 364.587601 292.837774 
L 365.891435 293.498686 
L 367.195268 282.237538 
L 368.499102 259.226955 
L 369.802935 229.069587 
L 372.410602 158.971297 
L 373.714436 130.01306 
L 375.018269 110.115112 
L 376.322103 102.847773 
L 377.625936 110.309925 
L 378.92977 131.482541 
L 380.233604 163.28002 
L 382.841271 237.500681 
L 384.145104 268.48095 
L 385.448938 287.535319 
L 386.752771 294.451648 
L 388.056605 290.211198 
L 389.360438 272.427534 
L 390.664272 247.796554 
L 395.879606 130.075206 
L 397.183439 110.036139 
L 398.487273 97.365753 
L 398.487273 97.365753 
" clip-path="url(#p942c7bdd4e)" style="fill: none; stroke: #1f77b4; stroke-width: 1.5; stroke-linecap: square"/>
   </g>
   <g id="line2d_13">
    <path d="M 73.832727 243.767755 
L 75.136561 255.972594 
L 76.440394 251.870589 
L 77.744228 255.948685 
L 79.048061 256.596595 
L 80.351895 263.583478 
L 81.655728 247.461887 
L 82.959562 271.387533 
L 84.263395 274.678859 
L 85.567229 253.925787 
L 86.871062 237.158977 
L 88.174896 236.599419 
L 90.782563 271.600336 
L 92.086396 277.25324 
L 93.39023 269.573321 
L 94.694064 257.499901 
L 95.997897 252.326279 
L 97.301731 260.32192 
L 98.605564 273.373538 
L 99.909398 276.886376 
L 101.213231 266.281995 
L 102.517065 247.989462 
L 103.820898 232.652266 
L 105.124732 229.545401 
L 106.428565 241.280141 
L 107.732399 260.841103 
L 109.036232 275.226859 
L 110.340066 275.64154 
L 111.643899 263.689722 
L 112.947733 248.53192 
L 114.251566 241.064963 
L 115.5554 248.244857 
L 116.859233 264.746138 
L 118.163067 276.525687 
L 119.4669 273.782678 
L 120.770734 257.590152 
L 122.074567 235.84004 
L 123.378401 218.079832 
L 124.682234 212.354568 
L 125.986068 222.66492 
L 128.593735 265.954557 
L 129.897568 277.023495 
L 131.201402 272.360031 
L 132.505235 255.465603 
L 133.809069 236.074536 
L 135.112903 225.276827 
L 136.416736 230.657552 
L 139.024403 269.190465 
L 140.328237 277.358217 
L 141.63207 268.550314 
L 142.935904 246.482105 
L 144.239737 219.491554 
L 145.543571 197.450104 
L 146.847404 188.836162 
L 148.151238 197.073898 
L 149.455071 219.959594 
L 150.758905 248.131806 
L 152.062738 270.085221 
L 153.366572 277.286966 
L 154.670405 267.422488 
L 155.974239 245.559008 
L 157.278072 221.739447 
L 158.581906 206.464002 
L 159.885739 207.936841 
L 161.189573 226.086398 
L 162.493406 252.003749 
L 163.79724 272.273738 
L 165.101073 276.7852 
L 166.404907 263.910917 
L 167.70874 238.413314 
L 169.012574 208.511284 
L 170.316407 182.291194 
L 171.620241 166.857097 
L 172.924074 166.482791 
L 174.227908 181.633626 
L 175.531742 208.753062 
L 176.835575 240.164666 
L 178.139409 265.589434 
L 179.443242 277.076221 
L 180.747076 271.681721 
L 182.050909 251.891489 
L 184.658576 199.292816 
L 185.96241 184.671931 
L 187.266243 186.759905 
L 188.570077 205.729166 
L 191.177744 261.477454 
L 192.481577 276.139031 
L 193.785411 274.026357 
L 195.089244 256.443643 
L 196.393078 228.786814 
L 197.696911 197.690774 
L 199.000745 169.638106 
L 200.304578 150.26319 
L 201.608412 143.663121 
L 202.912245 152.301288 
L 204.216079 174.381847 
L 206.823746 237.5716 
L 208.127579 263.510169 
L 209.431413 276.463303 
L 210.735246 273.889238 
L 212.03908 256.981509 
L 213.342913 230.598017 
L 214.646747 201.890789 
L 215.950581 178.651371 
L 217.254414 167.556307 
L 218.558248 172.846781 
L 219.862081 193.290148 
L 222.469748 251.930281 
L 223.773582 271.808706 
L 225.077415 277.164097 
L 226.381249 267.281252 
L 227.685082 245.042675 
L 231.596583 155.354635 
L 232.900416 134.935652 
L 234.20425 125.990314 
L 235.508083 130.163728 
L 236.811917 147.393353 
L 238.11575 175.147242 
L 240.723417 240.555438 
L 242.027251 264.9572 
L 243.331084 276.681965 
L 244.634918 273.766053 
L 245.938751 257.178479 
L 247.242585 230.772187 
L 248.546418 200.66147 
L 249.850252 173.640993 
L 251.154085 155.970561 
L 252.457919 152.358922 
L 253.761752 164.40685 
L 255.065586 189.450822 
L 257.673253 250.4538 
L 258.977087 270.745798 
L 260.28092 277.340958 
L 261.584754 269.511412 
L 262.888587 249.405934 
L 264.192421 220.894567 
L 266.800088 157.804406 
L 268.103921 131.581309 
L 269.407755 113.753966 
L 270.711588 106.999678 
L 272.015422 112.704358 
L 273.319255 130.329189 
L 274.623089 157.906058 
L 277.230756 225.096641 
L 278.534589 253.700792 
L 279.838423 272.144378 
L 281.142256 277.21524 
L 282.44609 268.320568 
L 283.749923 247.463945 
L 285.053757 218.717133 
L 286.35759 187.395148 
L 287.661424 159.465032 
L 288.965257 140.492763 
L 290.269091 134.426603 
L 291.572924 143.375741 
L 292.876758 165.728004 
L 296.788258 257.376399 
L 298.092092 273.941489 
L 299.395926 276.713315 
L 300.699759 266.05985 
L 302.003593 244.440049 
L 303.307426 215.150145 
L 305.915093 150.666946 
L 307.218927 123.031176 
L 308.52276 102.73427 
L 309.826594 91.825568 
L 311.130427 92.087297 
L 312.434261 104.168634 
L 313.738094 126.788801 
L 315.041928 157.436434 
L 317.649595 225.600148 
L 318.953428 253.501764 
L 320.257262 271.610944 
L 321.561095 277.332883 
L 322.864929 270.02157 
L 324.168762 250.995942 
L 325.472596 223.372839 
L 328.080263 160.83147 
L 329.384096 136.215005 
L 330.68793 122.125179 
L 331.991763 121.292807 
L 333.295597 134.861709 
L 334.59943 160.583833 
L 337.207097 227.273283 
L 338.510931 255.393402 
L 339.814765 272.816196 
L 341.118598 277.145097 
L 342.422432 268.374403 
L 343.726265 248.38356 
L 345.030099 220.306825 
L 348.941599 122.419525 
L 350.245433 96.639926 
L 351.549266 78.719956 
L 352.8531 70.503121 
L 354.156933 72.919166 
L 355.460767 86.184222 
L 356.7646 109.631377 
L 358.068434 140.638116 
L 360.676101 211.859294 
L 361.979934 242.966892 
L 363.283768 265.485883 
L 364.587601 276.506687 
L 365.891435 274.736335 
L 367.195268 260.607082 
L 368.499102 236.311248 
L 372.410602 141.436445 
L 373.714436 117.842829 
L 375.018269 104.970921 
L 376.322103 105.292026 
L 377.625936 119.381536 
L 378.92977 145.265004 
L 382.841271 245.772128 
L 384.145104 267.598082 
L 385.448938 277.05342 
L 386.752771 273.437348 
L 388.056605 258.057401 
L 389.360438 233.310468 
L 390.664272 202.289796 
L 393.271939 134.67519 
L 394.575772 104.101024 
L 395.879606 79.071303 
L 397.183439 61.760769 
L 398.487273 53.568 
L 398.487273 53.568 
" clip-path="url(#p942c7bdd4e)" style="fill: none; stroke: #ff7f0e; stroke-width: 1.5; stroke-linecap: square"/>
   </g>
   <g id="patch_3">
    <path d="M 57.6 307.584 
L 57.6 41.472 
" style="fill: none; stroke: #000000; stroke-width: 0.8; stroke-linejoin: miter; stroke-linecap: square"/>
   </g>
   <g id="patch_4">
    <path d="M 414.72 307.584 
L 414.72 41.472 
" style="fill: none; stroke: #000000; stroke-width: 0.8; stroke-linejoin: miter; stroke-linecap: square"/>
   </g>
   <g id="patch_5">
    <path d="M 57.6 307.584 
L 414.72 307.584 
" style="fill: none; stroke: #000000; stroke-width: 0.8; stroke-linejoin: miter; stroke-linecap: square"/>
   </g>
   <g id="patch_6">
    <path d="M 57.6 41.472 
L 414.72 41.472 
" style="fill: none; stroke: #000000; stroke-width: 0.8; stroke-linejoin: miter; stroke-linecap: square"/>
   </g>
   <g id="text_14">
    <!-- Training and Validation Loss -->
    <g transform="translate(152.690625 35.472) scale(0.12 -0.12)">
     <defs>
      <path id="DejaVuSans-54" d="M -19 4666 
L 3928 4666 
L 3928 4134 
L 2272 4134 
L 2272 0 
L 1638 0 
L 1638 4134 
L -19 4134 
L -19 4666 
z
" transform="scale(0.015625)"/>
      <path id="DejaVuSans-72" d="M 2631 2963 
Q 2534 3019 2420 3045 
Q 2306 3072 2169 3072 
Q 1681 3072 1420 2755 
Q 1159 2438 1159 1844 
L 1159 0 
L 581 0 
L 581 3500 
L 1159 3500 
L 1159 2956 
Q 1341 3275 1631 3429 
Q 1922 3584 2338 3584 
Q 2397 3584 2469 3576 
Q 2541 3569 2628 3553 
L 2631 2963 
z
" transform="scale(0.015625)"/>
      <path id="DejaVuSans-61" d="M 2194 1759 
Q 1497 1759 1228 1600 
Q 959 1441 959 1056 
Q 959 750 1161 570 
Q 1363 391 1709 391 
Q 2188 391 2477 730 
Q 2766 1069 2766 1631 
L 2766 1759 
L 2194 1759 
z
M 3341 1997 
L 3341 0 
L 2766 0 
L 2766 531 
Q 2569 213 2275 61 
Q 1981 -91 1556 -91 
Q 1019 -91 701 211 
Q 384 513 384 1019 
Q 384 1609 779 1909 
Q 1175 2209 1959 2209 
L 2766 2209 
L 2766 2266 
Q 2766 2663 2505 2880 
Q 2244 3097 1772 3097 
Q 1472 3097 1187 3025 
Q 903 2953 641 2809 
L 641 3341 
Q 956 3463 1253 3523 
Q 1550 3584 1831 3584 
Q 2591 3584 2966 3190 
Q 3341 2797 3341 1997 
z
" transform="scale(0.015625)"/>
      <path id="DejaVuSans-69" d="M 603 3500 
L 1178 3500 
L 1178 0 
L 603 0 
L 603 3500 
z
M 603 4863 
L 1178 4863 
L 1178 4134 
L 603 4134 
L 603 4863 
z
" transform="scale(0.015625)"/>
      <path id="DejaVuSans-6e" d="M 3513 2113 
L 3513 0 
L 2938 0 
L 2938 2094 
Q 2938 2591 2744 2837 
Q 2550 3084 2163 3084 
Q 1697 3084 1428 2787 
Q 1159 2491 1159 1978 
L 1159 0 
L 581 0 
L 581 3500 
L 1159 3500 
L 1159 2956 
Q 1366 3272 1645 3428 
Q 1925 3584 2291 3584 
Q 2894 3584 3203 3211 
Q 3513 2838 3513 2113 
z
" transform="scale(0.015625)"/>
      <path id="DejaVuSans-67" d="M 2906 1791 
Q 2906 2416 2648 2759 
Q 2391 3103 1925 3103 
Q 1463 3103 1205 2759 
Q 947 2416 947 1791 
Q 947 1169 1205 825 
Q 1463 481 1925 481 
Q 2391 481 2648 825 
Q 2906 1169 2906 1791 
z
M 3481 434 
Q 3481 -459 3084 -895 
Q 2688 -1331 1869 -1331 
Q 1566 -1331 1297 -1286 
Q 1028 -1241 775 -1147 
L 775 -588 
Q 1028 -725 1275 -790 
Q 1522 -856 1778 -856 
Q 2344 -856 2625 -561 
Q 2906 -266 2906 331 
L 2906 616 
Q 2728 306 2450 153 
Q 2172 0 1784 0 
Q 1141 0 747 490 
Q 353 981 353 1791 
Q 353 2603 747 3093 
Q 1141 3584 1784 3584 
Q 2172 3584 2450 3431 
Q 2728 3278 2906 2969 
L 2906 3500 
L 3481 3500 
L 3481 434 
z
" transform="scale(0.015625)"/>
      <path id="DejaVuSans-20" transform="scale(0.015625)"/>
      <path id="DejaVuSans-64" d="M 2906 2969 
L 2906 4863 
L 3481 4863 
L 3481 0 
L 2906 0 
L 2906 525 
Q 2725 213 2448 61 
Q 2172 -91 1784 -91 
Q 1150 -91 751 415 
Q 353 922 353 1747 
Q 353 2572 751 3078 
Q 1150 3584 1784 3584 
Q 2172 3584 2448 3432 
Q 2725 3281 2906 2969 
z
M 947 1747 
Q 947 1113 1208 752 
Q 1469 391 1925 391 
Q 2381 391 2643 752 
Q 2906 1113 2906 1747 
Q 2906 2381 2643 2742 
Q 2381 3103 1925 3103 
Q 1469 3103 1208 2742 
Q 947 2381 947 1747 
z
" transform="scale(0.015625)"/>
      <path id="DejaVuSans-56" d="M 1831 0 
L 50 4666 
L 709 4666 
L 2188 738 
L 3669 4666 
L 4325 4666 
L 2547 0 
L 1831 0 
z
" transform="scale(0.015625)"/>
      <path id="DejaVuSans-6c" d="M 603 4863 
L 1178 4863 
L 1178 0 
L 603 0 
L 603 4863 
z
" transform="scale(0.015625)"/>
      <path id="DejaVuSans-74" d="M 1172 4494 
L 1172 3500 
L 2356 3500 
L 2356 3053 
L 1172 3053 
L 1172 1153 
Q 1172 725 1289 603 
Q 1406 481 1766 481 
L 2356 481 
L 2356 0 
L 1766 0 
Q 1100 0 847 248 
Q 594 497 594 1153 
L 594 3053 
L 172 3053 
L 172 3500 
L 594 3500 
L 594 4494 
L 1172 4494 
z
" transform="scale(0.015625)"/>
     </defs>
     <use xlink:href="#DejaVuSans-54"/>
     <use xlink:href="#DejaVuSans-72" x="46.333984"/>
     <use xlink:href="#DejaVuSans-61" x="87.447266"/>
     <use xlink:href="#DejaVuSans-69" x="148.726562"/>
     <use xlink:href="#DejaVuSans-6e" x="176.509766"/>
     <use xlink:href="#DejaVuSans-69" x="239.888672"/>
     <use xlink:href="#DejaVuSans-6e" x="267.671875"/>
     <use xlink:href="#DejaVuSans-67" x="331.050781"/>
     <use xlink:href="#DejaVuSans-20" x="394.527344"/>
     <use xlink:href="#DejaVuSans-61" x="426.314453"/>
     <use xlink:href="#DejaVuSans-6e" x="487.59375"/>
     <use xlink:href="#DejaVuSans-64" x="550.972656"/>
     <use xlink:href="#DejaVuSans-20" x="614.449219"/>
     <use xlink:href="#DejaVuSans-56" x="646.236328"/>
     <use xlink:href="#DejaVuSans-61" x="706.894531"/>
     <use xlink:href="#DejaVuSans-6c" x="768.173828"/>
     <use xlink:href="#DejaVuSans-69" x="795.957031"/>
     <use xlink:href="#DejaVuSans-64" x="823.740234"/>
     <use xlink:href="#DejaVuSans-61" x="887.216797"/>
     <use xlink:href="#DejaVuSans-74" x="948.496094"/>
     <use xlink:href="#DejaVuSans-69" x="987.705078"/>
     <use xlink:href="#DejaVuSans-6f" x="1015.488281"/>
     <use xlink:href="#DejaVuSans-6e" x="1076.669922"/>
     <use xlink:href="#DejaVuSans-20" x="1140.048828"/>
     <use xlink:href="#DejaVuSans-4c" x="1171.835938"/>
     <use xlink:href="#DejaVuSans-6f" x="1225.798828"/>
     <use xlink:href="#DejaVuSans-73" x="1286.980469"/>
     <use xlink:href="#DejaVuSans-73" x="1339.080078"/>
    </g>
   </g>
   <g id="legend_1">
    <g id="patch_7">
     <path d="M 64.6 78.82825 
L 171.09375 78.82825 
Q 173.09375 78.82825 173.09375 76.82825 
L 173.09375 48.472 
Q 173.09375 46.472 171.09375 46.472 
L 64.6 46.472 
Q 62.6 46.472 62.6 48.472 
L 62.6 76.82825 
Q 62.6 78.82825 64.6 78.82825 
z
" style="fill: #ffffff; opacity: 0.8; stroke: #cccccc; stroke-linejoin: miter"/>
    </g>
    <g id="line2d_14">
     <path d="M 66.6 54.570437 
L 76.6 54.570437 
L 86.6 54.570437 
" style="fill: none; stroke: #1f77b4; stroke-width: 1.5; stroke-linecap: square"/>
    </g>
    <g id="text_15">
     <!-- Training Loss -->
     <g transform="translate(94.6 58.070437) scale(0.1 -0.1)">
      <use xlink:href="#DejaVuSans-54"/>
      <use xlink:href="#DejaVuSans-72" x="46.333984"/>
      <use xlink:href="#DejaVuSans-61" x="87.447266"/>
      <use xlink:href="#DejaVuSans-69" x="148.726562"/>
      <use xlink:href="#DejaVuSans-6e" x="176.509766"/>
      <use xlink:href="#DejaVuSans-69" x="239.888672"/>
      <use xlink:href="#DejaVuSans-6e" x="267.671875"/>
      <use xlink:href="#DejaVuSans-67" x="331.050781"/>
      <use xlink:href="#DejaVuSans-20" x="394.527344"/>
      <use xlink:href="#DejaVuSans-4c" x="426.314453"/>
      <use xlink:href="#DejaVuSans-6f" x="480.277344"/>
      <use xlink:href="#DejaVuSans-73" x="541.458984"/>
      <use xlink:href="#DejaVuSans-73" x="593.558594"/>
     </g>
    </g>
    <g id="line2d_15">
     <path d="M 66.6 69.248562 
L 76.6 69.248562 
L 86.6 69.248562 
" style="fill: none; stroke: #ff7f0e; stroke-width: 1.5; stroke-linecap: square"/>
    </g>
    <g id="text_16">
     <!-- Validation Loss -->
     <g transform="translate(94.6 72.748562) scale(0.1 -0.1)">
      <use xlink:href="#DejaVuSans-56"/>
      <use xlink:href="#DejaVuSans-61" x="60.658203"/>
      <use xlink:href="#DejaVuSans-6c" x="121.9375"/>
      <use xlink:href="#DejaVuSans-69" x="149.720703"/>
      <use xlink:href="#DejaVuSans-64" x="177.503906"/>
      <use xlink:href="#DejaVuSans-61" x="240.980469"/>
      <use xlink:href="#DejaVuSans-74" x="302.259766"/>
      <use xlink:href="#DejaVuSans-69" x="341.46875"/>
      <use xlink:href="#DejaVuSans-6f" x="369.251953"/>
      <use xlink:href="#DejaVuSans-6e" x="430.433594"/>
      <use xlink:href="#DejaVuSans-20" x="493.8125"/>
      <use xlink:href="#DejaVuSans-4c" x="525.599609"/>
      <use xlink:href="#DejaVuSans-6f" x="579.5625"/>
      <use xlink:href="#DejaVuSans-73" x="640.744141"/>
      <use xlink:href="#DejaVuSans-73" x="692.84375"/>
     </g>
    </g>
   </g>
  </g>
 </g>
 <defs>
  <clipPath id="p942c7bdd4e">
   <rect x="57.6" y="41.472" width="357.12" height="266.112"/>
  </clipPath>
 </defs>
</svg>
